<?xml version="1.0" standalone="no"?>
<!DOCTYPE svg PUBLIC "-//W3C//DTD SVG 1.1//EN" "http://www.w3.org/Graphics/SVG/1.1/DTD/svg11.dtd" >
<svg xmlns="http://www.w3.org/2000/svg" xmlns:xlink="http://www.w3.org/1999/xlink" version="1.1">
<metadata>
Created by FontForge 20161003 at Mon Oct 15 13:31:47 2018
 By www-data
Typeface (c) Chequered Ink Ltd. 2017. All Rights Reserved
</metadata>
<defs>
<font id="SketchitMeansSketchit" horiz-adv-x="1014" >
  <font-face 
    font-family="Sketchit Means Sketchit"
    font-weight="400"
    font-stretch="normal"
    units-per-em="2048"
    panose-1="2 0 5 0 0 0 0 0 0 0"
    ascent="1638"
    descent="-410"
    x-height="1009"
    cap-height="1432"
    bbox="-14 -415 1692 1708"
    underline-thickness="150"
    underline-position="-292"
    unicode-range="U+001D-F002"
  />
<missing-glyph horiz-adv-x="1024" 
d="M100 0v1434h824v-1434h-824zM150 50h724v1334h-724v-1334zM325 1148q31 28 58 43q53 30 112 30q92 0 148 -47.5t56 -127.5q0 -49 -23 -98.5t-87 -129.5q-63 -80 -99 -132t-36 -99q0 -38 24 -133h-32q-35 97 -35 148q0 76 81.5 218t81.5 217q0 57 -33 90t-91 33
q-38 0 -69 -17q-26 -15 -56 -40v45zM389 334l57 58q11 10 20 10q10 0 22 -11l56 -60q9 -11 9 -20q0 -11 -10 -22l-56 -62q-14 -14 -21 -14q-11 0 -20 10l-61 71q-7 9 -7 18q0 10 11 22z" />
    <glyph glyph-name=".notdef" horiz-adv-x="1024" 
d="M100 0v1434h824v-1434h-824zM150 50h724v1334h-724v-1334zM325 1148q31 28 58 43q53 30 112 30q92 0 148 -47.5t56 -127.5q0 -49 -23 -98.5t-87 -129.5q-63 -80 -99 -132t-36 -99q0 -38 24 -133h-32q-35 97 -35 148q0 76 81.5 218t81.5 217q0 57 -33 90t-91 33
q-38 0 -69 -17q-26 -15 -56 -40v45zM389 334l57 58q11 10 20 10q10 0 22 -11l56 -60q9 -11 9 -20q0 -11 -10 -22l-56 -62q-14 -14 -21 -14q-11 0 -20 10l-61 71q-7 9 -7 18q0 10 11 22z" />
    <glyph glyph-name=".null" horiz-adv-x="0" 
 />
    <glyph glyph-name=".null" horiz-adv-x="0" 
 />
    <glyph glyph-name="nonmarkingreturn" horiz-adv-x="508" 
 />
    <glyph glyph-name="space" unicode=" " horiz-adv-x="508" 
 />
    <glyph glyph-name="space" unicode="&#xa0;" horiz-adv-x="508" 
 />
    <glyph glyph-name="exclam" unicode="!" horiz-adv-x="368" 
d="M187 1435q55 0 55 -109q0 -78 -16 -78q0 -8 8 -8l-8 -39q0 -52 -47 -717h-7l7 -16v-101q0 -86 24 -86q0 -47 -55 -47q-31 0 -47 125q-70 0 -70 23v141q0 50 -8 101q8 29 8 70l-8 55q8 15 8 23q-8 43 -8 62q0 16 8 16l-8 55v109q0 66 -7 195h7l-7 15l7 94q-11 0 -23 23v16
q19 34 55 47q33 0 62 -55l-23 -140l7 -39v-125q0 -45 8 -125q0 -8 -8 -8l8 -39v-109h8q16 250 31 312l-8 16l16 187l-8 39l8 39q-8 15 -8 23q16 49 39 55zM156 226q31 -26 55 -210q-32 -16 -55 -16q-95 0 -101 109q30 117 101 117z" />
    <glyph glyph-name="quotedbl" unicode="&#x22;" horiz-adv-x="672" 
d="M151 1572q42 -7 42 -21q-28 -78 -28 -89h41q33 0 42 -158q-5 -35 -21 -35l-28 14q0 -82 -27 -82h-7q-38 0 -55 268q0 103 41 103zM468 1538q0 -14 68 -55v-14q-7 -147 -7 -172q28 0 28 -14q-10 -69 -34 -69q-76 7 -76 55q0 7 7 7q-7 121 -21 248q23 14 35 14z" />
    <glyph glyph-name="numbersign" unicode="#" horiz-adv-x="1421" 
d="M531 1305h24q9 0 24 -24q0 -4 -24 -43l-116 -317h12q47 66 128 305q52 75 67 79q16 -18 31 -18v-19q-41 -162 -128 -353q0 -6 6 -6q313 -49 341 -49v6q86 212 98 299q20 12 37 12q18 -20 18 -31q-6 -63 -6 -73q83 132 103 147h19l18 -25q0 -14 -165 -347v-6
q0 -10 238 -55q19 -20 19 -31q0 -36 -98 -43v7q-6 0 -6 -7q-101 7 -153 7h-24l-30 6q-44 -63 -104 -226h6q122 -15 122 -24q6 0 6 6q104 -12 104 -25q6 0 6 6q60 0 97 -48q-15 -31 -61 -31q-37 0 -305 25q-40 -126 -109 -403q-22 -6 -25 -6l-18 24l79 366v19h-6
q-124 -307 -146 -336h-18q-10 0 -25 25v12q12 88 37 122q-6 0 -6 6q7 0 36 97q14 0 25 55q-409 -30 -409 -55q-64 -133 -110 -176q-12 0 -12 18q25 43 73 152l-12 6h-6q-28 -32 -122 -256l-12 -6h-12q-32 0 -37 18q0 8 110 232v6h-31q-24 10 -24 43l12 6h43q42 0 79 98v18
l-43 6q-29 0 -85 -24q-28 11 -31 24v24q0 17 55 31v-6l13 6h115q38 35 98 213l-30 6l-13 -6q-6 0 -6 6q-96 -12 -110 -12q-54 0 -73 43v18q1 11 73 43v12q-97 8 -97 18l-12 -6q-37 13 -37 25v30q2 12 12 12q125 -18 317 -30h31l12 -6q41 90 110 268v12l-37 -18v6
q10 28 80 116zM281 555q6 0 6 -6q32 0 85 134q43 69 43 91h-37q-28 -12 -97 -219zM476 774q0 -17 -86 -164q-18 -26 -18 -61q34 -6 354 -31q103 186 103 214q-24 5 -24 12l-12 -6q-6 0 -6 6l-13 -6q-14 12 -24 12q-6 0 -6 -6q-181 30 -268 30zM207 402l13 -6q25 0 54 92
q-6 0 -6 6q-29 0 -61 -92zM354 482h-31q0 -15 -24 -55v-18q135 18 274 30v-6q52 6 92 24q0 13 -12 13h-43q-14 0 -25 6q-6 0 -6 -6q-109 12 -134 18l-36 -6h-37q-6 0 -6 6z" />
    <glyph glyph-name="dollar" unicode="$" horiz-adv-x="1102" 
d="M602 1454q44 0 58 -33v-33q-33 -53 -33 -83v-33h57q19 0 33 9q145 0 206 -66q0 -55 -82 -107q-12 0 -74 49l-66 17q-140 -26 -140 -91h-9l9 -17v-57q0 -19 -9 -33q0 -75 108 -75q176 -64 263 -239q66 -132 66 -280q0 -138 -148 -272q-71 -38 -280 -91q-9 -44 -9 -74v-33
q-17 -33 -41 -33l-41 8v-33h-8v17h-9v-8q9 -16 9 -25h-17q-35 0 -58 190q-8 0 -8 -9q-144 0 -330 91l-49 58v33q0 13 33 33h8q29 -58 66 -58q228 -49 247 -49h42l82 511l-8 16q8 15 8 33q0 31 -156 66q-99 59 -99 124v16q0 102 197 297v25l-57 165v8q0 13 33 33h33
q19 -27 66 -157h8q32 190 82 190h17zM379 959v-8l58 -17h16l17 9q-8 94 -17 107q-74 -36 -74 -91zM346 868l-8 -16h25q0 16 -17 16zM404 844v-17l58 -8h8v17h-50zM569 819v-25q48 0 206 -74q-92 99 -206 99zM577 687q-8 -14 -8 -33v-16q0 -50 8 -50l-8 -82v-223
q0 -43 -8 -140q8 0 8 -8q305 56 305 280q0 125 -214 256q-55 16 -83 16z" />
    <glyph glyph-name="percent" unicode="%" horiz-adv-x="1458" 
d="M1289 1435l24 -32q0 -9 -8 -9l8 -16q-2 -21 -186 -194q-186 -251 -551 -665q-340 -422 -438 -519h-16q-17 0 -17 16q103 227 390 592l267 332q0 14 57 49q0 33 275 292q126 154 195 154zM227 1313q121 0 170 -178q-44 -211 -186 -211h-8q-63 0 -130 65h-8v-8
q0 -162 138 -162q134 67 162 162h24v-8q-94 -203 -219 -203q-170 34 -170 276v65q52 170 122 170q0 16 105 32zM89 1094q16 -129 106 -129v-8q137 32 137 105q25 19 25 57v24q0 48 -41 97q-186 -36 -186 -48q-41 -71 -41 -98zM697 778v-8q16 0 16 16v9q-16 -3 -16 -17z
M1062 478q162 -37 162 -154q0 -77 -65 -178q0 -51 -178 -81q-156 0 -186 194q0 80 105 187q45 24 162 32zM1054 413v-32q11 -32 40 -32v-17q0 -16 -16 -16h-16q-4 0 -57 49q-65 -93 -65 -146v-57q0 -16 49 -24q187 55 187 178v33q-22 40 -82 73q-13 -9 -40 -9z" />
    <glyph glyph-name="ampersand" unicode="&#x26;" horiz-adv-x="1189" 
d="M462 1435q70 0 184 -227q42 -42 42 -100v-25q-126 -282 -176 -294q-143 -93 -143 -101v-8q23 -38 260 -269h17q107 236 185 369q51 115 75 118q17 -3 17 -17v-17q0 -69 -134 -402q-17 -72 -17 -143q20 -17 118 -59q62 17 83 17l9 -17v-17q0 -23 -84 -33q-44 0 -168 50
v-17q186 -151 277 -151q3 17 17 17h8q17 -3 17 -17v-8q0 -50 -59 -67q-117 21 -302 159h-17q-132 -125 -344 -176l-42 8h-8q-28 0 -42 -8q-201 0 -201 193q-34 117 -34 134v9q0 65 59 209q16 82 100 185v17q-64 0 -109 252q-42 76 -42 151q0 89 378 260q15 0 76 25z
M176 1024q80 -210 101 -210h17q81 77 251 185q0 25 9 25l-9 17v8q0 252 -83 252h-9q-277 -45 -277 -277zM84 1133q8 -15 8 -34h9l8 42v17q-6 0 -25 -25zM403 806h17q58 43 58 58h-16q-16 0 -59 -58zM151 596h17q7 0 50 59v16h-8q-14 -1 -59 -75zM109 310q8 -14 8 -33h-8
q0 -10 34 -151l58 8h42q261 0 261 51q36 0 58 92q-14 31 -243 243q-42 58 -42 67h-8q-160 -153 -160 -277z" />
    <glyph glyph-name="quotesingle" unicode="'" horiz-adv-x="346" 
d="M179 1498q35 -6 35 -55v-40q0 -11 -5 -20q3 -3 10 -100l-15 -10h-10q-7 0 -15 15q-5 92 -5 115l-10 5q0 -62 -35 -90h-10q-8 0 -20 20l5 80q-8 0 -20 20v25q0 8 20 20h10q30 -16 30 -45h5q0 41 30 60z" />
    <glyph glyph-name="parenleft" unicode="(" horiz-adv-x="652" 
d="M456 1435h13q37 0 48 -27v-7q0 -56 -89 -122q-83 0 -197 -232q-58 -188 -68 -197q0 -7 7 -7q-20 -83 -20 -143q0 -150 149 -387q15 -76 157 -184q46 -55 61 -95q-14 -34 -41 -34q-68 39 -211 75q-265 209 -265 544v88q0 295 313 640q52 68 88 68l27 -7q0 10 28 27z
M82 823v-27h6q0 20 7 47q-13 0 -13 -20zM75 626v-7q0 -245 149 -429q52 -47 62 -47l47 -21q13 7 21 7q-90 77 -123 184q-121 185 -149 313h-7z" />
    <glyph glyph-name="parenright" unicode=")" horiz-adv-x="670" 
d="M122 1432q21 -4 57 -36l43 7q96 -25 172 -143q157 -279 157 -372v-29q0 -455 -300 -673q0 -35 -179 -186h-22q-50 25 -50 36q0 40 93 114q251 431 279 716q0 25 -43 151q-35 83 -71 222q-20 46 -151 114l-28 36v7q13 26 43 36zM387 1095v-14q69 -198 78 -207v7
q-21 121 -71 214h-7zM444 759q0 -54 -143 -401v-7h7q93 112 143 336q0 8 -7 8l7 35v29h-7z" />
    <glyph glyph-name="asterisk" unicode="*" horiz-adv-x="690" 
d="M386 1620h10v-5q0 -20 15 -85h10q0 20 55 65l10 -5q-75 -122 -75 -170l40 50h10v-5q0 -8 -40 -95h15q73 10 80 10h5q8 0 20 -20q0 -19 -110 -40v-10q40 -68 40 -90v-5q0 -10 -10 -10q-62 89 -70 90l-5 -25q7 -24 70 -70v-15q0 -10 -10 -10q-20 0 -65 45q-10 0 -15 -135
l5 -35l-15 -10h-25q-10 -75 -30 -75h-10q-10 0 -10 10v5l20 35l-5 10q15 23 15 155v30h-10q-64 -100 -95 -100l-10 25l60 150l10 15v5q-50 5 -75 5q0 -10 -10 -10h-20q-7 0 -25 30v10q7 20 45 20h45q10 0 10 10q-84 104 -85 155l15 10h5q24 -45 30 -45q0 20 10 20
q13 0 85 -55h5v35q0 5 5 5q0 5 -5 5q10 55 25 55q10 -20 10 -55v-75h15q35 64 35 95l-5 20q5 10 5 15l-5 10l5 10l-5 30q5 10 5 15zM216 1470v-10q0 -11 55 -55q8 -23 30 -35l5 10q0 29 -90 90z" />
    <glyph glyph-name="plus" unicode="+" horiz-adv-x="655" 
d="M298 1011q10 -12 10 -20h10q16 15 25 15q26 0 40 -35q-10 -54 -10 -115v-45q0 -5 -5 -5q5 -9 5 -20h20q32 0 115 20q27 0 35 -20v-15q-6 -12 -120 -55l-50 -35q20 -155 30 -155q-14 -25 -40 -25q-30 34 -30 85h-5v-70l-30 -5q-30 12 -30 20v5q0 11 5 20q-5 10 -5 15h5
l-5 10v70q0 10 -10 10h-15q-145 9 -145 40v30q0 22 160 45v105q0 18 -5 45q11 85 40 85h5z" />
    <glyph glyph-name="comma" unicode="," horiz-adv-x="467" 
d="M161 182h21q9 0 92 -113q15 0 22 -42q-49 -220 -99 -220q0 -14 -15 -14q-52 0 -56 21v14q78 49 78 128q9 0 14 42h-7q-19 0 -50 -21q-83 0 -106 42v22q44 141 106 141z" />
    <glyph glyph-name="hyphen" unicode="-" horiz-adv-x="696" 
d="M36 734h8q15 -32 127 -32h131q9 0 16 6q4 0 4 -6l20 6h39q34 0 108 -6v-6l8 6q39 -19 39 -32q-4 0 -4 -6q60 -24 60 -52v-19q0 -9 -12 -19h-36q-39 0 -39 13l-8 -7l-195 52q-4 0 -4 -7l-20 7h-16q-93 0 -123 -26q-4 0 -4 6l-63 -12q-31 0 -48 44l4 39l-8 19v6q0 10 16 26
z" />
    <glyph glyph-name="hyphen" unicode="&#xad;" horiz-adv-x="696" 
d="M36 734h8q15 -32 127 -32h131q9 0 16 6q4 0 4 -6l20 6h39q34 0 108 -6v-6l8 6q39 -19 39 -32q-4 0 -4 -6q60 -24 60 -52v-19q0 -9 -12 -19h-36q-39 0 -39 13l-8 -7l-195 52q-4 0 -4 -7l-20 7h-16q-93 0 -123 -26q-4 0 -4 6l-63 -12q-31 0 -48 44l4 39l-8 19v6q0 10 16 26
z" />
    <glyph glyph-name="period" unicode="." horiz-adv-x="499" 
d="M210 220q53 0 53 -53h47q10 0 20 -20v-14l-7 -33q9 0 34 -33v-20q0 -24 -167 -47q-18 2 -33 33l-14 -6q-53 30 -53 66q0 16 120 127z" />
    <glyph glyph-name="slash" unicode="/" horiz-adv-x="690" 
d="M844 1435q36 -4 36 -18q0 -6 -6 -6l6 -12v-12q-111 -129 -277 -398q-25 0 -30 -48q-183 -282 -332 -652q-60 -222 -84 -241q12 -2 12 -12l-12 -6h-6q-14 0 -18 42q0 119 168 495l-12 6q-126 -228 -217 -501q-10 -72 -36 -72q-25 8 -36 30q95 328 223 609q171 322 326 639
q50 67 60 67q30 -9 30 -43q-160 -280 -259 -482q-12 0 -91 -175q38 49 127 199l416 585z" />
    <glyph glyph-name="zero" unicode="0" horiz-adv-x="803" 
d="M332 1435q75 0 197 -189q136 -310 136 -423q7 0 7 -30v-23q0 -31 -7 -83q7 -13 7 -30l-7 -38l7 -15q-17 -98 -30 -98l8 -15q-136 -483 -280 -483l-38 7v-15l-37 8q-8 0 -23 -8q-97 33 -174 128q-36 82 -83 386q-13 0 -15 52v76q42 582 181 665q28 0 136 120zM317 1352
v-38l76 8h22v15q0 10 -60 45q-34 -15 -38 -30zM106 861q0 -8 7 -23q-7 -77 -15 -90q0 -8 8 -8l-8 -53v-219q14 -171 136 -392q44 0 91 -31l15 8h7l16 -8q83 63 151 189q0 18 60 151l-15 8q-19 -80 -91 -144v8q76 155 76 257q7 0 15 60q0 79 -128 461l-8 68q8 0 8 7
q-16 0 -16 15q0 8 8 8l-8 38v105h-60q-170 0 -227 -317q-5 -98 -22 -98zM461 1239v-61q0 -7 -8 -7q30 -43 53 -212q15 0 83 -234q0 -22 15 -75v-16q0 -7 -7 -7l7 -15v-91h8q0 38 15 38l-8 15q8 78 15 91l-7 15l7 15l-7 45v8q0 7 7 7q0 100 -158 484h-15z" />
    <glyph glyph-name="one" unicode="1" horiz-adv-x="351" 
d="M147 1435h17q39 0 52 -95q-20 -156 -26 -156q0 -8 9 -8q0 -20 -9 -35q-8 -598 -26 -925h-8l8 -17l-8 -43q0 -9 8 -9q-14 -121 -34 -121q-9 17 -9 26h-17q0 -52 -26 -52h-26q-52 23 -52 35v605q0 8 9 8l-9 18v86l9 52q0 9 -9 9q0 9 9 26q8 227 8 380v17q3 17 18 17
q31 -31 43 -112q8 0 8 -9v-60q0 -128 -17 -406v-26h9l8 52l-8 17q17 22 52 346q0 8 -9 8l9 44v34l-9 52q9 17 9 26l-9 60q9 91 9 147z" />
    <glyph glyph-name="two" unicode="2" horiz-adv-x="1192" 
d="M383 1432q272 0 347 -274l9 -64q0 -9 -9 -9l9 -45q-36 -265 -73 -265l9 -18q-98 -230 -201 -392v-9h-9l-18 9q0 -67 -110 -155q-54 -59 -54 -64q18 0 18 -9q9 0 9 9q129 -55 246 -55q146 28 146 55q9 27 55 27h9q38 0 100 -9q50 28 128 37q73 -7 73 -46q0 -46 -146 -46
q0 -9 -18 -9q0 9 -9 9q0 -8 -137 -54l-18 9q-80 -46 -283 -46q-91 0 -91 18q-48 -27 -155 -36q-128 15 -128 46v9q0 59 192 337q310 436 310 538v55q0 333 -146 356h-55q-114 0 -255 -146v-28l9 -18q-47 -46 -82 -46h-19q-13 0 -27 37q18 30 18 55q-13 0 -27 27
q0 111 274 192q63 18 109 18zM502 602l-174 -255q-64 -91 -64 -119h19q165 201 228 365v9h-9z" />
    <glyph glyph-name="three" unicode="3" horiz-adv-x="1174" 
d="M428 1429h43q190 0 427 -120q86 -106 86 -257q-6 -93 -154 -282q153 -104 205 -291v-43q-50 -58 -154 -231q-107 -111 -188 -111l-8 17h25v26h-8q0 -23 -240 -111q-100 -26 -163 -26q-172 0 -248 240v34q-37 0 -51 60q8 0 51 34q106 -122 240 -163q116 -42 205 -42l77 8
v-8q214 69 214 196v43q0 65 -111 231q0 15 -43 17q-8 0 -8 -8q-129 8 -129 25l-17 -8q-60 20 -60 34l-17 -8q-8 0 -8 8q-123 -51 -137 -51q0 12 -26 25q0 28 77 60l-9 43h9q21 0 77 -26q98 26 274 52q205 82 205 188l17 9q0 8 -8 8q5 69 17 69q0 217 -342 265
q-109 -11 -206 -51q-8 0 -8 8l-43 -8h-9q-46 0 -60 34v8q108 96 206 103zM676 753l-9 -17l18 -9l8 17zM804 590v-8q69 -122 69 -205q0 -37 -26 -95v-8h9q51 109 51 180q0 54 -103 136zM830 265q0 -17 -94 -120h8q51 24 103 103v17h-17zM171 180v-9q38 -94 111 -94h103l60 17
v9q-92 0 -274 77z" />
    <glyph glyph-name="four" unicode="4" horiz-adv-x="1093" 
d="M506 1435q33 -12 33 -25l-8 -58q33 0 33 -33l-191 -324q-196 -298 -257 -448q-13 0 -41 -58h8q27 17 50 17h25q8 0 8 -8l16 8q34 -17 216 -33q158 0 158 83q41 503 41 721q30 92 50 92q25 0 25 -92q-8 0 -8 -8q58 0 58 -265q0 -25 8 -25l-8 -42v-16q0 -204 -25 -332
q8 -16 8 -25l58 8h8v-8q-83 -58 -83 -108h9q253 58 273 58l9 -16q-72 -50 -208 -92q0 9 -8 9l-91 -50l-75 -365h-25q-16 0 -16 17v16q0 8 8 8l-8 17q25 115 25 158v8h-9q-19 -141 -41 -141q-17 0 -17 17v58q0 18 9 33l-9 16q9 68 17 83q-8 15 -8 33q8 17 8 25l-17 9h-25
q-162 0 -323 83q-127 -50 -133 -50q-33 17 -33 41q164 388 448 896q0 42 17 42l-9 16q25 50 50 50zM639 755v-50h8v50h-8zM630 697v-9l-8 -132v-25h8l17 166h-17zM597 365q-16 -87 -16 -108v-8h8q2 41 17 41l-9 17q0 6 9 50v8h-9z" />
    <glyph glyph-name="five" unicode="5" 
d="M572 1435v-8l17 8h41q9 0 9 -8l16 8q17 0 166 -75q33 0 75 -58v-16q0 -17 -17 -17q-38 25 -108 42v8l-33 -8l-33 8l-17 -8q-8 0 -8 8q-124 -8 -348 -33v-9l25 -33v-41q0 -25 -34 -25q-82 39 -82 99h-25q0 -105 66 -340q83 9 124 9l117 -9q27 17 49 17q130 0 241 -183h-17
q67 -183 67 -199v-91q0 -162 -125 -390q-51 -67 -141 -91q-139 8 -215 8h-17q-39 0 -191 75q-52 0 -91 50q5 66 17 66l-9 17q0 41 50 83h25q16 -3 16 -17q-16 -59 -16 -66v-9h8q70 0 191 -74q53 -33 83 -33v16q-38 0 -116 108q2 17 16 17h9q122 -125 207 -125q87 0 108 149
v17q0 17 -25 17v16q41 32 41 67v24q0 104 -82 175v25q2 16 16 16q48 0 108 -99v-9h17q0 107 -133 233q-96 66 -232 66q-83 0 -83 -66q0 -76 -42 -92q-35 0 -41 100h-17v-8q8 -17 8 -25q-27 -25 -41 -25q-29 0 -50 74q18 166 25 183q0 8 -8 8q8 83 16 83l-8 17v16
q0 121 -33 175q-27 -17 -50 -17h-33l-25 17q0 41 91 91q12 58 33 58q103 -8 108 -8q97 0 340 41zM747 307v-33h8v33h-8z" />
    <glyph glyph-name="six" unicode="6" 
d="M608 1432q0 -15 38 -37l28 18h19q46 -24 46 -37v-10q0 -43 -112 -65q-75 -41 -112 -84l-66 -19q-10 0 -28 9q-187 -119 -187 -234q-22 -15 -56 -206l47 -9q61 9 121 9v-18h-18v-10q74 0 112 -28h37q30 47 56 47v-9q19 9 29 9q252 -47 252 -131q48 0 94 -253v-46
q-124 -319 -281 -319q0 10 -9 10q0 -19 -19 -19v9l-19 -9h-121q-282 0 -375 197q-65 122 -84 252q0 101 94 534q144 319 393 440h56zM524 730q0 -35 -19 -56q259 -110 262 -169h19v19q-36 92 -178 187l-18 -9q-35 28 -66 28zM168 702q0 -28 -9 -28q9 -18 9 -28q58 19 75 19
v9q0 22 -75 28zM140 533q10 -19 19 -102h9q100 56 132 56h9q0 -61 -122 -85v-18q106 -144 253 -262h47q309 86 309 178q0 149 -291 290q-60 18 -84 18h-28q-215 0 -253 -75zM187 197v-10l38 -37v9q0 15 -38 38z" />
    <glyph glyph-name="seven" unicode="7" 
d="M685 1432v-8q15 8 23 8q150 -14 150 -94q-16 -3 -16 -16v-8q47 -81 47 -94l-24 -16h-7l-24 16h-16v-8q24 -29 24 -55q-59 -78 -142 -410q-128 -330 -196 -487q-19 -27 -56 -40q-68 -220 -102 -220h-16l-7 16q212 782 354 1109q21 0 47 95h-8q-264 -48 -464 -71v-32
l-32 -8v8l-15 -8q-79 10 -79 32q0 39 63 79l-87 39h-8q-28 0 -63 -32q-15 0 -15 16v16q0 30 39 71q-55 12 -55 39q18 47 55 47v-8q15 8 24 8q97 -31 165 -31h39q8 0 8 -8q303 55 394 55zM252 1306h-16q-16 -2 -16 -16q83 -31 181 -47q159 32 331 79v8q0 13 -47 31z" />
    <glyph glyph-name="eight" unicode="8" horiz-adv-x="960" 
d="M437 1432q77 0 104 -52l-8 -44q57 -44 139 -79q88 -92 88 -157q0 -141 -79 -358l-17 -17q31 -100 148 -297q18 -29 18 -53q-44 -253 -97 -253q0 -43 -244 -122q-472 31 -472 218q0 228 262 463q-51 4 -148 96q-131 137 -131 245q26 132 122 262q47 76 315 148zM166 1048
q0 -96 157 -96q13 0 227 -88q36 12 52 44v18q-111 157 -122 157h-113v26q70 50 70 61q-14 0 -70 61q-201 -26 -201 -183zM585 1100q43 -89 70 -96v9q0 48 -61 87h-9zM87 987v-27q138 -209 254 -209h26q46 0 105 61q-55 35 -306 96l-61 70v9h-18zM541 751l-26 -35l18 -9
q12 0 26 26q0 18 -18 18zM428 506q-17 9 -26 9q-189 -168 -227 -288q-9 0 -9 -9q9 -17 9 -26q-9 0 -9 -9q30 -59 61 -69l210 -27q207 0 288 192v18q0 38 -123 201q0 23 -69 113q-61 -11 -61 -61q0 -12 -44 -44zM140 341v-9h8q94 140 123 140v34q-65 0 -131 -165z" />
    <glyph glyph-name="nine" unicode="9" horiz-adv-x="873" 
d="M393 1432h9q8 0 8 -9q9 0 9 9q65 0 201 -87h17q7 61 35 61h18q13 0 35 -35q-9 -74 -9 -114l9 -43q-18 -3 -18 -18q18 -2 18 -17q17 -258 17 -280v-244q0 -9 -9 -9q0 -9 9 -9q-10 -158 -35 -200l9 -18q-26 -107 -44 -236q9 -17 9 -26h-9q18 -44 18 -61q-34 -26 -79 -26
q-17 25 -17 105h-9q0 -94 -35 -123l9 -43l-18 -9h-8q-25 0 -35 79q26 479 26 611q-46 33 -210 52q-143 71 -253 201q-29 29 -61 122q0 129 131 280q141 87 262 87zM227 1091v-8q0 -114 218 -262h18q45 0 105 236l61 96v122h-9l-61 -9q-41 44 -122 44q-210 0 -210 -219z
M175 1284q-70 -95 -70 -184v-35q0 -41 61 -105v9q-35 44 -35 157q0 31 61 158h-17zM637 908q-35 -62 -35 -78q7 -97 27 -97h26v158q0 17 -18 17zM611 629q0 -9 9 -9l-9 -44v-52q0 -78 -9 -175v-17h9q44 208 44 367h-9q-28 0 -35 -70zM594 314v-35h8v35h-8z" />
    <glyph glyph-name="colon" unicode=":" horiz-adv-x="557" 
d="M223 1016q54 0 54 -54v-6l-54 -30q0 -14 -18 -48l12 -6q26 0 90 108q20 18 30 18q30 -8 30 -42q-9 0 -18 -24l6 -30q0 -59 -54 -114h-12q-23 0 -54 30q-22 -12 -48 -12h-18q-15 0 -30 48q24 104 84 162zM247 530h24q8 0 36 -48q0 15 24 18q25 -8 36 -30q-12 -16 -30 -84
l6 -12v-12q0 -67 -30 -84h-6q-48 5 -48 42q6 0 6 6q-108 0 -108 84q6 27 90 120zM229 386l12 -6h6q0 9 36 54v12h-18q-36 -33 -36 -60z" />
    <glyph glyph-name="semicolon" unicode=";" horiz-adv-x="557" 
d="M203 1026h6l54 -42q2 12 12 12h18q9 0 24 -24q-6 -32 -6 -54l54 54h12q8 0 30 -30q-62 -107 -90 -126q-66 0 -66 18v6q0 6 6 6q-12 31 -12 48q-22 -18 -42 -18h-42q-54 8 -54 54q56 96 96 96zM203 972l-30 -42v-6h30q36 21 36 30v12q-4 0 -36 6zM245 510l66 -42
q0 -26 66 -102v-24q0 -168 -114 -258h-30q-31 0 -36 18q76 38 102 120q18 38 18 120q0 12 -12 12q-27 -42 -60 -42q-26 0 -60 54v6l6 42q-27 12 -30 24l6 12h-6q29 60 84 60zM239 378v-6q12 0 12 12v6q-12 -2 -12 -12z" />
    <glyph glyph-name="semicolon" unicode="&#x37e;" horiz-adv-x="557" 
d="M203 1026h6l54 -42q2 12 12 12h18q9 0 24 -24q-6 -32 -6 -54l54 54h12q8 0 30 -30q-62 -107 -90 -126q-66 0 -66 18v6q0 6 6 6q-12 31 -12 48q-22 -18 -42 -18h-42q-54 8 -54 54q56 96 96 96zM203 972l-30 -42v-6h30q36 21 36 30v12q-4 0 -36 6zM245 510l66 -42
q0 -26 66 -102v-24q0 -168 -114 -258h-30q-31 0 -36 18q76 38 102 120q18 38 18 120q0 12 -12 12q-27 -42 -60 -42q-26 0 -60 54v6l6 42q-27 12 -30 24l6 12h-6q29 60 84 60zM239 378v-6q12 0 12 12v6q-12 -2 -12 -12z" />
    <glyph glyph-name="less" unicode="&#x3c;" horiz-adv-x="1119" 
d="M815 1435q36 -30 36 -36q0 -46 -152 -209q-24 -37 -50 -72v-7q16 0 173 151h22q21 -24 21 -36q-1 -26 -158 -159q-157 -171 -188 -202q0 -9 -137 -158q-43 -45 -43 -65q305 -240 447 -397q5 -34 123 -130q0 -19 64 -93v-8q0 -14 -14 -14h-14q-90 87 -361 267l-375 223
h-14l-137 -180h-29q-11 0 -29 29v14q26 56 115 181q-21 7 -21 43q14 0 50 58q58 14 58 28q0 9 -65 65q0 15 43 22q0 -8 65 -36h7q41 69 476 627q33 94 87 94zM274 606q0 -19 50 -29q0 11 -28 29h-22z" />
    <glyph glyph-name="equal" unicode="=" horiz-adv-x="1203" 
d="M558 991q60 -6 60 -12l12 6h6q14 0 24 -6q6 0 6 6q151 -12 246 -78q50 -9 66 -24l6 12q90 -14 90 -36q0 -12 -12 -12h-54q-6 0 -6 6q-6 0 -6 -6q-78 6 -78 12q-64 -14 -78 -24h-120q-13 0 -24 -6q0 7 -156 12v6l-12 -6h-12q-22 0 -54 6l-12 -6l-12 6l-36 -6l-54 6
q-126 -6 -234 -18v6q-32 -12 -66 -12q-18 22 -18 42v12q0 15 24 18v6q-18 21 -24 66q18 12 42 18l126 -24q339 30 360 30zM492 931v-12q24 0 24 -6q11 6 24 6q0 12 -12 12q-12 -6 -18 -6q-12 6 -18 6zM546 931v-12l30 6v6h-30zM582 931v-12h30v12h-30zM78 925v-6
q0 -9 24 -24h42v6q0 15 -66 24zM456 925v-6h30v6h-30zM594 571q11 -6 24 -6l30 6v-6l12 6q6 0 6 -6l12 6q78 -6 126 -6q6 0 6 -6q6 0 6 6q54 0 84 -36v-24q0 -50 -330 -72q-12 6 -18 6q0 -12 -18 -12q-6 0 -6 6l-60 -12q-6 0 -6 6q-259 -24 -348 -54q0 -12 66 -18q6 0 6 6
l30 -6h24l30 6v-6q23 6 240 30v-6q6 6 90 12v-6q8 4 84 12q6 0 6 -6l30 6q36 0 114 -12v-18q0 -13 -60 -18q-6 0 -6 6l-36 -6q-95 0 -186 -12v6q-31 -12 -48 -12v6q-197 -36 -282 -36v6l-12 -6h-42q-150 12 -150 66q0 46 108 72v6q-16 0 -24 48q0 9 24 24h6q6 0 6 -6
q54 12 324 48v-6q14 6 138 18zM462 493v-6q12 0 12 -6l96 12v-6q12 6 18 6q31 0 120 6v12h-6q-55 0 -240 -18zM438 487v-6h18v12q-12 -6 -18 -6zM372 481v-6h30v6h-30z" />
    <glyph glyph-name="greater" unicode="&#x3e;" horiz-adv-x="1067" 
d="M0 1432h26q56 -43 80 -92l59 -47q0 27 40 33q19 -1 270 -237q141 -100 383 -337v-6q0 -14 -13 -14h-7q-13 0 -46 53q-13 -6 -20 -6v-14q20 0 158 -171q7 -13 7 -20l-26 -20q-1 5 -132 126q-83 -96 -238 -238l-6 -13h13q98 81 257 172h20q20 -7 20 -40q0 -9 -416 -297
q-207 -174 -290 -264h-7q-10 0 -20 26q13 22 13 40q-8 0 -33 33v13q50 100 324 297q316 270 316 323q-340 308 -574 489q-148 131 -158 204v7z" />
    <glyph glyph-name="question" unicode="?" horiz-adv-x="702" 
d="M297 1435q146 0 223 -126l-7 -15q45 -7 45 -82v-89q0 -8 -8 -8l8 -15v-7l-15 -22l7 -38q-14 -7 -22 -7q0 -8 7 -22q-33 -260 -178 -260q-41 0 -127 -75q38 -22 38 -37q-23 -181 -23 -201q8 -29 8 -59l-8 -37q15 -3 15 -15v-15q0 -11 -22 -22l-37 22v-15l15 -22v-15
q0 -15 -15 -15h-23q-89 49 -111 401q52 96 52 134q36 97 126 97q209 44 209 149v7q-15 34 -30 112q0 7 7 7q0 165 -44 178q-197 -37 -290 -74q0 -52 -38 -74h-29q-30 10 -30 67v44q74 142 178 142v-8q33 15 119 15zM327 818v-8q37 0 37 -7q45 15 45 30v22q-27 -19 -82 -37z
M193 758v-7h23q52 38 52 45q-75 -12 -75 -38zM156 558q0 -11 22 -23q0 89 23 112v7h-23q-22 0 -22 -96zM164 424l7 -45h7v45h-14zM193 164q90 0 90 -52q-23 -38 -23 -53h-7l-15 8v-8q7 -14 7 -22q-35 -37 -81 -37q-12 0 -30 30q27 134 59 134z" />
    <glyph glyph-name="at" unicode="@" horiz-adv-x="1345" 
d="M603 1435q223 -33 351 -130q58 -17 155 -237q31 0 49 -187l-8 -17q16 -65 16 -138h-8l8 -17q0 -139 -163 -285q-59 -33 -90 -33q-159 76 -204 115q-58 -115 -146 -115q-184 0 -261 294v65q0 182 179 334q14 0 49 17q57 -25 57 -33l73 16q106 -40 106 -171
q16 -318 66 -318h40q131 0 131 196l8 16q-88 449 -196 449l-146 81h-90q-34 0 -90 8q-91 -17 -228 -187q-47 -105 -106 -123q0 -24 -16 -57q8 -32 8 -57q-57 -105 -57 -179v-24q72 -335 130 -335q33 -66 310 -220q27 16 49 16l41 -24h24q15 0 155 65v-8q-8 -16 -8 -24l16 -9
q107 35 212 172q48 81 57 81h8q12 0 25 -24v-17q0 -73 -180 -228q-148 -65 -179 -65v-25h16q182 0 269 163h9l16 -8q0 -97 -163 -204l-122 -24q-44 0 -212 73q-112 0 -392 147q-98 96 -98 220q-32 66 -73 220v41q0 314 179 530q107 90 221 188q0 8 203 16zM1044 1027v-8
q32 -113 32 -122h8v24q-10 106 -40 106zM432 758v-24q0 -180 122 -180q123 0 123 106q6 0 16 33q-8 112 -41 261q8 14 8 33v8h-16q-158 0 -212 -237zM1076 709q0 -132 -212 -187l-49 8h-8v-16q93 -53 139 -66q138 138 138 229v32h-8zM506 489v-8q0 -14 48 -24q16 8 25 8
q0 -8 8 -8l16 24l-8 16l-41 -8q-8 0 -8 8q-13 -8 -40 -8z" />
    <glyph glyph-name="A" unicode="A" horiz-adv-x="1090" 
d="M571 1577h8q11 0 23 -23q-61 -268 -115 -398v-62l184 -344q38 0 69 -69q47 0 76 -62q0 -27 -38 -69v-7q207 -386 207 -437l-23 -15q-77 47 -77 99q16 0 16 23l-161 322h-16l-15 -8q245 -570 245 -605v-23q0 -15 -15 -15q-13 18 -69 184q-117 231 -130 291h-8v-23
q31 -63 100 -276q7 0 23 -30v-8q-35 9 -108 191q-12 0 -84 230q-29 100 -84 100q-92 23 -123 23q-222 -46 -222 -69l-153 -360v-8q8 -13 8 -31q-11 0 -31 -68h-31l-15 7q0 175 115 498h-8q-11 0 -46 46v15q3 16 16 16q14 -8 23 -8q0 8 7 8q16 -19 16 -31q15 0 15 15v8
l-31 31v15q39 61 69 61q69 204 138 460q-91 235 -122 237v-30h-16q-15 0 -15 15v61q0 11 38 23q0 7 -7 62l22 15h16q48 -61 115 -214l15 -8q15 122 38 122h23q0 -25 8 -38q-17 -29 -46 -138l23 -69q50 55 138 360zM372 1163v-23q2 -15 15 -15l8 15q-15 0 -15 23h-8z
M349 1102l-61 -230q11 1 84 199l-8 31h-15zM449 1018q-8 -15 -8 -23l123 -253h7q0 8 8 23q-11 1 -123 253h-7zM426 956l-100 -268v-7q155 19 207 53q-67 172 -107 222zM341 903q3 -15 16 -15l7 15h-23zM265 719v-8h7q22 0 69 154v7q-9 0 -53 -122q-8 0 -23 -31zM640 704v-8
q3 -15 15 -15v23h-15zM418 650v-15h31q103 23 115 23v15l-8 15q-100 -38 -138 -38zM678 627v-8q0 -38 31 -46v16q-15 19 -15 38h-16zM747 627v-23h16v23h-16zM219 604q0 -8 -8 -23l15 -8l8 31h-15zM280 596v-15h8l38 8q0 15 -23 15q-15 -8 -23 -8zM564 589l15 -8h23v8
q0 15 -15 15h-8q-15 -2 -15 -15z" />
    <glyph glyph-name="B" unicode="B" horiz-adv-x="1076" 
d="M130 1543h16q25 -8 25 -49v-81q2 -16 16 -16q150 32 187 32h73q60 0 170 -97q138 -54 138 -163v-16q0 -157 -32 -284q211 -173 211 -357v-8q-74 -186 -154 -212q-42 -46 -480 -195q0 -8 -81 -16q-15 8 -24 8q-16 -8 -24 -8q0 8 -9 8q-10 -89 -32 -89h-8q-98 37 -98 187
q-11 0 -24 24v8q27 49 32 49q0 8 -8 8l57 406h-40q-19 0 -25 41q57 59 57 97v49q0 18 -8 32l8 17q-8 15 -8 24h8l-8 16l8 17q0 8 -8 8l8 40v90l8 48l-32 146v57q0 12 24 25l33 -25l8 114l-8 33q12 32 24 32zM179 1324v-25q8 0 24 -8q72 41 244 73v8q-73 0 -73 9
q-195 -35 -195 -57zM187 1226q16 -151 16 -292v-33q24 0 24 -8q94 41 220 41h24l57 -8q65 78 65 252q0 81 -57 121h-24q-134 0 -325 -65v-8zM650 1243v-57l8 -49q-25 -167 -57 -195v-16q2 -16 16 -16h25q40 0 48 268q0 42 -40 65zM333 804v-8l32 -8v16h-32zM365 731h-24
q-43 0 -138 8v-73q0 -24 8 -24l-8 -41v-187q0 -8 -8 -8q0 -8 8 -8q-6 -110 -32 -179v-32l81 -8q192 0 479 260q49 93 49 138v24q-13 179 -122 179q0 8 -25 8h-24q-171 -57 -244 -57zM853 560q0 -83 -122 -227h16q122 73 122 227h-16zM97 260h17q16 152 16 211
q-33 -26 -33 -211z" />
    <glyph glyph-name="C" unicode="C" horiz-adv-x="1264" 
d="M666 1429q9 0 9 -9l44 9q37 0 98 -9h88q62 -52 62 -62q0 -9 -8 -9l8 -18q0 -17 -17 -17h-18q-40 35 -62 35q-228 0 -373 -98l9 -17q264 80 328 80h18l62 -18v-27q0 -18 -18 -18h-17l-27 18q-154 0 -515 -160q-106 -90 -142 -257q-9 -113 -17 -124q0 -238 204 -488
q139 -107 461 -107q137 0 213 80h45q12 0 26 -27v-8q0 -81 -204 -116h-27v-9h27v-9q0 -35 -240 -35h-97q-20 0 -36 -9q-317 0 -452 169q-98 136 -98 559q0 221 293 444q207 228 293 230q0 11 80 27zM89 621q0 -26 71 -204h9q0 10 9 27q-63 139 -63 310v9q-26 0 -26 -142z
M98 408v-9q0 -192 186 -284q139 -44 249 -44v18q-159 16 -347 204q-42 34 -79 115h-9z" />
    <glyph glyph-name="D" unicode="D" horiz-adv-x="1102" 
d="M54 1435q32 -46 146 -46q0 15 23 15l15 -7q8 0 8 7l38 -7h38q18 0 31 7l92 -15l15 8q43 -8 62 -8q8 0 23 8q271 -64 345 -177q35 -52 69 -199q-7 -15 -7 -23q0 -26 7 -39q-51 -545 -100 -545q-86 -221 -437 -376q-13 0 -38 -15q-123 17 -123 54h-85l-23 15q0 -8 -7 -23
l15 -8h54v-7q0 -16 -115 -54q-51 0 -69 368v353q0 28 -8 69q0 8 8 8l-8 38v238l8 46q-8 13 -8 39v92l-23 31v7q0 29 31 77v15l-23 31q7 23 46 23zM100 1289q76 -206 76 -422q0 -8 -7 -8l7 -38v-315q0 -17 -7 -30q0 -8 7 -8q-15 -76 -23 -322q77 -8 116 -8q140 0 376 138
q134 107 168 246q46 103 46 176q0 134 -99 284q-174 307 -392 307q0 -30 -23 -30h-23q-28 0 -122 69q-100 0 -100 -39zM622 1312v-7q183 -95 260 -315q8 -14 16 -69h8v31q0 207 -177 322q-72 38 -100 38h-7zM92 982v-107q0 -8 -8 -8q16 -33 16 -123v-330h7q0 65 8 246
q-8 226 -8 299q-7 15 -7 23h-8zM361 77v-8h46q15 0 15 15h-23z" />
    <glyph glyph-name="E" unicode="E" horiz-adv-x="1380" 
d="M326 1433h8q16 0 16 -24h64l48 -8q8 0 8 8q99 -8 239 -40l16 8h8q7 0 7 -8l16 8h16q8 0 8 -8l16 8h8q8 0 8 -8l16 8h56l40 8v-8q15 8 23 8t8 -8q108 11 128 16q175 -4 175 -39v-8q-68 -40 -96 -40q-8 0 -8 8l-95 -16q-119 18 -119 24q-8 0 -8 -8q-86 10 -104 16
q-204 -16 -231 -24q-8 0 -8 8l-40 -8h-103q-18 0 -32 -8q-8 0 -8 8l-40 -8h-40q0 -89 40 -144q-8 -41 -8 -47l8 -16q0 -16 -8 -16l8 -80v-127l16 -24q159 8 239 8h40q16 -3 16 -16l-8 -16l16 -8h71q176 -4 176 -32q-56 -14 -56 -47q-14 -8 -32 -8q-43 0 -247 31
q-223 0 -223 -39v-24q8 -57 8 -64h-8l8 -16q0 -8 -8 -8l8 -16v-56q0 -17 -8 -31l8 -16q0 -8 -8 -8l8 -40v-135h8l40 8v-8q64 14 191 31l16 -8q65 8 80 16l16 -8q46 16 175 32l159 -32l16 8q135 -24 135 -47q-26 -16 -48 -16h-8l-47 8q-14 -8 -32 -8v8l-16 -8q-29 0 -72 8
l-16 -8q-16 0 -16 8q-212 0 -398 -64v-8q160 -8 247 -24v-24l-32 -8q-258 8 -382 8v-119q0 -42 -24 -48h-16q-20 0 -32 72q-31 0 -31 24v63q-148 0 -168 -40h-16q-11 0 -23 24v56q21 22 199 88q0 73 8 207q-16 80 -16 95q0 18 16 151q-52 0 -152 24l-55 -8q-88 13 -88 40v8
q0 26 199 56l48 -8h56q-16 438 -80 438q-70 -8 -80 -8q-16 26 -16 40q105 27 136 79q12 0 63 32zM422 1362v-8h64v15h-8zM382 1362v-8h32v8h-32z" />
    <glyph glyph-name="F" unicode="F" horiz-adv-x="1209" 
d="M1079 1429l8 -16v-8q0 -15 -23 -15v-16l15 -23q-23 -39 -54 -39v8q-353 -62 -528 -62l-280 -39q16 -146 86 -505l396 86v-8q41 23 163 23l15 -23q0 -19 -101 -39q0 -26 -124 -70v-8h16v-15q0 -26 -93 -39h-47q-66 0 -210 -8q0 -15 -7 -15q23 -183 31 -311
q-11 -46 -24 -46q-21 0 -23 39h-8q0 -280 -39 -280h-31q-15 0 -15 16v209q0 262 -23 357l-16 -7h-47q-23 7 -23 46q0 10 78 86q-23 131 -62 520q-109 8 -109 39q13 31 54 31h55q0 124 46 124q15 0 47 -39l39 8v-8l15 8q107 -47 443 -47q90 16 380 86zM210 1320v-8l15 -23
l16 8h7q8 0 8 -8q12 8 47 8v7l-39 8l-16 -8q-25 16 -38 16z" />
    <glyph glyph-name="G" unicode="G" horiz-adv-x="1482" 
d="M905 1430l51 -76v-25q0 -17 -17 -17v8q-16 -8 -25 -8q-65 33 -76 42h-17q-271 0 -356 -135v-9h9q45 0 152 17q28 -17 43 -17q0 28 262 51q0 15 42 17h26q12 0 25 -26v-8q0 -36 -186 -51q0 -8 -9 -8l-17 8q-83 -22 -338 -51v9q-155 0 -271 -356v-84q0 -19 -8 -34
q46 -389 110 -389q1 -26 118 -102q116 -51 195 -51h25q219 0 313 153q20 0 43 118v9q-40 228 -85 228q0 21 -34 26q-16 -9 -25 -9q0 -17 42 -17v-17h-144q-19 0 -34 -8q-14 8 -34 8h-135q-59 0 -59 68q73 51 237 68q2 17 17 17h34q19 0 33 -9q15 9 34 9v-9q34 17 59 17v-8
l17 8h60q98 0 313 -8q0 16 -17 16q-17 -8 -26 -8l-8 17q36 25 68 25q38 -16 42 -34v-16q-16 -60 -220 -60q0 -43 -85 -76q43 -152 93 -254v-17q0 -8 -8 -8l8 -17q-25 -53 -25 -76l9 -17q-9 -17 -9 -26q0 -8 9 -8q-12 -108 -60 -118q-38 0 -101 59q-146 -139 -305 -153
q0 -8 -8 -8h-93q-254 0 -424 305q-59 192 -135 592q0 249 288 296q214 237 541 237h76zM68 889l8 -43h9q0 32 127 254h-26q-118 -58 -118 -211zM144 855q-26 -103 -26 -153l9 -76h8q0 49 9 59l-9 17q0 20 26 153h-17zM999 203q12 -34 25 -34h8q15 0 26 51l-17 8z" />
    <glyph glyph-name="H" unicode="H" horiz-adv-x="1099" 
d="M817 1427h15q23 -5 23 -61v-355q0 -8 -8 -8l8 -15q-8 -42 -8 -60l16 -8v8q7 312 45 317h23q11 0 30 -30v-23q-45 0 -45 -499l7 -15q-7 -13 -7 -30v-76l7 -76h-7l7 -15v-38l-7 -15q21 0 52 -469q-11 -30 -22 -30q-38 22 -38 53q0 8 8 22q-8 88 -23 144h7q-15 38 -15 114
h-7q0 -31 -8 -31q23 -280 23 -416l-23 -15h-7q-19 0 -31 61q0 7 8 7q-68 798 -68 840h-23q-83 -113 -204 -113h-68q-10 0 -84 15q-38 0 -121 -23h-83l-15 -8l7 -15v-75l8 -46q-8 -12 -8 -38q8 -14 8 -22h-8l8 -15v-197l8 -76q-25 -15 -38 -15q-21 80 -38 507q-13 8 -30 8
q0 -8 -8 -8q-7 -140 -7 -204v-61l-8 -45q9 -141 30 -159v-15q0 -15 -15 -15h-23q-45 0 -45 317v53q0 8 8 8q-8 15 -8 23l8 15q0 7 -8 7l8 38v121l7 46l-7 15q15 63 30 560v38q0 6 -15 60v8q0 11 22 22h23q68 -22 68 -68v-106l8 -37h-8l8 -16v-143q0 -17 7 -31q0 -7 -7 -7
l7 -53v-136q0 -61 53 -61q135 -60 159 -60q88 0 326 60l37 -8q23 8 23 16q0 109 -15 272h8l-8 15v8q0 7 8 7l-8 15v84l-8 45l8 15q-8 107 -23 159v8h8q27 0 60 -31q0 56 23 61zM106 1011q-15 -99 -15 -242l15 -8q7 38 15 38l-8 53v159h-7zM847 738v-98q3 -15 16 -15v15
q-8 94 -8 98h-8zM91 708q0 -23 -8 -23q8 -14 8 -22h30v22q0 12 -30 23zM537 655v-7q25 0 38 -8q98 13 98 45h-7q-104 -30 -129 -30zM847 617v-53q3 -15 16 -15v68h-16zM855 511v-30h8v30h-8zM870 360v-91h15q-7 39 -7 91h-8z" />
    <glyph glyph-name="I" unicode="I" horiz-adv-x="307" 
d="M111 1432h27q14 -2 14 -14h-7q14 -30 14 -111v-41q0 -175 21 -353h-7l7 -14v-62q0 -7 -7 -7l7 -14v-83q0 -38 7 -97q0 -6 -7 -6l7 -35v-76q0 -38 7 -97q-7 -13 -7 -21q0 -14 7 -14q-11 -387 -56 -387l-13 28q4 48 13 48q0 7 -7 7q16 187 21 187l-7 34v132q0 15 7 27
q-14 30 -14 111v118q0 15 -7 27q0 7 7 7q-7 205 -27 512q-14 -2 -14 -14v-20q-14 -637 -35 -637l7 -14v-27q0 -25 7 -63q-7 -12 -7 -27q0 -7 7 -7l-7 -49q7 -256 7 -276l-14 -7h-7q-27 0 -27 207v21l-7 42q7 13 7 20l-7 28l7 35l-7 41h7l-7 14v42q0 15 7 27q-7 12 -7 28
l7 14q-7 12 -7 27v14q0 7 7 7l-7 14v83q0 21 7 21l-7 34v236q0 167 -21 193q0 25 55 35q0 114 56 152z" />
    <glyph glyph-name="J" unicode="J" horiz-adv-x="1334" 
d="M734 1436l16 -8q81 8 121 8q250 0 250 -65q18 0 32 -8q15 8 33 8h16q11 0 24 -24v-8q-17 -32 -40 -32q-97 0 -347 -8l-32 -41q113 -488 113 -580v-97q0 -264 -202 -468q-185 -113 -242 -113h-40q-158 0 -194 331q24 35 48 129h33q16 -3 16 -16v-41q0 -8 -8 -8
q28 -169 56 -226q0 -66 105 -88q149 56 202 153q96 224 96 258v8q-24 65 -80 484q-81 315 -129 315l-16 -8q-8 0 -8 8q-22 -7 -97 -17v9q-19 0 -65 -49q0 8 -8 8q-32 -40 -80 -40q-41 10 -41 24l8 40h-8l-40 -8v8q-23 -16 -186 -24l-16 24v17l16 24v16q-40 6 -40 24
q0 30 121 40l16 -8q41 16 57 16v-8q114 25 540 41zM790 1363v-16h121q9 0 9 -8q14 8 32 8v16q-6 0 -49 8zM307 1363v-16h32v8q-18 0 -32 8zM194 1339l-17 8q-15 -8 -24 -8v-16l16 8h33l80 8v16q-72 -8 -88 -16z" />
    <glyph glyph-name="K" unicode="K" horiz-adv-x="1081" 
d="M80 1432h22q29 -12 29 -51h7q5 44 22 44h7l29 -22l15 7q22 -26 22 -51v-21l-8 -37h-21l-22 15q-29 -65 -29 -138v-73l7 -44l-7 -14q0 -262 51 -262l36 -7q145 167 407 516q12 0 36 36q13 8 29 8l15 -22v-15q-131 -138 -131 -167q206 167 262 167h7v-7q0 -57 -153 -138
q-154 -108 -218 -204q-14 0 -189 -211v-14q141 -172 393 -284q138 -50 138 -87l-7 -36q130 -84 145 -124v-7l-7 -15q-118 88 -131 88v-8l7 -36q-17 -51 -29 -51h-14v22q0 119 -95 145q-79 35 -189 73v-7q22 -70 189 -240v-15h-7q-82 0 -269 291q0 23 -131 73q0 5 -80 58h-7
q14 -87 14 -95q-7 0 -7 -7q13 0 36 -152q-21 -168 -50 -168l-37 22l-7 -51v-65q0 -6 -58 -51l-29 15q21 36 21 58v87q0 114 -14 153q0 7 7 7q-14 62 -14 73q0 7 7 7l-22 131q7 12 7 29v7l-7 73h7l-7 14v182q0 7 7 7q-7 14 -7 22q2 128 15 204l-8 14l8 15q-8 40 -8 58h8
q-15 26 -15 58v65l-7 37h7q-7 36 -14 36q-24 -14 -44 -14v14q28 50 80 80zM574 1119v-7q15 0 15 15v7q-15 -2 -15 -15zM262 618v-29h14v14q0 15 -14 15z" />
    <glyph glyph-name="L" unicode="L" horiz-adv-x="963" 
d="M161 1432h14l27 -20l-7 -81q13 -162 13 -208v-27q0 -15 7 -27q0 -7 -7 -7l7 -80v-27q0 -21 -7 -21l7 -33v-276q0 -6 -7 -6l7 -14v-7q0 -24 -7 -60l7 -14q-7 -11 -7 -26q0 -21 7 -21q-13 -73 -13 -201h-7q0 -7 7 -7l-7 -34v-114l34 -7h168q6 0 6 -6q7 0 7 6q81 -6 81 -13
q7 0 7 7q85 -14 302 -21q27 -29 27 -33v-7q0 -14 -61 -34l-40 7q-35 0 -60 -7q-145 7 -209 21h-121q-79 0 -195 -34v54q0 9 -20 20q-10 -27 -20 -27h-14q-12 0 -26 61q0 6 6 6l-6 68v208q0 15 6 27l-6 13q0 7 6 7q0 20 -6 20q6 91 6 135v67q0 456 -67 612q10 27 20 27h20
q19 0 54 -175v-20h7q0 121 40 121h7q-7 147 -7 195zM114 518q0 -7 7 -7q-7 -79 -7 -114v-41q0 -15 -6 -27q6 -11 6 -26q-6 -109 -6 -121l6 -14q-6 -12 -6 -27v-13h26l14 6q-9 204 -20 256q0 7 6 7l-6 47v80z" />
    <glyph glyph-name="M" unicode="M" horiz-adv-x="1429" 
d="M1091 1432q18 -15 38 -121l-60 -258q51 -286 182 -629q30 -155 30 -197h-15q-18 0 -46 106l-91 265h-7v-7q0 -26 106 -425q30 -138 30 -159q-7 -15 -7 -23q7 -13 7 -30q-15 -2 -15 -15q15 -2 15 -15q0 -11 -23 -23q-15 0 -15 15v15l8 15q-13 0 -23 38q15 0 15 16
q-22 0 -45 128q7 15 7 23l-15 -7q-60 248 -113 416v16h7q-48 202 -61 212q-60 -203 -159 -447q-30 -56 -30 -91q38 -121 38 -137l-30 -23l-61 46q-34 -41 -61 -46l-45 8q0 -30 -23 -30h-15q0 30 -38 30q-36 79 -91 447h8q-69 350 -99 447l-15 8q-9 -134 -190 -508l-106 -364
q0 -20 -30 -38q-53 11 -53 31q68 163 197 894l15 8l-7 15l45 189l-7 76q18 15 30 15q21 -15 53 -15q0 106 61 106q30 -15 30 -38q-15 -25 -15 -45q30 -52 68 -197q104 -189 227 -599q25 -53 38 -53q114 345 144 417q-7 15 -7 23q15 0 68 166q-38 132 -38 152v38q0 12 61 45
q3 31 22 31l23 -16q41 99 83 99zM947 1015q-45 -166 -60 -189v-31q76 123 76 167v38q0 15 -16 15zM515 757v-22q16 -108 31 -144h-8l30 -152q-7 -13 -7 -30q18 0 38 -175h7q8 69 23 69t23 -61h7q8 61 23 83q-48 241 -159 432h-8zM864 613q-91 -208 -91 -235v-15h8
q80 228 106 228v15q-8 0 -23 7z" />
    <glyph glyph-name="N" unicode="N" horiz-adv-x="1070" 
d="M891 1429q43 0 43 -29q-128 -522 -206 -1039q0 -7 8 -7l-8 -36v-141q0 -85 -28 -113l21 -36v-7q0 -10 -21 -21q-73 44 -106 170q-69 237 -262 580l-155 346l-14 -7l7 -14v-134q0 -24 7 -36l-7 -42v-50q0 -96 14 -155q-23 -14 -35 -14q-14 7 -22 7v-50q0 -7 -7 -7l7 -14
l-28 -212l7 -14q-19 -57 -42 -234l-14 -7h-15q-16 0 -28 50q14 105 28 148q0 161 -14 262h7q-12 46 -21 219h7q0 7 -7 7q0 14 7 14q-7 49 -7 78q0 78 14 283q0 18 -21 50q50 55 50 77l-29 106l21 15h22q69 -53 92 -114q61 -22 92 -70q48 -16 113 -128v-21l-14 -21v-21
q63 -132 148 -396q-7 0 -7 -7q19 0 78 -205q65 -98 85 -142q15 0 21 78q0 7 -7 7l7 49v78q0 16 7 29q-7 12 -7 28h7q0 7 -7 7q0 341 191 785q7 71 28 71zM92 1195v-42h7v42h-7zM226 1153q0 -19 99 -234h7v8q-69 178 -106 226z" />
    <glyph glyph-name="O" unicode="O" horiz-adv-x="1287" 
d="M748 1427h7q89 0 272 -181q121 -344 121 -544q0 -286 -295 -604q-91 -70 -188 -90v7q-25 -15 -46 -15h-15q-17 0 -30 8l-15 -8q-121 0 -431 174q-80 56 -128 453q8 13 8 30q0 8 -8 8q8 57 15 75q0 8 -7 8q0 195 294 453q129 0 212 106q148 120 234 120zM551 1276v-7h8
q106 38 166 68q13 -8 30 -8q0 23 61 23v15l-53 15h-38q-41 0 -174 -106zM634 1254v-8h23q8 0 8 8q155 0 264 -91v15q-50 125 -76 129q-83 0 -211 -53h-8zM234 710v-30q0 -8 -7 -8q0 -7 7 -7l-7 -76v-143q0 -8 -8 -8q29 -287 121 -287h38q229 84 407 212q116 94 174 173h8
q-55 -140 -219 -241q-133 -103 -227 -136v-15h38q199 0 400 173q40 37 61 159l15 7l-8 15q0 27 8 159q-8 137 -8 181q-12 0 -45 151l-91 151q-90 61 -196 68l-15 -7l-30 7q-154 -22 -212 -68q-204 -168 -204 -430zM98 650q0 -8 8 -8q-8 -32 -15 -174q0 -71 90 -219h15v8
q-15 86 -15 121v143q-32 0 -37 61h7q-23 36 -23 113q0 7 8 7l-8 16q0 90 99 294q8 0 98 121v7h-8q-89 0 -196 -392q-13 -98 -23 -98zM1080 861q0 -133 -8 -332q-7 -15 -7 -23h15l30 181l-22 174h-8zM536 83v8l-15 -8h-75q18 -38 136 -38h60q115 14 249 144v7h-15l-143 -75z
" />
    <glyph glyph-name="P" unicode="P" horiz-adv-x="876" 
d="M347 1432h44q289 -38 289 -130q22 0 58 -167q7 0 7 -7l-15 -21l15 -22v-58q0 -183 -188 -304q-70 -29 -116 -29h-14q-8 0 -8 8l-14 -8h-36q-7 0 -7 8l-15 -8h-108q-44 0 -44 -58q0 -21 8 -50q-9 -434 -58 -434h-15q0 -152 -50 -152h-8l-14 22l7 29q0 7 -7 7
q22 152 22 325v87l-8 36h8l-8 15v43q0 7 8 7q-15 53 -73 521h7q-14 38 -14 152q99 166 217 166q0 22 130 22zM94 1287v-14h7q33 22 145 22h65q234 -52 311 -160q0 -16 22 -43v-36q0 -127 -102 -268v-7q145 89 145 232v50q-32 275 -101 275q0 24 -239 43q-165 0 -253 -94z
M130 1222q0 -13 65 -419l15 7h7q61 0 195 -51q92 0 174 239v58q0 120 -297 181h-101q-31 0 -58 -15zM72 1107q35 -340 51 -340l7 14v22q0 16 -7 29q0 7 7 7q-14 58 -43 282q-15 -2 -15 -14zM203 752v-14h50v14h-50zM130 673v-15q7 -101 7 -130h8v108l-8 37h-7z" />
    <glyph glyph-name="Q" unicode="Q" horiz-adv-x="1212" 
d="M581 1432h79q86 -25 151 -103q0 -9 152 -152q95 -168 95 -334q-8 -15 -8 -24q0 -32 32 -167q-25 -201 -151 -334q-72 -45 -72 -71q108 -260 191 -366q32 -16 32 -48l-24 -16q-11 0 -24 24v8h16v16l-24 -16q-48 42 -111 127q-22 0 -135 183l-32 24q-187 -88 -215 -88
q-408 0 -469 191q-61 168 -64 311h8l-8 16v31q0 8 8 8l-8 16q40 233 167 430q9 0 135 143q70 28 223 167q32 8 56 24zM549 1352v-15h151q0 22 -79 31h-16zM517 1281v-8q0 -28 88 -40l8 -16v-8q0 -11 -24 -24v8l-16 -8q-9 0 -127 48h-8q-223 -198 -223 -549q0 -395 215 -509
l31 -8q158 35 239 103q-151 290 -151 358l8 32q-16 29 -16 64q2 16 16 16h32q34 0 55 -119q30 0 160 -247q0 -8 7 -8q183 165 183 318q-55 331 -190 549q-16 0 -16 8l-16 -8h-40v8q0 16 24 16v24q-40 0 -40 16q-8 0 -8 -8l-40 8h-16q-71 0 -135 -16zM963 1034v-24
q8 -15 8 -24h8v24q-8 16 -8 24h-8zM979 979v-8q15 -52 15 -72h8v16q-15 60 -15 64h-8zM151 756v-40h8v40h-8zM143 708q0 -44 -8 -87q0 -194 88 -319h8v8q-37 62 -64 223h8q-13 24 -24 135q8 14 8 32zM1018 565q0 -27 -55 -120v-15q58 66 63 127v8h-8zM907 390v-24h8
q0 24 24 24v8h-8q-16 -8 -24 -8zM127 326v-8q19 -53 72 -95h8v8z" />
    <glyph glyph-name="R" unicode="R" horiz-adv-x="1006" 
d="M461 1432q118 -37 194 -166q63 -73 79 -143h-7q50 -49 50 -202v-7q0 -135 -223 -288v-7l58 14v-7l14 7q7 0 7 -7q108 14 123 29h7q14 -2 14 -15v-7q0 -46 -446 -100q48 -50 288 -209q86 -99 201 -158q62 -61 65 -116l-50 -50h-15l-14 7q11 29 22 29q0 91 -238 173
l-367 309q-32 7 -57 7q0 -58 35 -216v-7q-28 -29 -28 -43q0 -51 14 -101q-7 -14 -7 -21q21 -66 21 -79q-23 -15 -43 -15q0 11 -21 22l-36 -36q-13 48 -22 208h-7q-14 -57 -14 -71v-80q0 -16 -36 -21q-16 16 -22 79q72 340 72 410v29q0 14 -72 21v22l72 94q-22 276 -50 439h7
l-7 14q0 91 57 122q100 36 295 123q74 7 87 14zM281 1317v-7q287 0 424 -339v-21h7v50q-9 132 -179 346q-41 21 -130 28q-108 -36 -122 -57zM144 1209q7 -312 7 -338q-7 -38 -7 -43q7 -14 7 -22h-7q9 -65 22 -65h86q10 0 21 -21v-8q-21 -36 -50 -36q0 -19 194 -28
q231 83 231 158q14 0 14 14v65q-19 127 -115 245q-128 122 -259 122l-15 -7q-7 0 -21 7q-108 -9 -108 -43z" />
    <glyph glyph-name="S" unicode="S" horiz-adv-x="1119" 
d="M796 1435q183 -11 183 -50q-42 -74 -50 -74h-33q-67 23 -67 33q-361 -63 -547 -216q-83 -112 -83 -141q0 -80 232 -116q137 -8 158 -25l17 8q300 -104 389 -257v-16h-8l8 -17v-33q2 -100 17 -100q0 -173 -174 -307q-213 -124 -373 -124q-177 17 -324 116q-69 58 -124 58
q0 13 -17 33q21 50 58 50q-8 16 -8 25q8 0 8 8q20 0 199 -141q97 -58 191 -58h8q228 0 291 133q73 148 165 257q0 58 -182 166q-48 41 -83 41h-66v17h-17l8 -17l-16 -8h-58l-17 8q0 -16 -116 -33q-59 9 -66 9q0 -50 -25 -50q-177 159 -208 315q0 256 75 324q0 74 506 174
q90 0 149 8zM191 1203v-17h8q20 17 33 17v16q-27 -16 -41 -16zM174 896v-8q0 -121 149 -141l17 8q25 -8 25 -17q166 33 224 33q0 19 -100 34q-8 0 -8 -9q-299 37 -299 100h-8zM821 224v-25q108 98 108 183q-26 -18 -108 -158z" />
    <glyph glyph-name="T" unicode="T" horiz-adv-x="1421" 
d="M585 1432h25q9 -34 9 -59l271 17v-9l17 9h8q169 0 220 -17q9 0 9 8q144 -29 144 -68v-8q0 -13 -51 -42q-58 0 -390 -34q0 8 -8 8q0 -15 -76 -25q-15 8 -34 8q-63 0 -68 -25v-17q0 -51 76 -229q0 -40 17 -178h-8l8 -17v-25q0 -17 -17 -17q9 -26 17 -26q-36 -339 -118 -339
q-20 -262 -34 -262l8 -17q-15 -68 -34 -68h-34q-59 37 -59 110q7 93 17 93q0 9 -9 9q9 114 9 169v9q0 19 8 34q0 8 -8 8l8 85v347q0 9 9 9q0 8 -9 8q17 72 17 331q-22 8 -271 25q-104 0 -152 -34h-17q-85 0 -85 68v8q0 34 364 68q187 26 187 43q0 25 34 42zM754 1279h17
l85 9v-9q16 9 25 9v8h-110q-17 -2 -17 -17zM983 1279v-25h8q0 9 9 25h-17zM661 890q0 -109 -25 -432v-9h8q34 159 34 195v119q0 42 -9 127h-8z" />
    <glyph glyph-name="U" unicode="U" horiz-adv-x="1003" 
d="M729 1435h23q114 -175 114 -289l-16 -91l8 -45v-76q0 -17 -8 -30q0 -8 8 -8q-46 -270 -106 -478l7 -16q-18 -68 -30 -68q7 -15 7 -23q-30 -123 -205 -265q-86 -46 -144 -46q-142 0 -250 296q-114 190 -114 372h7l-7 15q-8 198 -8 266q0 6 -7 46h7l-7 15v281l-8 45
q14 61 61 61l30 -15q0 12 30 30h16q22 0 22 -30q0 -13 -53 -99q-15 -76 -15 -152v-83q0 -189 84 -570q17 0 53 -106q45 -121 83 -121q27 -8 76 -8q110 0 296 251q114 258 114 599v46q0 137 -76 159q-45 27 -45 69l38 30l-8 15q0 11 23 23zM721 1367v-8q3 -15 15 -15v23h-15z
M683 418q-111 -187 -303 -236v8l-16 -8h-7l-15 8v-15q47 -54 91 -54h45q79 0 160 107q45 121 53 182v8h-8zM251 197v-7q47 -144 151 -144q40 0 46 22q-76 8 -76 31l-15 -8q-43 23 -106 106z" />
    <glyph glyph-name="V" unicode="V" horiz-adv-x="1131" 
d="M129 1429q65 0 189 -423l234 -583q0 -39 38 -83h7q212 654 363 945q15 49 15 61h46q15 -3 15 -15l-76 -272v-8q23 0 23 -15q-30 -70 -30 -83h-8l-30 22q-144 -302 -204 -476q21 11 75 136l38 45v-22q-70 -197 -174 -325q-25 -99 -30 -99l8 -15q-29 -37 -53 -143
q-50 -75 -68 -76q-35 15 -38 30v23l30 60q-68 102 -144 356q-113 302 -302 718q-53 165 -53 189q2 15 15 15h15q15 -19 114 -264q30 -75 45 -76v8q-62 163 -113 340v7q0 18 53 23zM197 1142v-46q27 -63 75 -264q9 0 121 -295q-7 -13 -7 -30q22 0 60 -159l68 -174h8
q0 32 45 83q-195 430 -234 544q7 0 7 8q-18 0 -83 197l-53 136h-7zM922 1127q-53 -112 -53 -129q13 0 61 121v8h-8z" />
    <glyph glyph-name="W" unicode="W" horiz-adv-x="1809" 
d="M1656 1432q18 -3 18 -18q-27 -43 -27 -80l9 -63l-9 -18q9 -17 9 -27l-18 -36h18v27h9l18 -9l-9 -18q2 -18 18 -18q-84 -153 -126 -698q-36 -253 -36 -367q-13 0 -26 -35q26 -9 26 -54q0 -18 -17 -18h-27q-57 81 -99 81l-44 26v-9l8 -53l-17 -9q-11 0 -126 206
q-22 11 -107 170q-48 48 -278 429h-9l-98 -411l-18 -18q0 -9 9 -9q-48 -276 -80 -313q17 -64 17 -72q-17 -9 -26 -9q-27 9 -27 18l-18 -9h-18q-13 0 -27 27v18l9 18q-14 0 -125 322q-322 670 -412 886v18q0 13 27 27h18q21 0 62 -117q57 -125 72 -125l-36 161l27 18h9
q45 0 152 -394q108 -243 242 -662h18q98 570 152 725l-9 18q11 47 45 98q38 0 80 -107q343 -478 492 -779l18 -9v36q-214 466 -214 555v27q78 0 161 -278q62 -145 62 -170h9q0 168 99 439q125 662 170 662zM1396 322q0 -22 18 -80h9v80h-27z" />
    <glyph glyph-name="X" unicode="X" horiz-adv-x="1183" 
d="M1010 1432q12 0 25 -25q0 -17 -83 -99q-38 -48 -108 -199q0 -19 -240 -397v-17q141 -217 224 -389q18 -2 58 -140q19 0 49 -141q0 -12 -24 -25q-21 10 -183 364q-167 265 -173 265q-25 -8 -25 -50v-8q6 0 207 -356q-9 -14 -9 -33q25 0 83 -132q-11 -34 -41 -50
q-135 125 -191 306l-107 199q-70 -45 -224 -356q-67 -104 -99 -124h-8q-13 0 -33 33v8q227 381 240 381q41 45 82 124q-24 38 -24 50h-9q-85 -111 -174 -298q-97 -211 -140 -232h-25q-45 0 -58 33v8q0 13 33 34h17l16 -9l-8 -16v-9h16q128 299 282 547v8l-339 588v16
q2 17 16 17h25q63 -33 165 -240h9v8q-108 248 -108 282v8q3 16 17 16h16q13 0 75 -116q211 -349 256 -397h9q372 406 372 447q0 53 99 116h42zM530 803q16 -38 33 -41q91 132 223 355v9h-8q-248 -268 -248 -323zM339 952v-17l75 -157h8q17 0 17 25l-91 149h-9zM455 712
q28 -58 42 -58l8 41q-8 50 -25 50q-21 0 -25 -33z" />
    <glyph glyph-name="Y" unicode="Y" horiz-adv-x="1047" 
d="M148 1435q31 -25 134 -215q123 -143 245 -363q0 -33 44 -97h7q89 253 89 297q13 0 52 185q44 89 82 89l7 -15v-14q0 -15 -14 -75h37q29 112 51 112h23q10 0 22 -23v-14q-208 -440 -208 -445q-81 -207 -133 -371q-62 -163 -97 -163q-72 -234 -89 -238h-14l-15 8
q-30 -87 -60 -252q8 -15 8 -23h7l23 15h7v-7q-15 -67 -37 -67q-59 7 -59 59q0 121 59 304h-15q-28 -74 -44 -74h-8q-15 0 -15 15q97 306 252 608v8q-7 14 -7 22l-37 -8h-15q-10 0 -89 134q-95 170 -289 386q-43 0 -52 59l22 15h8q49 0 133 -119h15v7q-41 111 -134 223v15
q15 0 15 15l37 -8zM193 1213v-23q2 -15 15 -15v15q-8 15 -8 23h-7zM222 1161v-23q8 0 8 -7h-8q85 -140 97 -148v7q0 23 -89 171h-8zM400 960v-7q10 -37 23 -37v30q-15 0 -15 14h-8zM460 819v-7q2 -15 15 -15h7q-7 15 -7 22h-15z" />
    <glyph glyph-name="Z" unicode="Z" horiz-adv-x="1595" 
d="M1006 1433q306 -17 419 -58l25 -51q-100 -50 -168 -134q-542 -466 -687 -578q0 -14 -201 -201l-134 -151l-25 -42q2 -17 16 -17l93 50q347 314 653 570h9q13 0 33 -33v-17q-85 -85 -310 -251q0 -16 -302 -277q9 0 9 -8q26 0 226 42v-9q56 17 344 59l8 -17v-8
q-29 0 -109 -34v-17q361 78 436 135v-9l17 9h8q17 -3 17 -17v-34q0 -31 -201 -84v-16h50q126 0 126 -51q0 -50 -159 -50q-84 8 -143 34l-17 -9h-16q-9 0 -9 9l-17 -9h-16q-9 0 -9 9q-322 -59 -754 -168h-17q-34 12 -50 42v42q0 21 33 25v17q-26 0 -50 42v8q0 42 50 75
q0 46 252 311q0 39 92 100q102 128 503 444q181 139 251 210h-8q-109 -34 -386 -34l-16 9l-17 -9q-127 9 -176 9q-104 0 -478 -84q-9 0 -42 50l-75 -8q-63 0 -84 42v17q0 33 318 50l151 25v-8q32 14 227 41v-8q0 17 310 25zM377 142l-42 9q-42 -6 -42 -25q17 0 17 -9
q14 10 84 17q8 -16 8 -25q202 47 285 101v8q-249 -37 -310 -76z" />
    <glyph glyph-name="bracketleft" unicode="[" horiz-adv-x="739" 
d="M149 1435l13 -20q109 9 122 13q7 0 7 -7l68 7h108q27 -14 27 -34q-13 -30 -27 -33q-7 0 -7 6l-13 -6h-129q-7 0 -7 6l-13 -6q-15 0 -27 6q-12 -6 -27 -6q-8 0 -21 6l-13 -6q-7 0 -7 6q-68 -6 -68 -20q10 0 21 -20v-7q-16 -17 -34 -149q0 -7 7 -7l-7 -34v-27q0 -15 7 -27
q-7 -12 -7 -27v-7q27 -34 27 -40q-7 -92 -7 -136h-7q0 -6 7 -6l-7 -34v-68l7 -40q-7 -12 -7 -34v-21q0 -15 7 -27l-7 -13l7 -14q-7 -13 -7 -20l7 -34l-7 -13l7 -14q0 -15 -7 -27q7 -58 7 -95v-88l7 -34q-14 -2 -14 -13q14 -2 14 -14q0 -7 -7 -7l7 -13v-7q0 -15 -7 -27
q4 -61 27 -61q130 0 224 20v-6q28 13 88 20v-7q24 14 54 14h54q10 0 20 -27q-26 -75 -277 -109v7q-31 -13 -88 -13h-88q0 -41 -27 -41q-38 0 -55 108q-13 0 -13 14q7 34 27 34v47q0 7 7 7q-7 71 -27 88v34q0 67 6 162q-6 13 -6 20t6 7l-6 34v14l6 47l-13 7q0 -21 -27 -21
q-18 0 -34 34q61 192 61 393q0 10 -7 244q-9 8 -40 81l6 13l-6 34q20 23 135 34z" />
    <glyph glyph-name="backslash" unicode="\" horiz-adv-x="1055" 
d="M49 1435h7q60 0 140 -224q152 -261 364 -525q254 -331 371 -539v-28l-14 -21q-26 7 -231 329q-25 13 -35 42v21q-12 0 -133 147v-7q162 -288 385 -546l35 -49v-7q-11 -28 -49 -28q-161 128 -357 476q-259 413 -420 700l-112 147q0 33 42 56l-7 49z" />
    <glyph glyph-name="bracketright" unicode="]" horiz-adv-x="647" 
d="M179 1435q41 -16 41 -27l-7 -35h7q58 7 89 7v-7q46 7 137 41q0 -6 7 -6q0 6 7 6q0 -8 55 -48v-13q-48 -42 -48 -97q0 -22 7 -34q-14 -118 -28 -460q14 -44 35 -295h-7l7 -14v-288q0 -130 -42 -165h-6l-49 14l-82 -7l-14 7l-13 -7l-124 27l-34 -7q-55 38 -55 49v6
q14 28 34 28q97 -14 110 -21l14 7q33 -20 137 -20q3 0 27 6v42l21 27v7q-31 0 -41 69q-34 9 -34 48q48 83 48 158v109q0 63 -28 90q0 9 14 75v117q0 7 7 7l-7 14v20q27 72 27 89v83q0 15 7 27q-7 14 -7 21h7q0 7 -7 7l7 34v96l7 48h-55q-37 0 -185 -20l-21 27v21l7 13h-89
q-62 0 -62 62q67 36 179 62zM144 1380v-7h48v7l-7 14q-22 -14 -41 -14z" />
    <glyph glyph-name="asciicircum" unicode="^" horiz-adv-x="786" 
d="M396 1628q27 0 42 -36q-6 -12 -6 -18h6q11 6 24 6q9 0 18 -18v-12q0 -30 -12 -30q11 -82 120 -228q66 -106 66 -156l-12 -6h-6q-26 18 -114 150q-120 163 -120 180h-12q-73 -96 -108 -96q-36 0 -72 -78q-91 -109 -174 -222h-12l-18 30q37 113 204 324q101 118 120 192
l30 6q12 -6 18 -6q0 9 18 18zM210 1490h6v-12q-13 -33 -72 -96v24q36 58 66 84z" />
    <glyph glyph-name="underscore" unicode="_" horiz-adv-x="1192" 
d="M489 129v-6l12 6h258q6 0 6 -6q6 0 6 6l84 -12q6 0 6 6q120 -14 120 -18l12 6q72 -6 72 -24v-18q0 -12 -12 -12v6q-97 -23 -276 -42l-12 6q-12 -6 -18 -6q2 -12 12 -12q120 -2 120 -12l12 6q6 0 6 -6q6 0 6 6q90 -12 90 -18l12 6q60 0 60 -60q0 -14 -120 -24q-12 6 -18 6
q-10 -6 -24 -6v6q-12 -6 -18 -6q-57 0 -204 48q-58 6 -126 6h-90q-6 0 -6 6l-12 -6h-60q-13 0 -24 -6q-12 6 -18 6q-12 -6 -18 -6v6l-12 -6h-24l-60 -6v6l-12 -6q-6 0 -6 6q-45 -12 -132 -12q-66 0 -78 60v12q10 21 150 66q0 32 216 42v-6l12 6h6q32 0 102 6z" />
    <glyph glyph-name="grave" unicode="`" horiz-adv-x="571" 
d="M77 1540q26 -6 66 -60q31 0 216 -174q72 -57 78 -78v-18l-12 -18q-130 0 -336 264l-18 -12h-18q-9 0 -24 24v6l18 24v6l-6 12q30 24 36 24z" />
    <glyph glyph-name="a" unicode="a" horiz-adv-x="1125" 
d="M446 1021v-9l17 9q136 -3 163 -26q42 26 112 26h17q25 0 25 -34q-8 -61 -8 -69q0 -21 86 -68q14 -17 25 -155h-8q40 -95 128 -471q11 0 17 -34l-25 -18h-9q-44 0 -86 206h-8v-17q8 -151 43 -351v-26q14 0 25 -43q-8 -17 -8 -26l17 9q13 0 26 -34l-17 -9q-106 0 -189 437
q-9 0 -9 9q-14 0 -111 -129l-146 -120q60 0 60 -17l206 43l9 -17q-58 -35 -215 -69h-8q-116 0 -155 26l-85 -9q-212 0 -317 326l-9 51q0 263 249 532q130 62 188 77zM558 927h-112q-215 0 -240 -266q174 240 334 240q73 0 120 -69q-8 0 -8 -8q-34 17 -94 17h-9
q-162 0 -300 -266q-26 -55 -26 -137v-17q0 -116 112 -223h85q18 -3 18 -17q-26 -17 -69 -17v-17q14 -35 60 -35q213 80 266 189q68 27 68 120q-34 469 -68 531q-56 -25 -137 -25zM120 627l-42 -172q8 -15 8 -34h-8q88 -291 180 -291q0 -9 42 -26l9 17q-180 119 -180 506h-9z
" />
    <glyph glyph-name="b" unicode="b" horiz-adv-x="893" 
d="M170 1598h33q16 0 24 -49q-40 -273 -40 -470h-9q0 -8 9 -8q-10 -73 -17 -89q0 -9 8 -9l-8 -40v-8q3 -16 17 -16q144 105 292 105h8q92 0 178 -122q49 -25 81 -178q0 -69 16 -276q0 -265 -243 -422q-37 -16 -81 -16l-341 41h-8q-5 0 -40 -41h-33q-16 0 -16 24
q16 284 32 284l-8 16q25 188 33 576l-8 17q0 8 8 8q-16 310 -33 397l17 8q-17 27 -17 49v41q0 12 33 32h8q16 0 24 -89h8q27 235 73 235zM162 673h8q55 68 179 179q0 8 8 24l16 -8q123 32 187 32v9q0 28 -90 40q-300 -59 -300 -170q-8 -69 -8 -106zM187 519l8 -49
q-11 9 -41 9q-8 -16 -8 -25q-8 -237 -8 -300q24 -40 24 -57h57l16 -8q0 8 8 8q-40 55 -40 81l16 9h24q74 -106 122 -106h24q195 30 195 73l32 65l-16 8q0 -16 -16 -16h-8q-16 0 -16 16q48 34 97 219q0 8 -8 8q16 72 16 195q-18 187 -89 187h-8q-228 0 -357 -244
q0 -14 -24 -73zM251 243q17 -2 17 -16q0 -16 -17 -16q-16 0 -16 16q3 16 16 16z" />
    <glyph glyph-name="c" unicode="c" horiz-adv-x="905" 
d="M453 1024q64 0 196 -39v-24h-55q-8 0 -8 8l-15 -8h-8l-16 8v-15q21 -63 102 -63q15 -2 15 -16q0 -12 -31 -31h-15l-141 31q-145 -31 -188 -93q-172 -186 -172 -391q0 -123 118 -172q162 -55 211 -55q100 0 289 196h23v-16q0 -29 -54 -102q0 -121 -282 -203
q-80 -8 -94 -16q-36 16 -109 32l23 -39v-16h-7q-95 0 -188 274q-47 44 -47 117q131 405 360 602q37 31 93 31zM195 172v-8q0 -39 149 -70h62v15h-39l-101 40v7l-16 -7l-39 23h-16z" />
    <glyph glyph-name="d" unicode="d" horiz-adv-x="986" 
d="M740 1589h25l25 -75q-16 -58 -58 -58q-38 16 -41 33q19 100 49 100zM574 1572h8q36 0 59 -33l-17 -116q25 -50 50 -275q25 -92 25 -208h8q0 56 42 125q0 8 -9 8q20 291 50 291h17q17 -74 17 -108v-33q0 -8 -9 -8l9 -17q0 -20 -9 -125q0 -9 9 -25q-7 -48 -17 -216
q0 -8 8 -8l-8 -42v-125q0 -18 8 -33q-8 -15 -8 -33l8 -34h-8l8 -16v-58q0 -35 9 -67q-9 -32 -9 -67v-83h-16l8 -41q0 -42 -42 -59v158q0 88 -25 300q9 0 9 8h-25l8 -16v-366q0 -9 -8 -9l8 -16v-42q0 -8 -8 -8q8 -69 33 -142q-27 -16 -50 -16q-58 36 -58 91h-8
q-148 -108 -283 -108h-9q-112 0 -291 175q-33 37 -33 58q8 0 8 8q-21 0 -25 34l9 16q-17 27 -17 50v8q19 200 58 200l-8 17q100 222 316 382q108 0 200 -116q0 -19 33 -33h17q0 144 -17 224h8l-83 466q0 33 50 83zM416 815v-16q15 8 33 8v17q-14 -9 -33 -9zM458 824v-17h16
q17 0 17 17h-33zM582 749h-66q-244 0 -300 -233q0 -9 -8 -25q17 -62 17 -83q-37 -14 -50 -50q0 -242 133 -242q41 0 41 -8q258 48 258 208q17 0 17 142v241q0 8 8 8q-8 13 -8 50zM92 449q-9 -73 -9 -83q0 -33 17 -108h16q-16 50 -16 125q8 45 8 66h-16zM624 200
q0 -15 -33 -67h50v25l-9 42h-8z" />
    <glyph glyph-name="e" unicode="e" horiz-adv-x="1041" 
d="M444 1024v-7l13 7h82q210 -26 239 -130q0 -16 62 -102v-21q0 -12 -28 -75q0 -37 55 -54l7 -14v-14q0 -23 -157 -47q-22 0 -68 -35q-84 -27 -369 -68q-68 5 -68 55h-7l-14 -7q-41 0 -41 41q-34 0 -34 -68q0 -95 116 -239q157 -164 260 -164q126 0 382 239q0 7 13 7h7v-7
q-9 0 -82 -109q-104 -89 -109 -89q-123 -82 -218 -82h-21l-34 7l-7 -14q41 -14 41 -27q-13 -7 -20 -7q-162 10 -307 130q-137 148 -137 293q20 118 20 137q-13 0 -13 13q67 52 136 198q48 132 185 212q88 41 116 41zM587 956v-7q14 0 137 -68v6q-22 69 -110 69h-27zM362 908
q46 0 95 -55v-13l-47 7h-28q-130 0 -239 -219v-20h7q144 27 533 68q95 19 95 82v13q-6 28 -157 96q-83 62 -157 68h-13q-89 -5 -89 -27zM915 369h7v-14q0 -10 -21 -20h-14v6q0 11 28 28zM116 287q68 -148 157 -178q43 -27 55 -27q-64 45 -205 205h-7z" />
    <glyph glyph-name="f" unicode="f" horiz-adv-x="690" 
d="M478 1435q55 -18 81 -74q-7 -35 -7 -41q14 -21 14 -33l-14 -7h-20l-20 14l-13 -7q0 13 -14 13q-72 0 -222 -134q-14 -111 -27 -122q13 -2 13 -13v-189q189 14 229 14q27 -10 27 -21t-40 -20l-14 7q-101 -34 -195 -34v-47h7q29 0 101 20q28 -9 40 -33q-1 -17 -141 -41
q27 -330 27 -397v-7q0 -7 -7 -7l7 -13v-47l-34 -41v-54q0 -34 7 -101q-29 -20 -54 -20q-27 57 -27 121h7q-54 151 -54 492v47q-47 -7 -61 -13q-61 9 -61 27v6q0 11 122 27q0 21 13 21v13q-13 0 -13 34h-88l-34 -7l-13 20v7q0 22 141 34v40q0 281 95 465q75 101 242 101z
M445 1388v-7q8 -18 60 -47v27q-45 27 -60 27zM384 1347v-33q54 11 54 27q0 6 -27 27q-27 -10 -27 -21zM256 1253v-13h7q94 94 94 114h-20q-54 -36 -81 -101zM195 883v-41l14 7l-7 13q7 13 7 21h-14zM195 775v-54q14 0 14 13v41h-14zM195 667q0 -14 -6 -14l6 -67v-135
q0 -15 7 -27l-7 -13q7 -37 7 -74q10 0 34 40v34q0 15 -7 27q0 7 7 7q-20 136 -20 215v7h-21z" />
    <glyph glyph-name="g" unicode="g" horiz-adv-x="1102" 
d="M528 1024v-9l18 9q61 0 61 -18l44 18l44 -26l35 26h8q75 0 123 -166q52 -120 70 -298q9 0 26 -9l-9 -44v-140q0 -19 9 -35q-9 -13 -9 -52h-17v52h-9q0 -19 -9 -35q9 -17 9 -26h-9l9 -17q0 -9 -9 -9l9 -18q0 -17 -17 -17l8 -18v-8q0 -97 -26 -97h-9l-17 9q0 -47 -201 -324
q-15 -61 -53 -61v-9q18 0 18 -9q116 41 227 149q79 97 79 298q9 0 9 44h17v-18l9 -52q-9 -17 -9 -27l9 -35q0 -16 -18 -70l9 -17q0 -44 -17 -44l8 -18q-61 -173 -227 -253q-127 -53 -166 -53v9l-18 -9q-299 18 -333 88q-118 48 -201 271v79q0 12 26 26q61 0 105 -158
q43 -105 193 -105q0 -6 35 -17q138 0 280 122q158 184 158 438v35q-257 -245 -429 -245q-104 0 -245 158q-97 185 -97 253v71q0 140 27 140l-9 17q64 254 481 254zM738 954v-9q35 -63 35 -79h9v9q-15 79 -44 79zM117 604v-35q0 -236 297 -280h53q206 0 289 262v62
q-50 221 -105 280h-9q0 -26 -35 -44h-9q-12 0 -43 61q-20 0 -106 35q-135 0 -262 -157q-70 -128 -70 -184zM782 858v-9q26 -49 26 -70h9v9q-17 44 -17 70h-18zM773 499l-26 -88h9q35 13 35 26v44q0 18 -18 18zM353 210l18 -9v26q-18 -2 -18 -17zM441 -272v-8q2 -18 17 -18
q60 35 70 35v9h-8q-66 -18 -79 -18zM292 -272q0 -17 70 -35q35 13 35 27l-18 8l-61 -8q-17 8 -26 8z" />
    <glyph glyph-name="h" unicode="h" horiz-adv-x="789" 
d="M209 1603h16q23 0 23 -31q-62 -99 -62 -149q0 -67 15 -109l-7 -15q7 -43 7 -63q0 -8 -7 -23q29 -391 46 -391h55q86 0 195 -54q82 0 164 -320v-8q0 -8 -8 -8l8 -16l-23 -39v-8q0 -11 15 -187v-94q0 -60 -39 -78q-15 0 -15 24q0 8 8 8l-8 39v15q0 349 -117 547
q-44 39 -94 39h-39q-117 0 -117 -94q-17 -281 -39 -383h-8q0 -15 8 -15q0 -168 -94 -219q0 -39 -47 -70q-18 0 -31 62l8 16q0 8 -8 8l16 133q-8 30 -8 62q0 43 15 125q-15 0 -15 16q15 25 15 46v235q0 7 8 7l-8 16v63q0 7 8 7q-8 15 -8 24q0 8 8 8l-8 39v23l8 47
q-8 14 -8 31q0 6 8 47q0 8 -8 8l8 39v250l-8 46q8 13 8 40q0 22 -23 101q12 31 54 31q24 0 39 -187h-7l7 -16v-39q0 -8 -7 -8l7 -15q-7 -380 -7 -476l-8 -32q8 -7 8 -62h7q55 83 55 125v8l-31 -24h-16v8q55 58 55 195v8l-8 16l8 15q0 8 -8 8l8 55v23l-8 47q0 8 8 8
q-10 69 -16 86q0 7 8 7q-15 124 -47 250q40 149 86 172zM225 729l15 -8q41 23 94 23v-8q15 8 24 8v16q-59 15 -110 15q-13 0 -23 -46zM131 463q-23 -91 -23 -187l7 -31q16 0 24 78q0 7 -8 7l8 39v79l8 15h-16zM100 151v-24h8l7 39q-15 -2 -15 -15z" />
    <glyph glyph-name="i" unicode="i" horiz-adv-x="377" 
d="M49 1316h17q90 -76 90 -123q-37 -44 -74 -66q-82 0 -82 82v17q0 64 49 90zM189 1003h25q12 0 25 -24q-25 -160 -42 -502q0 -9 9 -25l-9 -49v-82q0 -19 -8 -33l8 -17q-24 -188 -24 -205q8 -16 8 -25l-25 -16h-8q-12 0 -25 24v173q0 8 9 8l-9 17v57q0 9 9 9q0 8 -9 8l9 57
q0 25 -9 25l9 41v148q0 30 8 74q0 8 -8 8l8 42v74q0 172 49 213zM41 962h8q50 0 58 -296v-148l-8 -49q0 -8 8 -8l-17 -255l9 -17l-9 -41l9 -41l-9 -49q9 -16 9 -25q-9 0 -9 -8q9 0 9 -9l-25 -16h-16q-29 2 -42 214l17 8l-8 33q8 390 8 444q0 52 -17 247z" />
    <glyph glyph-name="j" unicode="j" horiz-adv-x="774" 
d="M323 1334h50q42 -21 77 -110q-28 -76 -77 -76q-79 0 -110 59q0 90 60 127zM424 1004h9q61 0 76 -136q127 -382 127 -559v-34q0 -435 -288 -678h-34q-186 0 -305 500v68q0 12 25 25q0 -8 34 -51v-8q0 -9 -8 -9q39 -255 203 -440q31 -17 68 -17q152 211 152 567
q-8 183 -33 289q8 0 8 8q-15 0 -51 178q-12 60 -76 127q0 24 -25 127q0 13 33 34h9q59 0 59 -51h9v9l-9 42z" />
    <glyph glyph-name="k" unicode="k" horiz-adv-x="789" 
d="M162 1435q41 0 49 -81q8 -390 8 -576q141 229 332 422l41 8l24 -32l-97 -219v-8l32 24h17q18 0 24 -41q-291 -325 -324 -348q0 -30 89 -65q162 -150 235 -292q8 0 89 -97v-41q0 -11 -24 -24h-25q-22 7 -56 89l-244 251l-16 -8q-99 49 -130 49l-48 -405q8 -16 8 -25
l-24 -16h-8q-17 0 -25 89h8q0 8 -8 8l49 446q-19 0 -24 57q19 16 32 16q8 134 8 203v186q-22 0 -49 -202l9 -17q-17 -31 -17 -89v-40q0 -234 -32 -333q0 -33 8 -89l-8 -16q16 -49 16 -122l-24 -16q-57 29 -57 219v8q0 8 8 8l-8 16l16 236l-8 16q16 61 24 324h9l-9 16v276
q0 18 9 32q-17 87 -33 106v16q3 16 16 16h25q47 0 56 -235h9q0 27 24 170l-8 16l8 17l-8 32q9 65 32 65zM41 1305v-24h16v8q0 16 -16 16zM284 730q89 91 170 251h-8q-141 -190 -162 -251z" />
    <glyph glyph-name="l" unicode="l" horiz-adv-x="304" 
d="M155 1432h15q24 0 24 -31l-31 -170q7 -66 7 -109q0 -54 -7 -224h-8q0 -8 8 -8l-47 -789q8 -29 8 -70q-12 -31 -23 -31q-10 0 -31 62q-40 0 -55 54l8 39v302l-8 77h8l-8 16l8 38q-8 15 -8 24h8l-8 15q-7 388 -7 542l7 39q-15 25 -15 38l23 16q47 -5 47 -24v-123
q0 -50 -8 -101q23 -168 23 -356h8l23 495q-8 8 -8 62h8l-8 16v15q16 186 47 186z" />
    <glyph glyph-name="m" unicode="m" horiz-adv-x="1221" 
d="M139 1226h27q34 0 52 -305h9q51 37 104 52q61 -8 131 -43q59 8 96 8q55 -17 69 -17q49 87 114 87h17q9 0 9 -9l17 9q262 -106 262 -209q52 -74 52 -174q0 -205 -79 -436q-14 0 -43 -43h-9l9 -44q-33 -61 -44 -61h-17q-18 0 -18 17l114 401q0 9 -9 9l9 44v156
q-56 227 -140 227h-8q-141 0 -218 -636l-26 -18h-61q-18 0 -18 18v43q0 51 9 140l-9 17q9 35 9 61q-29 282 -96 314q0 12 -26 26h-17q-166 -29 -166 -444q-39 -497 -96 -497l-9 17v18q0 113 9 235v26h-9q0 -220 -43 -244h-18q-26 9 -26 53h9l-9 17v17q0 9 9 9q0 9 -9 9
q11 114 18 131q-9 14 -9 43q0 43 9 105q0 22 -35 218v26l35 148q-70 299 -70 366l17 8h27q40 0 78 -296l17 -9h9q0 155 -43 279q0 10 34 131zM671 886v-35l9 -43h17q0 30 96 130l-18 9h-43q-13 0 -61 -61zM288 877q-51 -53 -53 -61v-34h9q36 87 61 87v8h-17zM532 877
q-9 -16 -9 -26q43 -65 43 -96q27 0 27 105q-45 17 -61 17zM619 712q-16 -79 -26 -79l8 -87v-130h18v8q0 9 -9 9q17 121 26 270zM148 703v-157q0 -19 9 -34q-9 -16 -9 -35v-26h9l9 61v104l-9 87h-9z" />
    <glyph glyph-name="n" unicode="n" horiz-adv-x="838" 
d="M18 1073h45q14 0 36 -36v-162h9l190 153l45 -9h144q216 0 216 -262q9 -111 9 -117q-9 -97 -18 -117q18 0 18 -27q0 -45 -9 -135q9 -48 9 -54q-9 -47 -9 -109l9 -18q-18 -2 -18 -18v-63q0 -99 -27 -99l-9 18v54q0 47 -9 153h9q-9 14 -9 55l-18 -9l9 -46q0 -9 -9 -9l9 -18
v-9q-15 -38 -36 -144l-18 -9l-9 18v153q0 31 -27 64q0 486 -81 486q-18 0 -18 18q72 0 72 109l-117 18q-181 0 -181 -181q-15 0 -63 -288l-18 -18l9 -18v-45q0 -9 -9 -9l9 -18q0 -9 -9 -9l9 -18v-109q0 -189 -45 -189h-18q-36 0 -63 334l9 63v126q0 198 -18 316h9l-27 135
v36zM135 694l-9 -54v-27h9q0 27 9 63v18h-9z" />
    <glyph glyph-name="o" unicode="o" horiz-adv-x="919" 
d="M550 1021q193 0 259 -393l-8 -15l8 -32q-5 -55 -16 -55l8 -15l-8 -16q0 -8 8 -8q0 -194 -157 -393q-133 -94 -243 -94q-272 0 -385 267q-16 93 -16 118q0 203 141 416q206 190 409 220zM463 935v-8q3 -16 16 -16q26 16 47 16q94 0 94 -32v-8q-143 -6 -298 -157
q0 -18 -71 -125q-63 -155 -63 -252q0 -118 95 -188q-8 0 -8 -8q140 -31 188 -31q168 0 228 165l55 204q0 158 -110 314q12 31 24 31q0 -11 47 -47v16q-60 141 -142 141v8q-41 -16 -102 -23zM118 550q8 -19 16 -79q13 0 47 118q110 246 243 298v8h-23q-161 -80 -236 -188
q-36 -83 -47 -157zM71 408v-7q0 -191 133 -283h8v8q-120 180 -133 282h-8z" />
    <glyph glyph-name="p" unicode="p" horiz-adv-x="844" 
d="M27 1038q77 0 97 -239h-9q18 0 36 -301h8v203l-8 45h8q0 17 -44 177q0 48 62 53q0 35 195 44v-9q9 0 9 9q127 0 257 -168q89 -156 89 -266v-124q0 -118 -133 -239q-86 -53 -124 -53h-71q-38 0 -178 53v-9q-8 -200 -8 -248q0 -166 35 -310l-62 -71q-50 0 -89 664l9 18
q-14 85 -62 142v9h45q-42 593 -89 593v9q0 18 27 18zM195 870q24 -47 35 -302q-9 -46 -9 -88v-115q0 -62 89 -62q186 55 186 133l62 106q0 9 -9 9l9 62v62q0 160 -168 248q-9 0 -9 -9q-70 18 -106 18q-80 0 -80 -62zM629 710q0 -212 -89 -328q-103 -141 -203 -141v-9
q79 -6 79 -18q170 0 248 186q9 80 18 80q-18 135 -44 230h-9z" />
    <glyph glyph-name="q" unicode="q" horiz-adv-x="1024" 
d="M554 1092h8q12 0 50 -74q27 0 66 -108v-66q33 -401 57 -487h-8q8 -19 33 -182q-16 -3 -16 -17q41 -11 41 -198q0 -19 -8 -33q8 -15 8 -33q0 -61 -25 -166h-8l-17 9q9 66 17 66l-8 16q0 131 -50 422h-8q0 -9 -8 -25q0 -8 8 -8l-8 -42v-107q0 -8 -9 -8l9 -17
q0 -242 33 -405v-8l-25 -33q-31 0 -58 50q0 8 8 8q-16 74 -41 306q0 8 8 8q-25 261 -41 330q-204 -82 -314 -82q-248 0 -248 231v33q0 297 207 521q39 31 90 58h9q60 0 182 16v-8l16 8h25q0 12 25 25zM91 613l8 -42q0 -18 -8 -33q0 -157 149 -157h33q160 0 281 108v66l-9 49
q0 9 9 9l-9 82v75q0 8 9 8l-9 17v165q0 16 -16 16q-59 -16 -91 -16q-54 16 -74 16q-181 0 -265 -363h-8zM289 307h-74q-36 0 -108 33v-8q19 -50 149 -50q87 0 306 75v41h-25q-121 -91 -248 -91z" />
    <glyph glyph-name="r" unicode="r" horiz-adv-x="731" 
d="M113 1186q21 0 69 -208q83 26 104 26h52q200 -13 200 -96q38 -23 96 -234h-9q-45 21 -78 130q-5 0 -52 52l-26 -17q-51 95 -70 95q-147 -63 -147 -113q-15 0 -26 -43l8 -278q0 -159 -17 -338l9 -18l-9 -52q17 -251 43 -251v-9q0 -12 -26 -26q-28 0 -52 217l-34 -26h-26
q-29 0 -44 269q9 0 9 9q-18 0 -18 26q-17 295 -34 356l8 17q-17 185 -43 364l35 26h17q17 -2 17 -17q0 -74 18 -182h8q0 15 35 69q-35 173 -35 200v35q3 17 18 17zM200 900v-18h8q36 12 52 44v17q-55 -23 -60 -43zM148 804l-18 -113q9 -17 9 -26h9l8 87v52h-8z" />
    <glyph glyph-name="s" unicode="s" horiz-adv-x="771" 
d="M264 1024q113 -8 158 -8v-7l15 7h30q22 -7 22 -45v-15l-52 -52h-23l-22 15q-234 -62 -234 -174q34 -120 173 -120q222 0 301 -241q16 -35 16 -68q0 -160 -136 -271q-94 -45 -136 -45h-45q-165 0 -331 128v8q0 10 60 37q16 0 196 -83l53 -7v15q-52 0 -98 75v8q2 15 15 15
q128 -83 181 -83h30q75 13 75 120v31q0 170 -264 286q-110 32 -165 105q-33 53 -45 105q0 108 135 234q69 30 91 30zM218 934v-15q15 7 23 7v15q-15 -7 -23 -7z" />
    <glyph glyph-name="t" unicode="t" horiz-adv-x="832" 
d="M370 1511h10q20 -3 20 -20q-48 -164 -80 -440q0 -10 10 -10l-20 -130q30 0 30 -10q38 10 330 50q40 -15 40 -30q0 -40 -410 -120q-23 -161 -30 -161q45 -460 140 -460q210 0 210 240q10 110 20 110l-10 20v50h20q20 -70 20 -80v-60q30 0 30 -20q-45 -293 -140 -390
q-26 -30 -70 -50h-60q-21 0 -150 140q-160 83 -160 260q0 11 10 30q0 11 -10 30q10 190 30 301q0 56 -140 70l-10 20q35 60 90 60l30 -20h20q0 45 10 60q0 10 -10 10l10 70v90q0 300 60 300q15 0 30 -30q-30 -47 -30 -180v-200l-10 -60q10 -15 10 -60h20q80 620 140 620z
M200 450v-80q10 -90 40 -90v10q-30 87 -30 160h-10zM430 90q50 -20 50 -30q70 33 70 80q-120 -30 -120 -50z" />
    <glyph glyph-name="u" unicode="u" horiz-adv-x="928" 
d="M559 1024q33 0 43 -77h9q0 13 34 34q13 0 26 -26v-8q0 -75 -26 -155l9 -18q0 -8 -9 -8l9 -43v-60q0 -9 -9 -9q9 -17 9 -26q0 -407 155 -568v-8q0 -18 -26 -18l-17 9l-17 -9q-9 0 -9 9l-215 -43h-17q-20 0 -35 9l-17 -9q-9 0 -9 9l-60 -9q-107 0 -284 241q-94 267 -94 439
h8q-17 39 -17 86q0 55 26 146l-9 43l43 35h9q13 0 34 -35q0 -40 -26 -146q0 -296 112 -568h9v9q-52 328 -52 602h9q0 9 -9 9q21 154 61 154q34 -13 34 -25v-9q-17 -61 -17 -69v-86q0 -47 8 -120l-8 -18q66 -568 120 -568h43q84 0 147 147v8q-11 193 -18 233q9 16 9 26l-9 43
q9 137 18 137l-9 43v69q0 56 -9 172zM551 172q0 -17 -69 -86q0 -14 60 -26l17 9h18q8 0 8 -9q35 13 35 26l-61 86h-8z" />
    <glyph glyph-name="v" unicode="v" horiz-adv-x="818" 
d="M688 1024h14q-35 -210 -80 -271l7 -14q-80 -231 -183 -688q-21 -49 -44 -51q-33 0 -73 183l-300 717q-29 0 -29 36q4 73 22 73h37q212 -220 234 -365q14 0 95 -256l36 -132h8q95 422 212 695q9 0 22 44l14 -8h8v8h-15v14q2 15 15 15zM161 790v-22l161 -417h7v15
q-36 136 -161 424h-7z" />
    <glyph glyph-name="w" unicode="w" horiz-adv-x="1255" 
d="M1099 1084q11 0 23 -23q0 -8 -7 -8l7 -15q-114 -478 -114 -611q0 -30 -8 -30l8 -38v-46q0 -76 7 -229q-46 -34 -53 -84h-15q-81 0 -176 351q-77 123 -99 145q23 46 23 54q-23 91 -38 91l-153 -481q-28 -14 -38 -45l7 -16q0 -51 -38 -76h-8q-10 0 -22 23l15 23v183
q4 105 23 114l-8 16q73 285 138 358q12 35 45 54h16q57 -38 152 -283q64 -104 100 -213q13 0 30 -84l15 -8v99q0 18 -7 31q0 8 7 8q0 8 -7 22q0 232 152 718h23zM183 924h15q11 0 46 -161q138 -387 138 -496q7 0 23 -152l-23 -16q-33 0 -54 206q-160 507 -160 603
q2 16 15 16zM23 908q30 0 76 -160q37 -59 130 -336q18 -46 31 -46q-16 28 -16 61h16q22 -34 61 -389q-12 -30 -23 -30h-8q-27 0 -53 129h7q-58 273 -152 497q-61 127 -92 236v16q0 10 23 22zM603 718q-107 -262 -107 -374q15 0 115 328q15 0 15 15v31h-23z" />
    <glyph glyph-name="x" unicode="x" horiz-adv-x="942" 
d="M108 1055h8q33 -14 124 -223q110 -149 141 -149q16 0 124 132q13 0 107 99q98 0 132 50q56 33 75 33l8 -16q-137 -98 -281 -282q-83 -89 -83 -116q330 -371 331 -430v-8l-16 -8h-9q-31 18 -58 66l9 17q-52 0 -174 165l-99 99h-9v-8q297 -356 323 -521v-8q0 -17 -17 -17
h-8q-90 85 -248 347q-102 148 -116 149q-150 -285 -231 -405h-17l-33 25q99 185 149 314l-17 8q-155 -270 -173 -355h-33q-17 0 -17 16v25q119 331 240 447q0 4 33 41v25q0 6 -232 306v17q0 11 25 24h25l33 -24v8q-33 55 -58 124z" />
    <glyph glyph-name="y" unicode="y" horiz-adv-x="1087" 
d="M804 1009q14 0 29 -29q-29 -141 -29 -172q84 144 95 144h29q22 0 29 -48q-201 -420 -316 -756h-9l9 -19q-48 -131 -105 -393l-29 -19l10 -19v-29h-29q-19 0 -19 19v67q0 10 9 10q-9 19 -9 29h-10q-34 -153 -67 -153q-19 0 -19 19q0 31 134 469q10 5 10 67
q-75 103 -96 105q-400 522 -421 612l38 29h10q38 -26 249 -364q124 -166 162 -201h10q-80 275 -268 393q-48 52 -48 57v19q0 52 48 77h48q306 -461 306 -479v-9l-29 -19q-18 9 -28 9v-9q56 -115 67 -115h9q81 334 125 373l-10 19q77 316 115 316zM249 865v-19q0 -13 29 -28
v9q-15 38 -29 38z" />
    <glyph glyph-name="z" unicode="z" horiz-adv-x="1137" 
d="M49 1021q16 0 16 -8q95 8 138 8h178q34 0 89 -8l16 8q115 -16 373 -32q16 8 24 8q65 -22 65 -41v-16q-105 -82 -105 -105l-16 -25l16 -24v-16q-48 -69 -446 -422q-24 -39 -81 -72q-122 -120 -122 -146h9q15 8 24 8v-8q360 113 559 113h8q73 -13 73 -65l16 8h33l97 8
q8 -15 8 -24q0 -44 -219 -73q0 8 -8 8q0 -31 -348 -64q0 -15 -187 -33q-44 8 -73 8q-26 -16 -40 -16v24h16v25h-16l-81 -8q-16 29 -16 64q91 47 129 122q17 1 170 186q20 0 114 98h-8l-178 -146h-9q-11 0 -24 24v16q37 53 340 300l114 113l-16 9q-156 8 -203 8v8q-8 0 -8 -8
l-57 8h-73q-18 0 -32 8q-14 -8 -32 -8v8q-98 -8 -98 -33q-123 45 -137 73v8q0 5 32 41q-45 0 -73 57zM778 948h-8q-8 0 -8 8l-17 -8h-32q-18 0 -32 8q-8 0 -8 -8l-41 8h-365l-48 -8l-16 8q-44 -8 -73 -8l-41 8v-32h8q81 -2 81 -16q16 8 25 8q201 0 364 -25q8 0 8 8
q155 -32 187 -32q0 10 48 41q-8 10 -8 56zM656 697q0 -8 -121 -122v-8l138 114v16h-17zM462 527v-8h16l41 40q-47 -32 -57 -32z" />
    <glyph glyph-name="braceleft" unicode="{" horiz-adv-x="702" 
d="M483 1435q75 -8 75 -31q0 -19 -25 -19l6 -31q-21 -19 -31 -19q-32 0 -32 12l-12 -6h-57q-145 0 -326 -269q0 -22 132 -113q68 -86 150 -144v-25q0 -17 -169 -76v7q-113 -29 -113 -57v-12l170 -38q34 -6 50 -6q20 12 31 12q17 -31 25 -31q-9 -36 -88 -69
q-188 -181 -188 -282q38 -157 232 -157q58 19 69 19q9 -31 44 -31h119q9 0 19 -19q0 -8 -50 -37h-94q-51 0 -119 6q-36 -19 -82 -19q-125 0 -206 150q-7 34 -7 57q0 172 107 319q44 19 44 38q-132 3 -132 38q-25 10 -25 43q0 69 169 151q0 -6 6 -6q0 6 7 6q0 12 -38 31
l-19 31q13 32 19 32q0 11 -88 75q-36 60 -50 119q0 38 50 100q0 41 251 188q99 50 176 63zM226 871v-19q45 -37 56 -37q0 6 6 6q0 10 -50 50h-12z" />
    <glyph glyph-name="bar" unicode="|" horiz-adv-x="302" 
d="M48 1440q24 -9 24 -18v-60l6 -36l-6 -12v-6h6q6 36 18 36h6q0 -18 12 -18q-6 -18 -12 -18l6 -12l-6 -12q6 -12 6 -18l-12 -6q0 -6 6 -6l-18 -132l6 -30v-396h6q0 36 6 36q0 6 -6 6l6 30v42q0 25 -6 48l12 90q-6 12 -6 18q6 12 6 18t-6 6l6 30q6 202 6 234h6q-6 12 -6 18
l6 12l-6 12q6 42 18 42l-6 12v18q0 66 24 66q12 -20 12 -36v-36q0 -6 -6 -6q6 -12 6 -18t-6 -6l6 -30v-18q0 -25 -6 -66q0 -6 6 -6l-6 -72v-258q0 -6 -6 -6q0 -6 6 -6q-6 -70 -6 -102v-60q0 -6 -6 -6l6 -12v-42q0 -6 -6 -6l6 -12v-72q0 -16 -12 -36q4 -42 12 -42l-6 -30v-42
q0 -6 -6 -6l6 -12q0 -12 -12 -12l6 -30v-102q0 -8 -30 -30l6 -12q6 -146 6 -186l-18 -12h-6l-12 6q0 -12 -12 -12q-27 0 -36 126q0 6 6 6l-12 120h6l-6 12v96q0 64 -18 228h6l-12 42q0 6 6 6l-6 30v42q0 25 -6 66l6 12q0 6 -6 6l6 30v66q2 12 12 12l-6 30q12 145 12 186v90
q0 6 6 6l-6 12v90q0 32 -6 102zM90 654v-30h6v30h-6zM90 606v-36h6v36h-6zM90 516v-36h6v36h-6z" />
    <glyph glyph-name="braceright" unicode="}" 
d="M577 1435h19q115 -29 115 -58l13 7q154 -70 154 -154q0 -74 -64 -160l-52 -83q-43 -52 -51 -52h-19v7q141 189 141 275v13q0 42 -96 109l-122 38h-19l-32 -6v-6q154 -82 154 -199q0 -187 -231 -359v-6q0 -10 51 -26q9 0 45 26h6q13 -2 13 -13q-25 -36 -25 -51
q21 0 57 -58v-26q0 -10 -25 -25q-21 13 -39 13v-7q26 -74 109 -160q0 -3 19 -70v-77q-22 -132 -185 -257q-116 -49 -186 -64q-13 7 -19 7q-27 0 -65 -13q-153 13 -153 32l-13 -6q-33 0 -77 38v19q0 9 19 20h13q19 -33 135 -45l83 25l13 -6q187 50 230 122q84 143 84 243
q0 66 -90 90q-58 34 -58 83q7 0 7 6q-73 32 -109 32h-19l-20 -12h-19q-13 0 -13 19h-57q-61 26 -77 58v6q0 9 19 19l38 -25q108 0 167 70q111 25 256 211q58 98 58 167q0 154 -231 154q-131 0 -333 -77q-26 9 -38 32q0 54 301 102h102q7 0 7 -6l12 6h13l13 -6q34 64 71 64z
M359 718v-20h25v7q0 13 -12 13h-13zM423 705l-7 -13l32 -7h7q0 15 -32 20zM609 308v-7h6q13 41 13 51q-13 0 -19 -44z" />
    <glyph glyph-name="asciitilde" unicode="~" 
d="M294 999q174 -33 174 -90l48 -180q48 -48 78 -48h30l30 6q0 -6 6 -6q117 72 150 198q6 24 6 42q0 5 -6 48q22 18 42 18q19 -11 42 -126q-41 -166 -222 -306q-65 -36 -126 -36h-36q-104 0 -126 210q6 19 18 144v24q0 9 -18 18q-3 -12 -30 -24q-24 9 -24 18
q-78 0 -138 -210q-20 -48 -48 -72q-24 9 -24 18v6q42 158 60 174v12q-25 -7 -78 -114q-12 -60 -36 -96q0 -66 36 -186v-18q-64 0 -96 216h6q-6 12 -6 18q0 76 102 216q64 126 186 126zM438 735v-24q0 -104 66 -150q121 0 186 78v12q-23 -18 -54 -18h-36q-88 0 -150 108v6
q-12 -2 -12 -12z" />
    <glyph glyph-name="exclamdown" unicode="&#xa1;" horiz-adv-x="672" 
d="M61 -279q-55 0 -55 109q0 78 16 78q0 8 -8 8l8 39q0 52 46 717h8l-8 16v101q0 86 -23 86q0 47 55 47q31 0 46 -125q71 0 71 -23v-141q0 -50 7 -101q-7 -29 -7 -70l7 -55q-7 -15 -7 -23q7 -43 7 -62q0 -16 -7 -16l7 -55v-109q0 -66 8 -195h-8l8 -15l-8 -94q12 0 24 -23
v-16q-19 -34 -55 -47q-33 0 -62 55l23 140l-8 39v125q0 45 -7 125q0 8 7 8l-7 39v109h-8q-16 -250 -31 -312l7 -16l-15 -187l8 -39l-8 -39q8 -15 8 -23q-16 -49 -39 -55zM92 930q-31 26 -55 210q31 16 55 16q95 0 101 -109q-30 -117 -101 -117z" />
    <glyph glyph-name="cent" unicode="&#xa2;" horiz-adv-x="997" 
d="M358 1206q39 -13 39 -26v-40q0 -49 20 -53q12 6 27 6v-6l13 6h13q7 0 7 -6l13 6q61 0 119 -99q20 -44 20 -59q0 -10 -20 -20h-26q-86 7 -86 33v6h-73v-6q33 -333 33 -523v-73q0 -7 -7 -7q0 -6 7 -6l-20 -186q62 0 205 53h20q0 -66 -132 -99h-7v-13h7q291 70 291 165h13
q10 0 20 -20v-26q-9 -65 -79 -113q-178 -93 -351 -93v-6q-24 -126 -40 -126h-26q-9 0 -27 66q-40 0 -40 86q-62 0 -225 126q-66 100 -66 212v53q0 542 278 636q46 0 46 86q15 66 34 66zM106 557q0 -7 7 -7q-7 -66 -7 -99v-73q15 -232 139 -232h60q15 195 26 246l-7 13v26
q0 20 7 20l-7 33q0 265 -13 437h-6q-88 -39 -166 -238q-22 -126 -33 -126z" />
    <glyph glyph-name="sterling" unicode="&#xa3;" horiz-adv-x="1044" 
d="M564 1435q37 0 141 -115q0 -29 -39 -45q-14 0 -115 64q-53 6 -64 13l-13 -7q-6 0 -6 7q-144 0 -180 -289l13 -70q0 -6 -6 -6q15 -116 32 -116q16 0 218 64v-6l12 6q10 0 20 -19v-6q0 -34 -180 -96q-64 -21 -64 -32v-13h7q25 0 166 70h13l6 -13v-25q-39 -52 -192 -135
q-50 -256 -96 -326q118 -60 179 -186q0 -24 52 -77h38q74 0 314 192q9 0 26 26h6q13 -2 13 -13v-7q-29 -66 -96 -121v-13h6q66 19 135 64q13 -2 13 -13q-22 -50 -45 -64l-13 7q0 -37 -154 -90q-102 -45 -211 -45t-186 147q-45 96 -115 96q-23 -2 -52 -57q-30 -19 -115 -19
q-32 37 -32 89q43 109 154 109q57 127 57 192v13l-6 45h6q0 58 -89 58q-71 25 -71 51l7 32l-26 19q0 58 96 58q2 6 64 6q5 77 13 77l-6 26q-7 227 -7 262q28 132 122 205q64 26 250 26zM135 756v-6q19 0 19 -13q6 0 6 6l32 -6h7v25h-20z" />
    <glyph glyph-name="currency" unicode="&#xa4;" 
d="M132 1022q54 -6 138 -102q91 54 186 54q88 0 192 -60q51 -30 66 -30q123 102 138 102q0 6 24 18h12q30 -15 30 -48q-8 0 -78 -78q-28 -26 -84 -30l-6 -12q66 -108 66 -150v-24q0 -6 -6 -6l6 -12q-4 -60 -72 -132q1 -10 126 -66q30 -31 30 -54q0 -30 -102 -36
q-82 0 -150 90q-57 -38 -240 -54q-198 49 -198 108l-18 12q-139 -138 -150 -138q-36 12 -36 24v12l120 126v42q24 0 24 36l-6 60q0 87 72 204q-15 13 -66 54q-20 -12 -36 -12q-9 0 -18 18q0 74 36 84zM348 860l6 -54l-18 -12q-16 0 -36 12q-40 0 -84 -150v-6
q36 -138 78 -138q61 -36 138 -36q246 25 246 72q66 0 90 96q0 172 -192 246q-16 11 -72 18z" />
    <glyph glyph-name="yen" unicode="&#xa5;" horiz-adv-x="989" 
d="M825 1438h6l21 -14q-17 -76 -150 -313l-164 -355v-6q21 -26 21 -62l-7 -34q207 82 232 82h27q9 0 34 -41v-13q-98 -191 -286 -191h-7v-28l143 14q68 -22 68 -61q-33 -33 -122 -62v7q-36 -20 -82 -20v-48q0 -7 -7 -7q0 -7 7 -7q0 -204 -82 -204l-14 20q14 72 14 75
q0 7 -7 7l7 34v96q0 13 -14 13q0 -39 -6 -47q0 -7 6 -7q-13 -61 -13 -164v-13l7 -69l-28 -20h-20q-41 34 -41 102l7 34v82l7 41q-7 13 -7 20q7 14 7 21h-7q-72 -14 -109 -14q-82 36 -82 48v27q0 27 123 41q88 18 88 61v21q0 14 -41 20q-105 -20 -129 -20h-21q-37 0 -54 27
v27q42 48 184 48q7 0 7 -7q54 12 54 34q0 182 -75 246q-212 181 -259 306q-61 93 -61 130v7q7 20 41 20h7q79 -109 88 -109q75 -4 75 -61q27 -21 191 -246l75 -81q25 34 75 163q122 261 273 450zM579 579v-13h7q89 0 157 81v7z" />
    <glyph glyph-name="brokenbar" unicode="&#xa6;" horiz-adv-x="302" 
d="M132 1432q29 -31 29 -52q-11 -73 -23 -345q6 -11 6 -17q-6 -69 -12 -69q6 -11 6 -17t-6 -18l6 -34v-17q0 -6 -6 -6l6 -12v-17q0 -6 -6 -6l6 -11q-4 -63 -17 -63h-12q-17 0 -17 51q6 12 6 18q-17 0 -17 103h-6q0 -52 -6 -52l6 -11v-17q0 -9 -23 -23h-17q-9 0 -18 17v57
q0 21 -5 52q0 6 5 6l-5 29v69l-6 34l6 12q-6 10 -6 23h6l-6 11q-6 97 -6 150q10 74 35 74q23 0 23 -40h11q0 108 63 121zM81 633h23q34 -19 34 -64q0 -5 -6 -5l6 -12q0 -6 -6 -6l6 -28v-52l6 -35q0 -5 -6 -5l6 -29v-81l6 -28h-6l6 -12v-121q0 -5 -6 -5l11 -41q0 -5 -5 -5
l5 -29v-23q0 -44 -23 -52h-17q-8 0 -17 17v127q0 13 -6 23q6 10 6 23v11h-6l-6 -40l6 -23l-6 -11q6 -11 6 -23q-19 -12 -34 -12h-6q-24 0 -35 230q-3 0 -11 127q9 155 40 155h6q0 -6 6 -6q0 23 23 35zM86 259v-35h6q0 18 6 18q-6 11 -6 17h-6z" />
    <glyph glyph-name="section" unicode="&#xa7;" horiz-adv-x="980" 
d="M472 1487q128 -14 128 -80l-16 -32q8 -14 8 -32l-16 -8h-16q-10 0 -40 56q-25 0 -56 8q-112 -16 -264 -176q-56 -67 -56 -152v-40q37 -32 40 -56q15 8 24 8q64 -2 64 -16l240 40q0 -20 152 -56q80 -62 80 -176q0 -8 -8 -8l8 -40q0 -44 -24 -151q107 -37 119 -80v-32
q0 -118 -159 -344q-82 -102 -296 -168q-26 -16 -48 -16h-64q-67 24 -96 64v8l16 24q-22 0 -96 64q2 16 16 16h8q109 -48 224 -48l16 8q8 0 8 -8q137 0 248 152q64 170 64 256v8h-8q-229 -72 -360 -72q-147 0 -216 176v24q0 158 96 271v16q-192 56 -192 144q13 157 248 352
q126 96 224 96zM464 863l-56 8q-200 -149 -200 -255q20 -88 96 -88q288 24 288 56q36 0 40 96l-8 16v23q0 184 -72 184h-8q-18 0 -80 -40z" />
    <glyph glyph-name="dieresis" unicode="&#xa8;" horiz-adv-x="806" 
d="M178 1572q127 0 127 -127q-36 -127 -103 -127h-8q-127 19 -127 191q68 53 111 63zM543 1540q127 -39 127 -119v-8q-49 -87 -103 -87h-32q-46 26 -63 56v55q0 73 71 103zM186 1453l-8 -40v-8h16l8 40v8h-16z" />
    <glyph glyph-name="copyright" unicode="&#xa9;" horiz-adv-x="1467" 
d="M689 1429l17 -8q9 0 9 8q243 -39 243 -109l17 8q210 -186 294 -387q27 -59 51 -176q0 -230 -168 -454q-123 -190 -505 -294q-67 -17 -143 -17q-248 0 -437 345q-67 145 -67 285q8 17 8 26l-8 16q29 239 336 580q90 106 269 169q9 0 9 -9q57 9 75 17zM462 1252v-8l118 17
l17 -25q-294 -95 -294 -168q-143 -167 -143 -421h-9l9 -17v-58q0 -76 17 -143q-9 -17 -9 -26q15 0 34 -84q84 -98 84 -109l17 9q72 -56 176 -68v-8q4 0 34 8q73 -8 84 -8q16 8 25 8v-8l101 17l17 -9q138 26 252 118q118 103 118 193q0 11 8 84q-8 125 -17 169h9
q-9 20 -17 84h8l-8 16l8 17q-17 0 -67 236q-11 0 -42 75q-34 17 -34 51h9l33 -9v25q-12 0 -151 118l-17 -8q-19 17 -126 33q-109 0 -244 -101zM748 1093q51 -9 51 -25v-26q-9 -25 -51 -25q0 9 -8 9q0 -26 -34 -26q0 -14 17 -50l-42 -34h-9q-18 0 -33 9q-101 0 -143 -160v-34
q0 -153 118 -210h8q30 0 252 151q54 -21 59 -42v-33q-13 -34 -109 -67q-119 -106 -252 -118h-59q-17 0 -17 17l-17 -9q-118 41 -118 177l-8 42q8 65 25 92q-8 17 -8 26q17 0 50 151q135 185 328 185zM1093 1042q22 -25 50 -126q-8 0 -8 -8q22 0 33 -135h-8q17 -19 25 -201
h-8q8 -13 8 -51h9q33 104 50 185l-8 17q0 8 8 8q-15 164 -134 311h-17z" />
    <glyph glyph-name="ordfeminine" unicode="&#xaa;" horiz-adv-x="648" 
d="M281 1442v-4l7 4q56 -1 67 -11q18 11 47 11h7q10 0 10 -14q-3 -26 -3 -29q0 -9 35 -28q6 -7 11 -64h-4q17 -40 54 -196q4 0 7 -14l-11 -7h-3q-19 0 -36 85h-3v-7q3 -63 17 -146v-11q7 0 11 -17q-3 -7 -3 -11l7 3q5 0 10 -14l-7 -3q-44 0 -78 181q-4 0 -4 4q-6 0 -46 -54
l-60 -50q24 0 24 -7l86 18l3 -7q-24 -14 -89 -28h-3q-48 0 -64 10l-36 -3q-88 0 -131 135l-4 21q0 109 103 221q55 26 79 32zM327 1403h-46q-90 0 -100 -110q72 99 139 99q30 0 50 -28q-4 0 -4 -4q-14 7 -39 7h-4q-67 0 -124 -110q-11 -23 -11 -57v-7q0 -48 46 -93h36
q7 -1 7 -7q-11 -7 -29 -7v-7q6 -14 25 -14q89 33 111 78q28 11 28 50q-14 195 -28 221q-23 -11 -57 -11zM145 1278l-18 -71q4 -6 4 -14h-4q37 -121 75 -121q0 -4 18 -11l4 7q-75 50 -75 210h-4z" />
    <glyph glyph-name="guillemotleft" unicode="&#xab;" horiz-adv-x="1003" 
d="M876 1184h6q9 0 24 -24q0 -39 -114 -168v-6h6q35 36 66 36l12 -18v-30q-1 -7 -132 -126q-138 -126 -138 -156q119 -159 276 -240l12 -18v-18q0 -12 -12 -12l-30 6q0 -48 -24 -48h-24q-54 17 -204 204q-6 0 -66 54q-25 -66 -36 -66h-24q-9 0 -24 24q0 35 30 78
q-12 25 -12 36q132 182 168 204q16 46 240 288zM450 1160q9 0 30 -36v-6q-131 -167 -276 -390q-6 0 -66 -84h6q36 13 126 144q25 25 198 276q36 54 42 54h12q14 0 18 -30q-11 -56 -240 -372q-8 0 -72 -90v-18q207 -150 246 -234q42 -39 42 -72v-18q0 -9 -18 -18h-18
q-15 0 -36 66q-96 14 -282 192q-6 15 -60 54h-6l-30 -24h-24q-8 0 -30 30q46 76 192 252q50 90 222 324h24zM312 428q22 -42 54 -42h6q0 7 -54 42h-6z" />
    <glyph glyph-name="logicalnot" unicode="&#xac;" horiz-adv-x="1154" 
d="M593 854q6 0 6 -6l42 6h36q33 0 84 -6q12 6 18 6l12 -6l30 6l42 -6q6 0 6 6q186 0 186 -42v-24q0 -16 -102 -48v-42q18 -84 18 -132l-12 -6h-24l-24 18q0 -18 -24 -30h-6q-60 0 -60 150v42q-84 0 -84 24l-30 -6q-106 12 -126 18q-171 -12 -330 -36q-6 0 -6 6l-30 -6h-18
q-38 0 -60 18l-60 -6h-42q-8 0 -30 30v24q0 21 156 30v-6q6 0 6 6q6 0 18 -6l72 12v-6l12 6q287 6 324 12z" />
    <glyph glyph-name="registered" unicode="&#xae;" horiz-adv-x="1308" 
d="M780 1432q164 0 292 -197q120 -186 120 -386v-94q0 -18 -17 -18l8 -17v-34q-93 -266 -145 -266l8 -17q-14 0 -51 -60q-253 -300 -326 -300q-24 -28 -172 -43q-95 23 -197 94q-223 130 -223 275q-77 170 -77 334q32 241 111 360q147 197 318 258q166 102 257 102v-8
q46 17 94 17zM566 1226l-26 17h-8q-170 -52 -369 -411q-26 -98 -26 -155v-25q0 -231 223 -481q47 -8 77 -8h43q296 62 386 180q232 354 232 497q-9 17 -9 26q13 34 26 34q-24 182 -189 386q-66 52 -180 52h-17q-120 0 -120 -52q0 -38 -43 -60zM669 1200q111 0 128 -205
q-22 -129 -51 -129l9 -17q-85 -78 -180 -112v-25q104 -15 248 -189q26 -31 26 -60q0 -11 -52 -34q-42 8 -85 85q-116 121 -172 121h-8v-60l-9 -52q9 -15 9 -34h-9l9 -17v-146q0 -12 -43 -43q-52 19 -52 86q0 99 9 643q0 35 68 86q57 102 155 102zM557 969l9 -17v-26
q0 -19 -9 -34q9 -15 9 -35v-8l-9 -17l18 -9q102 55 102 86l26 111q-15 78 -26 78q-102 -9 -102 -95q-7 0 -18 -34z" />
    <glyph glyph-name="macron" unicode="&#xaf;" horiz-adv-x="771" 
d="M525 1530l12 -6l36 6q78 -8 78 -30v-6q0 -55 -168 -120l-12 6q-37 -28 -216 -48q0 6 -6 6q0 -12 -12 -12v6q-23 -12 -66 -12h-18q-150 0 -150 54v6q16 20 96 30q6 0 6 -6q81 6 120 6h48q14 0 24 6q11 -6 24 -6l12 6q6 0 6 -6q128 0 240 60v6q-12 0 -12 6l-12 -6h-72
q0 -20 -372 -42h-12q-60 15 -60 42q0 30 54 30q2 -12 12 -12q67 0 198 18v-6q28 10 222 24z" />
    <glyph glyph-name="degree" unicode="&#xb0;" horiz-adv-x="674" 
d="M255 1603h24q47 0 174 -54q23 -19 48 -60q0 -12 -12 -12q-89 48 -120 48h-6q0 -9 -12 -24q-22 12 -48 12q-66 -50 -66 -162q14 -120 78 -120q82 0 186 72q30 59 30 72h12l6 -30v-6q0 -127 -246 -174h-48q-108 0 -162 144q-6 8 -6 42v42q0 6 6 6l-6 12q0 84 126 180z
M141 1369q10 -138 78 -138q-42 56 -42 126v6q0 63 30 132h-6q-60 -55 -60 -126z" />
    <glyph glyph-name="plusminus" unicode="&#xb1;" horiz-adv-x="1116" 
d="M495 1380h12q8 0 30 -30q-18 -115 -18 -192v-108h6q0 225 54 252q42 0 42 -42q-18 -60 -30 -156q6 -10 6 -24v-24h6q32 0 156 36h12q36 0 60 -36q0 -72 -228 -96v-30q2 -12 12 -12l-6 -30v-18l6 -36l-6 -12l6 -36v-6q0 -13 -6 -24q6 -15 12 -60l-12 -6h-6q-27 0 -54 120
q6 0 6 6l-12 6q0 -113 -36 -120q-60 0 -60 174q0 9 -30 18l-12 -6q-163 57 -168 96v6q24 20 24 42l30 18h18q43 0 66 -12q6 0 6 6l30 -6h36v54q0 14 6 24q0 6 -6 6q10 216 30 216l-6 12v6q0 9 24 24zM693 1014v-12q60 6 60 24h-6zM375 954l72 -18v30h-60q-12 -2 -12 -12z
M159 462q128 0 144 -30q6 0 6 6l30 -6h48l60 6v-6l12 6h234q150 -1 150 -12q6 0 6 6q103 -17 132 -48v-6q0 -48 -84 -48l-162 -24q-6 0 -6 6l-78 -12v6q-142 -30 -426 -42l-12 6q-12 -6 -18 -6q0 12 -12 12l-12 -6q-60 26 -60 66v12q10 24 42 24v12h-6q-138 0 -138 42v6
q0 20 72 24l36 -18h42v24zM225 324q48 -4 48 -12l102 12l12 -6q14 12 120 18q0 -6 6 -6q0 13 66 18v12h-42q-20 0 -30 6q-263 -16 -282 -42z" />
    <glyph glyph-name="uni00B2" unicode="&#xb2;" horiz-adv-x="516" 
d="M236 1670h12q72 0 126 -72q0 -74 -234 -258l-6 -12q6 0 18 -6q176 78 198 78h18q12 -2 12 -12v-18q0 -12 -36 -18q0 6 -6 6q0 -10 -72 -54h12q53 12 72 12l6 -12v-12q0 -32 -186 -72h-6q-120 11 -120 96q13 63 84 120q94 45 162 138v30h-24q-69 0 -108 -42h-24l-12 6
q0 -12 -12 -12h-12q-42 0 -42 30q45 66 120 66q16 15 60 18z" />
    <glyph glyph-name="uni00B3" unicode="&#xb3;" horiz-adv-x="565" 
d="M188 1687h48q82 0 138 -90v-48q-24 -60 -24 -66q78 -28 78 -90v-6q0 -79 -192 -210q-61 -18 -90 -18q-48 30 -48 60v6q2 12 12 12h18l18 -12q24 6 42 6v12h-12q-83 0 -150 66v12q0 9 24 18q32 -26 90 -36h48q6 0 6 -6q144 23 144 72q-5 25 -54 54q-51 -12 -60 -12
q-22 18 -90 24q-12 20 -12 36q0 35 150 42q30 31 30 54q0 35 -48 42q-47 -5 -108 -60h-18q-40 48 -54 48l-6 12v18q52 60 120 60zM200 1471v-6q2 -12 12 -12q12 0 12 12v6h-24z" />
    <glyph glyph-name="acute" unicode="&#xb4;" horiz-adv-x="496" 
d="M349 1671l18 -30v-12q-127 -128 -222 -150q-16 -30 -84 -30q-12 20 -12 36q40 42 264 180q5 0 36 6z" />
    <glyph glyph-name="mu" unicode="&#xb5;" horiz-adv-x="809" 
d="M527 1018q58 0 58 -159h-7q32 -160 45 -300h-6l6 -12q0 -7 -6 -7q6 -12 6 -19q0 -13 -6 -13l19 -248h19q13 45 25 45h7v-39q0 -6 -7 -6q7 -8 13 -89q-80 -77 -102 -77q-22 -6 -25 -6q-68 0 -89 191h-13q-110 -178 -223 -178l-32 6q0 -19 -6 -19l6 -13v-204q0 -54 -19 -76
q13 0 13 -19q0 -70 -26 -70l6 -13l-25 -19l-6 13l-13 -7l-19 13h-7l7 -77q-27 -25 -64 -25l-25 25q12 69 12 122q0 418 -57 898v63q0 45 38 71q0 71 58 121h6q64 -17 64 -121q25 -141 31 -230h-6q11 -24 19 -172h-6l6 -13v-57q7 -95 26 -95h6q77 0 166 216l-7 13
q39 183 39 191q-7 70 -7 121q16 153 38 153q51 0 51 -32h7v6l-7 39q0 6 7 6q-5 13 -13 70q12 29 25 32zM508 859q-12 -81 -12 -198l25 -197q26 8 26 57v51q0 78 -32 287h-7zM451 413q0 -27 -25 -83h6q32 25 32 57l-7 26h-6zM534 368q19 -172 32 -210h19l19 13
q-51 96 -51 223q-10 0 -19 -26zM101 215q19 -165 19 -242v-185q0 -14 -7 -25q7 -10 7 -38h6q19 53 19 102v146q0 64 -6 191h6q-11 29 -44 51z" />
    <glyph glyph-name="paragraph" unicode="&#xb6;" horiz-adv-x="1024" 
d="M838 1435q31 -13 34 -27q-19 0 -40 -66l6 -226l-6 -94q0 -6 6 -6l-6 -47v-319q0 -57 -7 -120l7 -27q-7 -99 -7 -166v-40l-7 -40q0 -6 7 -6q-7 -51 -20 -67v-60l-53 -33v-93l7 -67h-7l7 -13v-7q0 -17 -54 -33l-20 27q0 6 7 6l-7 34v159q0 15 7 27q0 7 -7 7q7 53 34 625
q0 7 -7 7l7 33v146q0 24 6 60q0 7 -6 7q17 319 53 319q0 7 -7 20q10 80 73 80zM506 1395q20 0 40 -40q-14 -53 -14 -126v-67q0 -6 -6 -6l6 -14v-206q0 -13 40 -20v-7q-33 -37 -33 -99v-67h7q13 7 20 7q0 -10 20 -20l-47 -80q7 -12 7 -27h-7l7 -13v-133q0 -7 -7 -7l7 -13v-33
q0 -7 -7 -7q0 -7 7 -7l-14 -126q7 -13 7 -20q-13 -67 -13 -120v-26q-20 -16 -27 -94q-45 -20 -53 -20q-20 25 -20 47v7q0 87 7 226l-7 13q7 12 7 27v66q0 20 -7 20l7 34v119l-7 14q-32 -20 -100 -20q-150 0 -286 226q-40 79 -40 213q0 189 253 366q10 0 26 13h7
q47 -13 53 -13q22 13 34 13q16 -1 66 -60q13 0 13 -33v-73q14 0 14 13q0 7 -7 7q10 166 47 166zM333 1189q13 0 46 -40v27q0 33 -6 99q-40 -29 -40 -86zM93 989q0 -143 127 -239q20 0 20 -7l13 7q7 0 7 -7q50 0 86 40q-85 0 -113 173q0 20 -13 20q-20 -107 -47 -107h-27
q-10 0 -26 27q40 229 113 299q9 0 20 20v14h-7q-72 -20 -106 -80q-47 -80 -47 -160zM313 1136q-7 -34 -14 -34q0 -6 7 -6l-7 -34v-73q0 -6 -6 -6q13 -35 20 -87q20 0 20 120q-7 63 -14 73q20 7 20 13q-13 31 -26 34zM399 929l-6 -66q13 0 13 -20h7v13q-7 59 -7 73h-7z
M399 836l-6 -26h6q14 0 14 13v13h-14zM240 683l-47 7q18 -44 146 -80q55 0 87 40v20q0 66 -13 66q-90 -53 -173 -53z" />
    <glyph glyph-name="periodcentered" unicode="&#xb7;" horiz-adv-x="508" 
d="M227 807q48 0 48 -48h42q9 0 18 -18v-12l-6 -30q8 0 30 -30v-18q0 -21 -150 -42q-16 2 -30 30l-12 -6q-48 28 -48 60q0 14 108 114z" />
    <glyph glyph-name="periodcentered" unicode="&#x2219;" horiz-adv-x="508" 
d="M227 807q48 0 48 -48h42q9 0 18 -18v-12l-6 -30q8 0 30 -30v-18q0 -21 -150 -42q-16 2 -30 30l-12 -6q-48 28 -48 60q0 14 108 114z" />
    <glyph glyph-name="cedilla" unicode="&#xb8;" horiz-adv-x="1024" 
d="M432 -74v18q20 36 90 36q26 -18 42 -18h6q-4 36 -12 36q0 67 -66 108v12q4 18 48 18q12 0 12 -12q43 0 84 -186q-6 -36 -18 -36q-70 -96 -78 -96h-18q-53 0 -90 120z" />
    <glyph glyph-name="uni00B9" unicode="&#xb9;" horiz-adv-x="400" 
d="M182 1645h11q24 0 33 -31q-13 -50 -17 -50q0 -3 6 -3q0 -6 -6 -11q-5 -194 -16 -300h-6l6 -5l-6 -14q0 -3 6 -3q-10 -39 -23 -39q-5 5 -5 8h-11q0 -17 -17 -17h-17q-33 8 -33 11v196q0 3 6 3l-6 6v28l6 17q0 2 -6 2q0 3 6 9q5 74 5 123v6q2 5 11 5q20 -10 28 -36
q6 0 6 -3v-20q0 -41 -12 -131v-9h6l6 17l-6 6q11 7 33 112q0 3 -5 3l5 14v11l-5 17q5 5 5 8l-5 20q5 29 5 47z" />
    <glyph glyph-name="ordmasculine" unicode="&#xba;" horiz-adv-x="718" 
d="M406 1554h3q41 0 125 -83q55 -157 55 -249q0 -131 -135 -276q-41 -32 -86 -41v3q-11 -7 -21 -7h-7q-7 0 -13 4l-7 -4q-56 0 -197 80q-37 26 -59 207q3 6 3 14q0 3 -3 3q3 26 7 35q0 3 -4 3q0 89 135 207q59 0 97 49q68 55 107 55zM316 1485v-4h4q48 18 76 32q6 -4 13 -4
q0 10 28 10v7l-24 7h-17q-19 0 -80 -48zM354 1475v-4h10q4 0 4 4q71 0 121 -42v7q-23 57 -35 59q-38 0 -96 -24h-4zM171 1226v-14q0 -3 -3 -3q0 -4 3 -4l-3 -34v-66q0 -3 -4 -3q13 -132 55 -132h18q105 39 186 97q53 43 80 79h3q-25 -64 -100 -110q-61 -47 -104 -62v-7h18
q91 0 183 79q18 17 27 73l7 3l-3 7q0 12 3 73q-3 62 -3 83q-6 0 -21 69l-41 69q-42 27 -90 31l-7 -4l-14 4q-70 -11 -97 -31q-93 -77 -93 -197zM109 1198q0 -3 3 -3q-3 -15 -7 -80q0 -32 42 -100h7v4q-7 39 -7 55v66q-15 0 -17 27h3q-10 17 -10 52q0 3 3 3l-3 7q0 42 45 135
q4 0 45 55v4h-4q-41 0 -90 -180q-6 -45 -10 -45zM558 1295q0 -61 -4 -152q-3 -7 -3 -10h7l14 83l-11 79h-3zM309 939v4l-7 -4h-34q8 -17 62 -17h28q52 6 114 66v3h-7l-66 -35z" />
    <glyph glyph-name="guillemotright" unicode="&#xbb;" horiz-adv-x="944" 
d="M441 1275q50 0 102 -138q7 0 72 -126q89 -114 96 -114l18 12q26 -10 54 -36q-18 -86 -36 -108q12 -20 12 -36v-6q-131 -183 -174 -294q-60 -8 -60 -60l-30 -6h-6q-18 6 -18 36v12q0 28 108 186q90 166 90 198q-128 109 -186 252q0 54 -108 144v18q0 9 18 18l30 -6v6
l-6 30zM57 1203q52 0 168 -162l192 -138v-6q0 -9 -18 -18h-6q-31 0 -156 84h-6v-6q173 -112 210 -168v-42q-42 -32 -60 -66v-12q36 30 42 30q36 -19 36 -48q0 -8 -168 -162q-113 -144 -144 -144l-42 -6q-18 30 -18 48v6q147 177 264 372q-120 40 -222 186q-64 135 -120 186
v30q0 10 48 36z" />
    <glyph glyph-name="onequarter" unicode="&#xbc;" horiz-adv-x="1563" 
d="M1195 1435q36 -4 36 -18q0 -6 -6 -6l6 -12v-12q-111 -129 -277 -398q-25 0 -30 -48q-183 -282 -332 -652q-60 -222 -84 -241q12 -2 12 -12l-12 -6h-6q-14 0 -18 42q0 119 168 495l-12 6q-126 -228 -217 -501q-10 -72 -36 -72q-25 8 -36 30q95 328 223 609
q171 322 326 639q50 67 60 67q30 -9 30 -43q-160 -280 -259 -482q-12 0 -91 -175q38 49 127 199l416 585zM356 1421h12q26 0 35 -65q-14 -107 -18 -107q0 -6 6 -6q0 -13 -6 -23q-6 -410 -17 -634h-6l6 -12l-6 -30q0 -6 6 -6q-11 -82 -24 -82q-6 11 -6 17h-12q0 -35 -18 -35
h-17q-36 16 -36 23v415q0 6 6 6l-6 12v59l6 36q0 6 -6 6q0 6 6 17q6 156 6 261v12q2 12 12 12q21 -22 29 -77q6 0 6 -6v-42q0 -87 -12 -278v-18h6l6 36l-6 11q12 15 36 237q0 6 -6 6l6 30v24l-6 35q6 12 6 18l-6 41q6 62 6 101zM1121 916q21 -8 21 -16l-5 -37q21 0 21 -21
l-122 -207q-125 -190 -164 -286q-8 0 -26 -37h5q17 11 32 11h16q5 0 5 -5l10 5q22 -11 138 -21q101 0 101 53q26 321 26 460q19 59 32 59q16 0 16 -59q-5 0 -5 -5q37 0 37 -169q0 -16 5 -16l-5 -27v-10q0 -130 -16 -212q5 -10 5 -16l37 5h5v-5q-53 -37 -53 -69h6
q161 37 174 37l6 -10q-46 -32 -133 -59q0 6 -5 6l-58 -32l-48 -233h-16q-10 0 -10 11v10q0 5 5 5l-5 11q16 73 16 101v5h-6q-12 -90 -26 -90q-11 0 -11 11v37q0 12 6 21l-6 10q6 44 11 53q-5 10 -5 22q5 10 5 15l-11 6h-16q-103 0 -206 53q-81 -32 -85 -32q-21 11 -21 26
q104 248 286 572q0 27 10 27l-5 10q16 32 32 32zM1206 482v-32h5v32h-5zM1200 445v-5l-5 -85v-16h5l11 106h-11zM1179 233q-10 -56 -10 -69v-5h5q1 26 10 26l-5 11q0 4 5 32v5h-5z" />
    <glyph glyph-name="onehalf" unicode="&#xbd;" horiz-adv-x="1621" 
d="M1021 1440q36 -4 36 -18q0 -6 -6 -6l6 -12v-12q-111 -129 -277 -398q-25 0 -30 -48q-183 -282 -332 -652q-60 -222 -84 -241q12 -2 12 -12l-12 -6h-6q-14 0 -18 42q0 119 168 495l-12 6q-126 -228 -217 -501q-10 -72 -36 -72q-25 8 -36 30q95 328 223 609
q171 322 326 639q50 67 60 67q30 -9 30 -43q-160 -280 -259 -482q-12 0 -91 -175q38 49 127 199l416 585zM1005 946q174 0 222 -176l6 -40q0 -6 -6 -6l6 -30q-23 -169 -47 -169l6 -12q-63 -147 -129 -251v-6h-6l-12 6q0 -43 -70 -100q-35 -37 -35 -40q12 0 12 -6q6 0 6 6
q82 -36 158 -36q93 18 93 36q6 17 35 17h6q24 0 64 -6q32 18 82 24q47 -5 47 -30q0 -29 -94 -29q0 -6 -11 -6q0 6 -6 6q0 -6 -88 -35l-11 6q-51 -29 -182 -29q-58 0 -58 11q-31 -17 -100 -23q-81 10 -81 29v6q0 38 122 216q199 280 199 345v35q0 214 -93 228h-35
q-73 0 -164 -93v-18l6 -11q-31 -30 -53 -30h-12q-8 0 -17 24q12 19 12 35q-9 0 -18 17q0 72 175 123q41 12 71 12zM1081 414l-112 -164q-40 -58 -40 -76h11q106 129 146 234v6h-5zM164 1420h13q30 0 40 -73q-15 -119 -20 -119q0 -6 7 -6q0 -15 -7 -27q-6 -456 -20 -706h-6
l6 -13l-6 -33q0 -7 6 -7q-11 -92 -26 -92q-7 12 -7 19h-13q0 -39 -20 -39h-19q-40 18 -40 26v462q0 7 7 7l-7 13v66l7 40q0 7 -7 7q0 7 7 19q6 174 6 291v13q2 13 13 13q24 -23 33 -86q7 0 7 -6v-46q0 -98 -13 -311v-20h6l7 40l-7 13q14 17 40 264q0 7 -7 7l7 33v26l-7 40
q7 13 7 20l-7 46q7 69 7 112z" />
    <glyph glyph-name="threequarters" unicode="&#xbe;" horiz-adv-x="1563" 
d="M1195 1435q36 -4 36 -18q0 -6 -6 -6l6 -12v-12q-111 -129 -277 -398q-25 0 -30 -48q-183 -282 -332 -652q-60 -222 -84 -241q12 -2 12 -12l-12 -6h-6q-14 0 -18 42q0 119 168 495l-12 6q-126 -228 -217 -501q-10 -72 -36 -72q-25 8 -36 30q95 328 223 609
q171 322 326 639q50 67 60 67q30 -9 30 -43q-160 -280 -259 -482q-12 0 -91 -175q38 49 127 199l416 585zM244 1429h24q109 0 244 -68q49 -60 49 -146q-4 -54 -88 -161q87 -60 117 -166v-24q-29 -34 -88 -132q-61 -63 -107 -63l-5 9h15v15h-5q0 -13 -137 -63
q-57 -15 -92 -15q-99 0 -142 136v20q-21 0 -29 34q5 0 29 20q61 -70 137 -93q66 -24 117 -24l44 4v-4q121 39 121 112v24q0 37 -63 132q0 8 -24 9q-5 0 -5 -4q-73 4 -73 14l-10 -5q-34 12 -34 20l-10 -5q-5 0 -5 5q-70 -29 -78 -29q0 7 -14 14q0 16 43 34l-4 25h4
q12 0 44 -15q56 15 156 29q117 47 117 108l10 4q0 5 -5 5q3 39 10 39q0 124 -195 151q-62 -6 -117 -29q-5 0 -5 5l-24 -5h-5q-26 0 -34 20v5q61 54 117 58zM385 1044l-5 -10l10 -5l5 10zM458 951v-5q39 -69 39 -117q0 -20 -14 -53v-5h4q30 62 30 102q0 32 -59 78zM473 766
q0 -10 -54 -68h5q29 13 59 58v10h-10zM97 717v-5q22 -53 64 -53h58l34 10v4q-52 0 -156 44zM1121 916q21 -8 21 -16l-5 -37q21 0 21 -21l-122 -207q-125 -190 -164 -286q-8 0 -26 -37h5q17 11 32 11h16q5 0 5 -5l10 5q22 -11 138 -21q101 0 101 53q26 321 26 460
q19 59 32 59q16 0 16 -59q-5 0 -5 -5q37 0 37 -169q0 -16 5 -16l-5 -27v-10q0 -130 -16 -212q5 -10 5 -16l37 5h5v-5q-53 -37 -53 -69h6q161 37 174 37l6 -10q-46 -32 -133 -59q0 6 -5 6l-58 -32l-48 -233h-16q-10 0 -10 11v10q0 5 5 5l-5 11q16 73 16 101v5h-6
q-12 -90 -26 -90q-11 0 -11 11v37q0 12 6 21l-6 10q6 44 11 53q-5 10 -5 22q5 10 5 15l-11 6h-16q-103 0 -206 53q-81 -32 -85 -32q-21 11 -21 26q104 248 286 572q0 27 10 27l-5 10q16 32 32 32zM1206 482v-32h5v32h-5zM1200 445v-5l-5 -85v-16h5l11 106h-11zM1179 233
q-10 -56 -10 -69v-5h5q1 26 10 26l-5 11q0 4 5 32v5h-5z" />
    <glyph glyph-name="questiondown" unicode="&#xbf;" horiz-adv-x="681" 
d="M266 -252q-146 0 -223 126l8 15q-45 7 -45 82v89q0 8 7 8l-7 15v7l15 22l-8 38q15 7 23 7q0 8 -8 22q33 260 179 260q40 0 126 75q-37 22 -37 37q22 181 22 201q-7 29 -7 59l7 37q-15 3 -15 15v15q0 11 23 22l37 -22v15l-15 22v15q0 15 15 15h22q89 -49 112 -401
q-52 -96 -52 -134q-36 -97 -127 -97q-208 -44 -208 -149v-7q15 -34 30 -112q0 -7 -8 -7q0 -165 45 -178q196 37 290 74q0 52 37 74h30q30 -10 30 -67v-44q-74 -142 -179 -142v8q-32 -15 -119 -15zM236 365v8q-37 0 -37 7q-44 -15 -44 -30v-22q26 19 81 37zM370 425v7h-22
q-52 -38 -52 -45q74 12 74 38zM408 625q0 11 -23 23q0 -89 -22 -112v-7h22q23 0 23 96zM400 759l-7 45h-8v-45h15zM370 1019q-89 0 -89 52q22 38 22 53h8l15 -8v8q-8 14 -8 22q36 37 82 37q12 0 30 -30q-27 -134 -60 -134z" />
    <glyph glyph-name="Agrave" unicode="&#xc0;" horiz-adv-x="1070" 
d="M205 1608h7q8 0 205 -134q99 -36 99 -92q0 -14 -14 -14h-7q-284 91 -368 191v14q0 19 71 28q0 7 7 7zM304 1311h14q10 0 36 -35v-7l-8 -15q53 0 71 -113q37 -9 283 -495q25 0 64 7q32 -13 35 -28v-7q-20 -42 -49 -42q0 14 -15 14v-14q64 -187 64 -212q-7 -14 -7 -22
q21 0 21 -14v-14l-7 -14q19 0 28 -113v-29q-14 -17 -14 -28l92 -375q-7 -42 -21 -42h-7q-7 0 -50 92q7 0 7 7q-12 0 -56 141q-126 298 -219 545h-7q-219 -64 -255 -64q-90 -304 -134 -304h-14l-15 21q46 89 106 276v14q-52 14 -70 14q-71 -201 -113 -431l-22 -14h-21
q-10 0 -21 21v36q49 223 226 820q36 145 36 212q0 7 -7 21q24 161 35 184zM339 1163q0 -71 -14 -107q57 -11 57 -28v-56q0 -46 -7 -92l7 -36q-7 -126 -21 -191v-42q19 -29 148 -57q9 0 35 22q-84 270 -198 579v8h-7zM318 894q-63 -143 -120 -375l14 -7h21q13 57 29 57
l-7 -36v-28h21l7 49q-36 22 -36 57q71 21 71 78v7h14v-14h7q15 0 15 14q-12 0 -29 28v7l7 43q0 7 -7 7l7 49v64h-14zM339 533v-21q15 0 15 -7q42 9 42 21v7h-57zM686 385v-7q30 -99 42 -99v14q-35 75 -35 92h-7zM721 272v-7h14v-8q0 -7 -7 -7q22 -42 22 -49h7v7
q-16 64 -29 64h-7zM785 116v-7q7 -14 7 -21h7v7q-7 14 -7 21h-7z" />
    <glyph glyph-name="Aacute" unicode="&#xc1;" horiz-adv-x="1119" 
d="M551 1667l21 -36v-14q-151 -153 -264 -179q-19 -36 -101 -36q-14 24 -14 43q48 50 315 215q5 0 43 7zM479 1417q3 -15 15 -15q0 7 7 7q28 -21 28 -35q0 -31 -35 -136q7 -43 21 -43q13 7 29 7q61 -68 143 -265q141 -280 279 -801q-7 -13 -7 -29q14 0 21 -71h-7l7 -15v-35
h-14q-16 0 -57 171q-86 279 -115 344q0 16 -7 28q-36 -9 -36 -21q186 -545 186 -601q-14 -2 -14 -14q14 0 36 -108l-22 -14q-58 48 -129 351q-26 59 -121 372h-7q-61 -15 -365 -50q-100 -190 -100 -222q-38 -53 -50 -115q-41 -107 -72 -107q-29 11 -29 21q-13 -7 -21 -7
q-43 7 -43 22q250 668 351 994l43 136q-15 29 -15 50q18 124 65 158q0 31 35 43zM358 544h7q208 28 286 50q0 19 -150 458q-20 0 -79 -308q-21 -56 -64 -200zM615 944v-21q58 -150 100 -315h43v7q-21 77 -136 329h-7zM365 859l-115 -351h8q30 0 114 329v22h-7zM236 494
q-64 -136 -164 -444h14q48 151 164 415q-7 13 -7 29h-7z" />
    <glyph glyph-name="Acircumflex" unicode="&#xc2;" horiz-adv-x="1012" 
d="M355 1696q94 -71 94 -141l27 -107l-20 -13h-20q-63 68 -81 140q-40 0 -134 -147l-60 -60q-37 0 -54 33v13q215 257 215 275zM282 1388h13q43 0 47 -134q42 73 60 73q34 -11 34 -33l-27 -81q33 -20 141 -301q107 -188 127 -188q54 -1 54 -27v-7q0 -20 -27 -20
q134 -278 134 -315l60 -208q-33 -17 -33 -26q27 -59 27 -67l-7 -41h-20q-35 67 -61 88l-93 214q6 0 6 7q-32 44 -114 275q-8 0 -20 40q-315 -35 -315 -54q0 -9 -20 -20h-33q-14 0 -14 27h-20q-49 -158 -80 -362q-18 -228 -54 -228h-20q-7 0 -27 27l7 33v27q0 137 147 744
q121 253 121 423q-20 36 -20 100q13 31 27 34zM355 1059q-16 -94 -33 -94q6 -13 6 -20q-40 -152 -40 -248l14 7q20 0 20 -7q53 14 127 14h20l81 -7l6 13q-51 153 -174 315q-13 17 -13 27h-14z" />
    <glyph glyph-name="Atilde" unicode="&#xc3;" horiz-adv-x="960" 
d="M323 1693q7 0 7 -7l14 7h28q83 0 103 -124v-34l-7 -14q7 0 21 -7q90 41 124 41l6 -13v-14q0 -18 -110 -90q0 -29 -62 -34q-34 14 -34 21l-34 -7q-111 0 -111 158l-213 -186h-27q-28 11 -28 48l21 28l-7 34q142 172 206 172h7v-7l14 7l14 -7q50 13 68 28zM330 1617
q27 -120 42 -130h20q10 0 21 20v14q-4 117 -41 117zM385 1356h7q11 0 28 -28v-20l-7 -49q60 0 110 -309q28 -104 145 -399q158 -350 158 -386v-14q-10 0 -21 -20q21 -47 21 -76v-14q0 -10 -21 -20h-7q-24 16 -117 268q-85 201 -96 213q-55 7 -55 14l-14 -7q-12 0 -124 7
l-110 -7q-27 -165 -76 -165q-34 -97 -75 -323l-28 -21h-20q-10 0 -21 21v27q96 496 213 874q48 245 48 269q-20 30 -20 48q1 20 41 34q20 83 41 83zM406 963q0 -26 -96 -371l13 -7h166q15 0 27 7q12 -7 28 -7q0 7 7 7q-47 166 -131 371h-14z" />
    <glyph glyph-name="Adieresis" unicode="&#xc4;" horiz-adv-x="1125" 
d="M155 1693h15q67 0 67 -104q-18 -61 -52 -88q-26 0 -81 44q-49 0 -67 44zM554 1693h30q15 -3 30 -37l-8 -15q15 -48 15 -66q-78 -67 -96 -67q-66 49 -96 52l-8 37v7q0 8 133 89zM333 1279q91 0 170 -140q125 -198 258 -555q58 -24 74 -52v-14l-22 -30v-44
q80 -158 104 -355q15 0 15 -37v-30q0 -10 -23 -22h-7q-65 0 -104 140q-120 347 -140 348l-377 30q-26 0 -126 -407q-16 -111 -59 -111h-7l-15 22v30q2 37 15 37q-8 13 -8 29h-7q0 -44 -52 -44q-10 0 -22 22l96 422l-7 51q31 0 88 326l30 73l-7 15q66 249 81 281q22 15 52 15
zM281 968q59 71 59 97q-11 29 -22 29q-22 0 -37 -126zM451 1087q0 -8 -7 -22l96 -156h7v8q-73 155 -96 170zM303 591l37 -7q7 0 7 7l37 -7h207q8 0 8 -7q13 7 29 7q-27 113 -207 377q-25 0 -118 -370zM192 606l37 -7q82 260 82 281q-37 -24 -119 -274zM104 229q13 6 96 281
l-15 8q-21 -1 -81 -289zM89 177q-8 -38 -8 -44v-7h8q0 5 7 44v7h-7z" />
    <glyph glyph-name="Aring" unicode="&#xc5;" horiz-adv-x="1267" 
d="M417 1702q79 0 191 -134q14 0 14 -36v-14q0 -79 -226 -113h-36q-95 0 -127 99v57q76 134 170 134q0 7 14 7zM318 1532q49 -47 92 -56l42 14l28 -14q0 10 78 35l7 14q0 69 -106 99q-13 -13 -113 -56q-28 -32 -28 -36zM360 1398q43 -4 43 -21v-49q-27 -78 -43 -78
q7 -14 7 -21l-7 -14v-8h7q0 22 15 22h21q35 -21 35 -43q-49 -77 -170 -579q14 7 22 7q73 0 141 14v-7l226 35v7q0 17 -191 495q-28 119 -28 162l14 8h21q21 0 57 -149q20 0 71 -120q89 -129 211 -389q54 15 99 15h15q14 -3 14 -15v-7q0 -23 -99 -35v-14q0 -32 233 -565
q-7 0 -7 -7q25 0 78 -163q0 -10 -22 -21h-14q-26 29 -183 389l-29 -22h-14q-21 5 -56 85v14h14q9 -49 28 -49h7q0 59 -120 261v14h-7v-14h-7l-57 57q-133 -28 -452 -57q-164 -495 -198 -544h-7q0 14 -28 14q0 53 49 234l-14 -8h-14l-21 15q21 130 78 310q-14 0 -14 15v14
q45 23 176 501v7q-7 0 -21 7q0 27 134 297h7zM339 1158v-7h7l7 28q-14 0 -14 -21zM318 1101l-14 -49v-7h7q0 4 14 49v7h-7zM240 784q-56 -144 -56 -163h7q19 0 56 155v8h-7zM92 360h14q64 174 64 190h-8q-21 0 -70 -190z" />
    <glyph glyph-name="AE" unicode="&#xc6;" horiz-adv-x="1406" 
d="M639 1432h8l24 -16q-16 -83 -16 -113l16 -9q0 12 25 25l-8 16q11 57 32 57q40 0 40 -57h73q8 0 8 -8q202 40 251 40l16 -8l8 16q162 -6 162 -81v-8q-38 -48 -89 -48v8h-8q0 -49 -81 -49l-16 8q-79 -24 -146 -24q-80 0 -186 41q-16 -242 -16 -332v-251q27 16 49 16h8
q18 0 32 -8l267 65h16l81 -8v-16q-152 -105 -218 -105q-8 0 -24 -33q-43 8 -162 16q0 -14 -49 -48v-97q0 -27 -8 -41l8 -48v-146l8 -40h8q175 48 356 48h8q19 0 33 8l16 -8l49 8q72 -8 72 -32v-8q-62 -81 -72 -81l-178 -40v8l-73 -17q-22 7 -97 17q-12 -8 -89 -17
q-16 9 -25 9q-8 -65 -16 -65l8 -41v-40q0 -18 -8 -32q8 -15 8 -33q0 -8 -8 -8q0 -8 8 -8q-6 -89 -24 -89h-16q-16 82 -41 307q-32 0 -32 25v24l32 32q-22 405 -40 405q-5 0 -105 -8v8q-14 -8 -97 -16v8q-69 0 -89 -130q-25 -117 -97 -267l8 -16q-39 -129 -57 -129h-8
q-20 0 -24 32q0 33 145 558q-22 -17 -170 -404l-72 -259h-8q-49 0 -49 32q49 197 81 243q0 54 97 259q235 604 315 776v33l-24 32v8q21 40 33 41h16q22 0 48 -16q0 8 8 8l-8 16v8q60 97 73 97zM1019 1294v-16q57 -2 57 -16l57 8h48l24 -16h9l8 40l-25 17h-56
q-117 -17 -122 -17zM405 623v-16q68 0 218 -8q0 8 8 8q-24 173 -40 509l8 17q-8 12 -8 48q-27 0 -170 -509q-16 -27 -16 -49z" />
    <glyph glyph-name="Ccedilla" unicode="&#xc7;" horiz-adv-x="1200" 
d="M634 1432l18 -9l19 9q269 -64 294 -92l9 -18q-48 -9 -55 -9q-18 9 -28 9q0 -19 -312 -65q-331 -125 -331 -266v-147q0 -21 9 -37l-9 -18q0 -10 9 -28l-18 -129q9 -17 9 -27h-9q45 -322 165 -322q0 -22 111 -46q286 60 450 166q101 -9 101 -83q-22 -31 -156 -110
q-128 -83 -285 -83q-9 -25 -110 -73v-19q13 -26 183 -83l-9 -18v-9h9v18h46q19 -3 19 -18v-9l-46 -10q0 10 -9 10l-10 -19q-89 9 -238 65q-10 -18 -10 -28q0 -20 101 -55q74 -49 74 -129l-9 -18q0 -9 9 -9q0 -129 -55 -129h-19q-46 28 -46 64h10l-10 19q0 8 19 92
q0 38 -156 101q-28 35 -28 82l28 65q-368 245 -368 597q0 410 184 561q55 92 92 110q0 80 358 147zM147 862q-28 -86 -28 -128q26 -92 46 -92q0 18 10 18l-10 46v156h-18zM101 522v-27q0 -146 202 -340q77 -74 120 -74l37 46v18h-10q-179 0 -229 175q-111 186 -111 202h-9z
" />
    <glyph glyph-name="Egrave" unicode="&#xc8;" horiz-adv-x="1151" 
d="M347 1702h16q57 -16 64 -16h105q8 0 8 -8l16 8h48q17 -3 17 -16v-41q80 -54 80 -128l-48 -33q-69 18 -266 153q-32 0 -57 41v24q3 16 17 16zM604 1355q16 -8 25 -8q16 0 16 8q354 -15 354 -80q0 -8 -8 -8q-16 0 -16 -8l-89 16q-14 -8 -32 -8q-32 16 -56 16v-8
q0 -12 185 -48l8 -17q-29 -24 -56 -24h-49q-8 0 -8 8q-8 0 -8 -8q-80 8 -121 8h-40q-46 -80 -129 -80q0 8 -8 8q0 -16 -16 -16q-137 0 -290 48l-89 56q0 49 -80 49q-24 29 -24 56q0 12 24 24h24q46 0 56 -8q107 16 323 16h72q18 0 32 8zM24 1299h24q25 0 41 -113
q64 0 64 -32q32 -483 48 -483q33 -2 33 -17q8 0 8 8l56 -8h65l48 8q16 -8 24 -8l16 8q57 -5 57 -16l16 8q101 -16 209 -24q32 8 65 8l8 -16v-8q0 -21 -137 -48l-81 8h-64q-29 0 -73 -8q-24 8 -24 16q-8 0 -8 -8l-40 8l-16 -8l-16 8q-16 -8 -25 -8v8q-129 -21 -129 -81v-64
q0 -8 -8 -8l8 -16q0 -8 -8 -8l25 -105l-9 -16l17 -49q-8 -55 -8 -88v-8l8 -41q125 33 225 41q16 0 16 -8l81 8h161l57 8v-8l16 8h16q66 0 233 24l8 -16v-8q0 -47 -386 -97q-444 -55 -444 -89q0 -48 -24 -48h-8q-56 33 -56 97l8 40l-8 40q0 8 8 8l-8 41v80q-35 0 -65 65l8 56
v8q0 33 17 387v129q0 110 -73 395q6 40 24 40zM274 1210v-16q64 -2 64 -16q9 0 9 8q137 -16 217 -16q12 0 121 24v16q-118 10 -177 25q-8 0 -8 -8q-9 0 -25 8q-125 -8 -201 -25z" />
    <glyph glyph-name="Eacute" unicode="&#xc9;" horiz-adv-x="1174" 
d="M582 1708q18 0 31 -54q31 0 47 -31v-16q0 -61 -272 -194q-93 18 -93 78q115 57 217 170q0 35 70 47zM598 1335l15 -7l16 7q8 0 8 -7l38 7h218q93 -1 93 -15l16 8q38 -10 38 -24v-31q-54 -62 -108 -62h-8q-18 0 -31 8q-14 -8 -31 -8h-24q-7 0 -7 8l-16 -8h-46q-24 0 -24 8
l-39 -8h-77l-39 8q0 -16 -15 -16h-24q-8 0 -8 8l-38 -15l-16 7l-147 -23v8q-41 -16 -163 -16h-8q-16 -2 -16 -15v-24q22 -46 55 -46q11 0 23 -23v-55q0 -7 -8 -7l8 -16v-70q8 -256 46 -256q39 0 39 -8l16 8h31q100 0 217 -8q31 8 55 8v-8l15 8q8 0 8 -8q98 16 140 16l23 -31
v-8q0 -16 -54 -31v8q-69 -24 -381 -47l-31 8q-51 -8 -101 -8v-8q-15 -276 -15 -341v-31q2 -16 15 -16q80 8 124 8q8 0 8 -8q12 8 101 16v-8l16 8h15q8 0 8 -8l15 8h327q54 -3 54 -16l15 8h16q15 -3 15 -16l16 8q42 0 54 -31l-31 -23h-15q-16 0 -16 15l-15 -8h-8q-8 0 -8 8
l-15 -8h-31q-18 0 -31 8q-16 -8 -24 -8l-46 8q-226 -46 -241 -46v-16l70 -8l15 8l16 -8l78 8v-8l15 8h23v-15q-153 -31 -194 -31v7q-7 0 -7 -7q-161 15 -303 15l-187 -31q-55 0 -85 85v8q0 16 47 31v55q0 183 46 388l-8 15q16 73 16 117v85q0 251 -16 342q8 13 8 31
q-71 30 -85 62v15q0 60 590 101zM163 93v-15h16q15 0 15 15h-31z" />
    <glyph glyph-name="Ecircumflex" unicode="&#xca;" horiz-adv-x="1258" 
d="M642 1696h7q107 -15 107 -99q0 -17 138 -115l7 -46l-30 -23q-64 0 -214 161q-14 0 -267 -184l-23 -15q-69 10 -69 69q144 162 313 237q12 0 31 15zM1100 1337l15 -23v-15q0 -54 -435 -92q-8 0 -8 8q-314 -38 -397 -54q8 -351 31 -351q17 0 30 -8l15 8q16 0 16 -8l53 8h69
q17 0 30 -8q90 10 123 15l15 -7q15 0 15 7l54 -7h229q8 0 8 -8l15 8h8q17 0 30 -8q15 8 23 8q31 -34 31 -38v-8q0 -18 -62 -31l-53 8h-84q-17 0 -31 -8q-13 8 -30 8l-31 -8v8l-15 -8h-38q-420 -28 -420 -61q-10 -48 -23 -84q0 -7 7 -7q-30 -219 -30 -245l7 -15l-7 -15l7 -46
v-16q16 0 16 -7q17 7 99 15q290 -23 466 -53h31q68 -37 68 -46v-8q0 -15 -15 -15h-15l-46 8q-28 -16 -275 -62v8l-206 -31q-8 0 -8 8q-72 -9 -92 -15l-15 7l-46 -7h-23q0 -34 -38 -46q-64 59 -99 61q-55 0 -69 38q12 31 53 31h85q61 273 61 321q-46 86 -46 99v38
q15 130 15 145q-10 0 -38 39v7q53 42 53 61q8 53 8 84q-15 78 -15 92q0 13 15 46q0 107 -76 107q-62 50 -62 84l31 23q138 -18 138 -23q13 8 76 15q57 -15 69 -15l15 8q8 0 8 -8q104 15 160 15v-7q53 15 336 38q73 23 214 38zM237 153v-15q30 0 30 -8q264 8 329 30v8
q-167 15 -252 15q-68 -10 -107 -30z" />
    <glyph glyph-name="Edieresis" unicode="&#xcb;" horiz-adv-x="1151" 
d="M745 1702h8q55 -28 55 -78v-16q-18 -59 -126 -110h-55q-47 33 -47 71q73 133 165 133zM227 1663h16q98 0 157 -55q0 -81 -118 -94q-44 0 -94 78q20 71 39 71zM557 1388v-8l16 8q7 0 7 -8l40 8h125q235 0 235 -62q0 -55 -78 -55h-8q-18 0 -31 7q-15 -7 -24 -7q-7 0 -63 7
q-8 0 -23 -7q-164 12 -180 23q-8 0 -8 -8l-39 8q-24 0 -24 -8l-39 8h-63q-18 0 -31 -8l-16 8q-180 -16 -180 -39q39 -162 47 -243q-8 -20 -16 -267q39 -16 39 -23l16 7h16q277 0 298 -31q0 -31 -95 -31v8l-15 -8h-16q-18 0 -31 8q-14 -8 -32 -8h-8q-7 0 -7 8l-126 -32
q-14 8 -31 8h-8v-94q0 -68 -47 -337q0 -15 16 -87q100 32 407 55l40 -15q2 15 15 15h63q21 0 47 -15l16 7l15 -7l16 7q32 0 32 -47h54l79 8l16 -23q0 -16 -55 -24l-16 8q-14 -8 -31 -8l-16 8q-23 -16 -196 -78h-141q-8 0 -8 7q-8 0 -8 -7q-43 7 -63 7q-55 0 -212 -7l-15 7
q-14 -7 -32 -7h-62q-8 0 -8 7q-11 0 -55 -31h-24l-31 24q0 94 63 94h23v70q0 18 8 32q0 7 -8 7q24 93 24 212v16h-8q0 -25 -39 -47h-16q-28 15 -39 47q86 227 86 274q28 9 39 149q-23 63 -55 369q-7 1 -39 86l39 32h134q17 0 31 8q8 0 8 -8q91 15 220 15h31zM447 110v-8h31
v8h-31z" />
    <glyph glyph-name="Igrave" unicode="&#xcc;" horiz-adv-x="481" 
d="M14 1702q41 0 86 -78q92 -36 92 -50v-14l-14 -22l142 -99l15 -29q0 -19 -36 -36q-299 162 -299 292v29zM107 1310h14q16 0 36 -135l14 -7l-7 -50q50 -224 50 -370h7v334q33 221 71 221q50 0 50 -114q-14 -53 -14 -64q0 -7 7 -21q-29 -226 -29 -577q-7 -21 -14 -21l7 -36
v-28q0 -22 -7 -22l7 -35v-43q0 -76 -36 -100q0 -7 8 -7q-5 -64 -15 -64l7 -14v-22q0 -92 -49 -135h-43q-29 10 -29 64v86q0 16 8 28q0 7 -8 7l8 36v142q0 7 7 7l-7 15q0 7 7 21l-7 36l7 85q0 7 -7 7l7 36v35l-7 50h7l-7 14q0 266 -79 599q10 29 36 42zM221 570v-72h7v72h-7z
M221 477q0 -114 -7 -114l7 -14q-7 -71 -7 -107v-71h7q7 129 7 171v135h-7z" />
    <glyph glyph-name="Iacute" unicode="&#xcd;" horiz-adv-x="597" 
d="M363 1705q34 -14 37 -30v-7q0 -30 -44 -67v-7h15q28 22 66 22q16 -3 30 -37q-27 -57 -67 -82h-22q-15 0 -15 15l8 37q-13 0 -260 -178q-54 -44 -67 -44q-22 0 -44 44q0 15 185 164zM267 1238h22l30 -22q-22 -165 -22 -438v-163q0 -16 7 -29q0 -8 -7 -8l14 -422l-22 -15
q-33 0 -52 215h8q0 7 -8 7q-7 160 -7 237v149h-8l-7 -74v-52q0 -17 -7 -30q0 -7 7 -7l-7 -37v-134l-8 -44q8 -15 8 -23l-8 -14l8 -15q-8 -37 -15 -37l7 -37v-97q0 -26 -7 -66q7 -10 7 -52v-8q-7 -22 -44 -22q-6 0 -23 22l8 37v37q0 31 -8 82q8 14 8 22q-8 30 -8 52l8 15
q-8 14 -8 22l8 15q-8 13 -8 30q0 7 8 7q0 7 -8 7q0 15 8 15q-22 254 -22 667v15q0 171 37 171h22l22 -15l-15 -148q8 -15 8 -23h7q42 208 67 208z" />
    <glyph glyph-name="Icircumflex" unicode="&#xce;" horiz-adv-x="657" 
d="M340 1699q75 -128 118 -229q19 0 89 -81v-22q-9 -60 -45 -60t-96 141l-111 125q-14 -2 -14 -14l14 -23v-14q-44 -59 -73 -59q0 12 -45 29q-117 -148 -140 -148q-34 15 -37 30v15q193 248 207 251h22l15 -7q0 10 51 36q0 30 45 30zM318 1285h14l30 -29q-15 -187 -15 -377
h-7l7 -15q-13 -23 -29 -229q-25 0 -30 -288v-29q0 -8 -7 -8l7 -15v-7q-17 -21 -37 -96q8 -164 8 -177l-23 -15h-7q-19 0 -30 66q-7 312 -7 355l-7 15q7 13 7 29q-7 15 -7 23h7l-7 14v59q0 43 -8 119q0 7 8 7l-8 30q-7 450 -51 450v59q0 11 22 22h7q57 0 67 -96h-8
q22 -44 22 -140v-44q0 -17 8 -30q0 -7 -8 -7l8 -37v-96h7q37 353 37 428v8q0 39 30 51z" />
    <glyph glyph-name="Idieresis" unicode="&#xcf;" horiz-adv-x="763" 
d="M552 1705h25q82 -38 82 -99q-41 -16 -41 -90q-28 -58 -99 -58h-8q-74 45 -74 107v8q0 76 82 124l16 -8q3 16 17 16zM107 1680q115 -47 115 -82q0 -13 -33 -33l9 -41v-8q-4 -17 -42 -33q-133 0 -156 98v9q48 90 107 90zM511 1565v-25h8q16 0 16 17l-16 8h-8zM247 1227
l41 -24l-16 -223l16 -8q33 247 83 247q66 -30 66 -107v-25l-9 -49q9 -16 9 -25h-9q0 -8 9 -8q-17 -239 -25 -239q0 -8 8 -8q0 -19 -16 -124l8 -16q-20 -165 -25 -165q0 -8 8 -8q0 -21 -24 -346v-66q0 -12 -25 -25h-8q-33 0 -33 116v32q0 46 8 116q0 8 -8 8l8 41q0 76 8 214
v25h-8q-15 -141 -49 -173v-99l-9 -49q0 -8 9 -8l-9 -58v-58q0 -18 9 -33q-9 -14 -9 -33v-33q-20 0 -41 -16q-25 8 -25 49v338q0 67 9 157l-9 16q9 91 17 91q-7 33 -17 33l9 57v149q0 337 49 337zM338 881q0 -47 -9 -57h17v57h-8zM329 799q0 -41 -8 -41q0 -8 8 -8
q-8 -59 -8 -66v-33h8q7 107 17 107q-8 13 -8 41h-9zM321 634v-33h8v33h-8z" />
    <glyph glyph-name="Eth" unicode="&#xd0;" horiz-adv-x="1212" 
d="M391 1435l62 -69q68 31 146 31h23q285 0 429 -399q23 -57 31 -315q-5 -84 -138 -338q-160 -270 -361 -330q-25 0 -38 -7l-46 7h-31q-19 0 -69 -15q-36 38 -92 38q-191 176 -238 192q-8 15 -8 23q13 39 46 39l139 -46q0 7 7 7q-10 164 -15 169l8 15q0 8 -8 8q0 15 8 15
q0 215 -39 215q-84 0 -107 31h-16l-53 -8l-31 31v23q0 37 153 54q0 18 70 23q-8 265 -8 383v39l-8 46q15 35 31 38h31l38 -30q0 98 84 130zM376 1335q0 -10 -31 -100q0 -7 8 -7q-15 -83 -15 -177v-207l7 -38q13 7 39 7q7 104 7 154v176q0 65 -7 192h-8zM453 1274l7 -39v-145
l-7 -16q15 -2 15 -15v-153l-8 -93q139 -20 139 -53q0 -69 -139 -69q-15 -128 -15 -200h-8q0 -8 8 -8q-8 -126 -8 -191v-77q26 0 39 -8l15 8q62 -5 62 -15q116 0 391 360q20 0 46 161h8q0 68 -116 269q-105 330 -306 330h-16q-46 0 -107 -46zM882 1159v-8q47 -117 93 -176v7
q-34 109 -93 177zM353 675q0 -26 15 -130h8v100l8 38l-16 8q-15 -3 -15 -16zM422 107q12 -30 23 -30h54q17 0 30 7l31 -15q0 18 115 77v7h-23q0 -30 -53 -30q-99 23 -131 53h-23q-15 0 -23 -69z" />
    <glyph glyph-name="Ntilde" unicode="&#xd1;" horiz-adv-x="1009" 
d="M300 1708h40q117 0 166 -245l16 -8l134 71q26 16 40 16q0 -8 8 -8q2 16 16 16q15 -3 15 -16v-16q-81 -94 -213 -142q-100 0 -127 150q0 65 -47 103h-48q-83 -66 -126 -190l-16 -8h-24q-28 0 -63 32q10 198 48 198q23 -24 23 -56h24q67 103 134 103zM16 1360
q89 -18 150 -95q95 -261 158 -261q127 -113 293 -569q87 -184 87 -214h8l15 95l-7 40l39 522q0 8 -8 8q8 79 16 79l-8 16l8 31q0 8 -8 8l8 55v64q24 29 24 55v63q0 12 23 24h24l32 -24q-26 -376 -40 -403q0 -8 8 -8q-47 -544 -47 -640v-16q0 -40 16 -95q-6 -95 -24 -95h-16
q-55 0 -87 119q-49 0 -198 261q-340 688 -340 703q16 0 16 16q0 61 -47 111l-8 -79v-56q0 -32 8 -63q-16 -125 -16 -427v-39q0 -8 -8 -8l8 -16v-111q0 -8 -8 -8q8 -16 16 -87q-7 0 -40 -63l8 -79v-158q0 -16 -16 -16h-15q-16 0 -24 71h8q-16 43 -16 111l8 16q-8 14 -8 31v24
q0 8 8 8q0 8 -8 8q16 204 16 680q0 26 8 39l-8 48v150q0 37 -24 166zM308 925v-8q60 -177 253 -553h8v8q-161 447 -261 553z" />
    <glyph glyph-name="Ograve" unicode="&#xd2;" horiz-adv-x="1415" 
d="M438 1705q78 -8 199 -127q48 -28 48 -72v-24q0 -16 -16 -16h-24q-105 114 -223 143q-32 28 -32 64v8q8 24 48 24zM645 1291q351 -74 351 -136q203 -120 263 -350q0 -38 16 -56q0 -8 -8 -8q16 -29 16 -64v-16q0 -327 -176 -510q-18 0 -127 -87q-52 -24 -175 -56q-8 0 -8 8
l-56 -8h-64l-16 -8l-8 16l-16 -8h-8q-8 0 -8 8q-8 0 -8 -8q-47 6 -47 16l-16 -8q-228 56 -391 223q-159 167 -159 367q0 284 239 573q229 112 374 112h32zM693 1211h-32q-265 0 -486 -287q-87 -179 -87 -311q0 -255 438 -350q68 -24 207 -24h48q166 24 255 120q21 51 40 55
q0 8 -8 8q16 56 16 96v24q-60 597 -184 597q-8 24 -47 24q-56 -10 -120 -56h-40q0 -21 -72 -79l-15 8q0 -13 -32 -32l-16 8q59 114 183 175l8 16v8q-40 0 -40 8zM1060 1028l-8 -16q24 -45 63 -231q-8 0 -8 -8q26 0 40 -215v-80q-59 -303 -454 -303q-48 8 -48 16l-16 -8
q-176 0 -454 160h-8q64 -115 247 -192q0 -24 231 -63q40 0 40 -8q287 0 446 215q8 32 40 64l-8 15q48 129 56 247q0 230 -135 391z" />
    <glyph glyph-name="Oacute" unicode="&#xd3;" horiz-adv-x="1348" 
d="M719 1696q20 0 40 -65q-16 0 -178 -161q-20 0 -145 -97q-56 8 -56 48v25q-13 0 -33 32q69 29 178 105q96 55 170 113h24zM565 1236q81 0 105 -57h33q229 0 436 -242q70 -145 89 -242v-9q0 -8 -8 -8l8 -16q0 -286 -315 -573q-140 -89 -251 -89h-40q-8 0 -8 8q-8 0 -8 -8
q-282 44 -420 145q0 19 -57 65q-129 160 -129 355v16q0 245 178 404q236 211 379 243q8 0 8 8zM525 1074q0 -12 16 -73l121 25l8 -16q-97 -60 -97 -73v-16q49 -58 49 -89h-8q-50 50 -57 89h-24q-97 0 -226 -178h-16q-24 49 -24 65q62 116 201 177q37 0 49 8q-13 49 -24 49
q-356 -172 -356 -452v-65q0 -192 194 -242q152 -33 250 -33h33l97 8q0 -8 8 -8q0 15 186 41q185 36 185 129q11 0 65 113q0 8 -8 8q16 74 24 154q-13 0 -40 129q-144 250 -267 250q-32 20 -32 24l-16 -8q-53 25 -154 25q-137 -11 -137 -41zM961 791q16 -2 16 -16v-16
q-16 0 -16 16v16zM1001 719q17 -3 17 -16v-8h-17v24zM678 186h-185q-73 0 -138 24v-24q139 -57 315 -57q242 0 291 89q16 0 16 40v9q-130 -54 -299 -81z" />
    <glyph glyph-name="Ocircumflex" unicode="&#xd4;" horiz-adv-x="1614" 
d="M716 1699q122 -61 342 -366v-17q-34 -17 -50 -17q-112 75 -242 250q-101 -133 -116 -133q-42 -67 -92 -67q-15 9 -33 9q-66 -109 -109 -109q-41 20 -41 42l275 350q0 50 66 58zM725 1224q14 0 50 -16q108 8 174 8h25q165 0 350 -175q0 -14 42 -67q83 -145 83 -233v-33
q-10 -121 -158 -275q0 8 -8 8q0 -71 -275 -241q-131 -67 -308 -100q0 8 -9 8q0 -16 -16 -16h-25q-40 0 -84 -9q-219 0 -358 250q-25 119 -25 142q6 151 125 466q8 0 8 8v17q-8 0 -58 -42h-8v17h-8q0 -33 -84 -125q-41 -64 -83 -200q0 -8 8 -8q-8 -108 -16 -108q0 -9 8 -9
l-8 -58l8 -33l-8 -17q27 -165 116 -258q134 -83 275 -83l183 16v-8q0 -22 -125 -33q0 8 -8 8q0 -17 -92 -25q-16 8 -25 8q-6 0 -50 -8l-158 58q-183 126 -183 450q0 506 566 641q6 17 109 59q0 -9 8 -9q0 19 42 25zM850 1083h-25q-50 31 -50 41q-202 -53 -267 -141
q-183 -192 -183 -367q0 -90 83 -208q177 -158 342 -158h41q221 0 367 166q116 188 116 334l-16 91h8q-76 233 -158 233q-15 28 -150 59q-9 0 -9 -9l-41 9h-25zM1249 1024l67 -183q0 -8 -8 -8q6 -18 16 -92h-8q0 -8 8 -8l-25 -192q59 47 92 200v75q-28 78 -125 208h-17z
M283 466v-25q0 -189 167 -249q46 -15 133 -25q15 8 33 8h34v8q0 11 -167 75q-184 152 -192 208h-8z" />
    <glyph glyph-name="Otilde" unicode="&#xd5;" horiz-adv-x="1583" 
d="M457 1700l46 -9q36 9 64 9q78 0 137 -137q27 -64 55 -64q90 0 192 128h9q18 -3 18 -18v-28q0 -110 -137 -155q0 -18 -92 -18h-18q-138 0 -228 173h-9q-45 -31 -128 -146h-28q-27 0 -82 37q113 202 201 228zM731 1234q9 0 9 -9l46 9h91q203 -43 247 -101
q217 -211 293 -457q18 -52 18 -118q0 -236 -174 -320q-27 -59 -356 -165q-105 -46 -274 -73q-9 0 -9 9l-64 -9h-37q-409 0 -512 439q0 74 -9 119q84 385 274 566q103 84 238 101q14 -9 119 -19q59 10 100 28zM749 1115v-18q46 -127 46 -137l-18 -9q-8 0 -119 146
q-128 0 -292 -183q-119 -151 -119 -384v-55q83 -246 237 -246l10 -19l45 9q19 -2 19 -18q9 0 9 9q146 -12 164 -18q194 37 375 110q207 133 219 219h19v-9q0 -85 -156 -220v-9h18q128 88 156 174q14 0 27 91l-18 92q9 0 9 9l-82 155q-145 311 -421 311h-128zM101 494
q61 -403 356 -403h37q9 0 9 -9l18 9h27q10 0 10 -9q44 19 109 19v9l-9 18q-10 0 -27 -9q-51 9 -73 9l-46 -9q-127 0 -302 183q-78 115 -91 210q-18 -3 -18 -18zM676 119v-18h10q18 0 18 18h-28z" />
    <glyph glyph-name="Odieresis" unicode="&#xd6;" horiz-adv-x="1345" 
d="M435 1705q46 0 96 -61v-52q-108 -122 -174 -122h-9q-12 1 -35 44q0 94 122 191zM861 1644q87 -55 87 -96q-27 -62 -148 -130q-53 0 -95 61v69q36 96 139 96h17zM531 1183h26q113 -18 113 -87h26q330 -49 330 -122q157 -168 157 -339q15 0 26 -113q0 -9 -9 -9l9 -43v-9
q0 -17 -17 -17l8 -18q-20 -119 -104 -200q-86 -100 -391 -191q-84 -35 -166 -35h-43q-9 0 -9 9l-17 -9q-256 44 -357 157q-87 121 -96 208h9q-15 29 -26 105q61 327 174 461q187 235 261 235q34 17 96 17zM461 1087v-8h61v17q-35 -9 -61 -9zM191 496q119 -305 392 -305l17 9
l35 -9q8 0 157 35l8 -17l-156 -70q-8 0 -70 9q-17 -9 -26 -9v9q-17 -9 -26 -9q-159 0 -313 183h-9v-9q75 -209 261 -209q4 0 35 9v-9l17 9h18q8 0 8 -9q317 53 418 122q17 -9 26 -9l-9 18q157 88 157 296q0 200 -139 391h-18v-52h-8q-145 139 -253 139h-34q-289 0 -383 -200
q-81 -121 -105 -313z" />
    <glyph glyph-name="multiply" unicode="&#xd7;" horiz-adv-x="960" 
d="M138 1227h6q49 0 138 -216q79 -126 84 -126q350 330 402 330l12 -18v-6q0 -38 -120 -132q-24 -20 -114 -132q-102 -104 -102 -150q14 0 132 -120q208 -136 234 -186v-12l-6 -12l-270 174v-6q41 -65 90 -114q0 -15 114 -162v-24q0 -18 -24 -18q-52 0 -264 312
q-53 93 -66 96h-12q-198 -306 -264 -438l-30 -6q-8 0 -30 30q88 173 270 438v6h-12q-16 -36 -108 -150q0 -11 -66 -114q0 -27 -42 -42q-78 6 -78 24q74 49 162 198q85 109 132 162v6q0 27 -144 210l-24 18q-12 -6 -18 -6q-42 33 -42 66v18q48 25 48 36l-12 24q8 42 24 42z
" />
    <glyph glyph-name="Oslash" unicode="&#xd8;" horiz-adv-x="1731" 
d="M1569 1499h18q17 -3 17 -17v-9q-61 -149 -61 -166l18 -27v-8q-9 -94 -158 -263v-9q131 -179 131 -376h-8l8 -17v-88q-38 -175 -166 -280q-157 -123 -402 -192q-151 -35 -245 -35h-88q-26 0 -201 26q-25 -16 -254 -332q-56 -59 -113 -70q-40 17 -44 35v17q16 92 271 403
v17q-175 92 -175 315q0 210 210 542q154 167 420 167q0 8 96 35v-9q67 17 167 17l17 -8q9 0 9 8q103 -17 201 -52h9q195 195 306 367zM808 1079v-9q0 -14 62 -26q17 9 26 9q41 0 245 -61l44 61v17q-130 35 -175 35h-9q-114 0 -193 -26zM406 939v-9q50 0 166 105v9h-9
q-94 -33 -157 -105zM415 467q8 -17 8 -27h-8q24 -124 70 -148q258 286 455 472q64 59 148 166v18q-109 44 -183 44l-18 -9q-17 9 -26 9l-18 -9q-15 9 -35 9q-17 -9 -26 -9v9q-206 0 -271 -167q-96 -132 -96 -358zM625 213q28 -17 43 -17q9 0 9 8l44 -8q357 0 542 271h9v-9
q0 -201 -446 -324v9q-34 -17 -96 -17q-76 0 -193 26l-26 -35v-9q86 -17 192 -26l53 9v-9l17 9q9 0 9 -9q38 17 140 17h9q22 18 114 35q0 -8 8 -8q0 14 132 52q314 166 314 385q0 163 -78 280l8 17q-34 0 -78 79q-98 -83 -376 -350q-359 -355 -359 -367q0 -9 9 -9zM231 475
q45 -288 157 -288l27 35v17q-70 87 -70 210v35q0 9 8 9l-8 17q0 171 113 377h-8q-96 -38 -132 -97q-87 -133 -87 -315zM178 -189v-9h18q0 15 26 44v8q-12 0 -44 -43z" />
    <glyph glyph-name="Ugrave" unicode="&#xd9;" horiz-adv-x="954" 
d="M341 1696h8q81 0 128 -111q120 -149 120 -196v-8q-9 -26 -52 -26h-8q-10 0 -102 145l-137 145v17q1 12 43 34zM162 1287q44 0 68 -43q0 -99 26 -366q-17 -3 -17 -17q25 0 25 -17v-26l-17 -25q26 0 43 -316q34 -169 85 -341q9 0 9 9l42 -9q86 0 205 137q76 180 76 324v136
q0 19 9 34q-9 15 -9 34v34q0 104 -17 196h9q-9 64 -51 179v9q3 17 42 34q67 0 111 -281q9 0 9 -9v-8q0 -9 -9 -9q26 -64 26 -187v-9q0 -9 -9 -9q0 -8 9 -8q-7 -85 -17 -85q0 -9 8 -9q-8 -102 -17 -102q0 -9 9 -9q-86 -307 -162 -392q-9 0 -17 -25q64 17 76 17l9 -17
q-111 -111 -205 -111h-17q-95 0 -179 68q-65 26 -153 128q-47 66 -85 196q8 0 8 9q-29 0 -68 264h9q-26 102 -26 255v17q12 248 43 248h8q48 0 60 -43q-17 -85 -17 -153v-52q0 -8 -9 -8q9 -17 9 -26q0 -386 145 -681l17 8q-34 111 -69 367h9q-60 487 -60 673z" />
    <glyph glyph-name="Uacute" unicode="&#xda;" horiz-adv-x="942" 
d="M486 1708q11 0 41 -42v-25q0 -29 -192 -268q0 -33 -67 -33l-25 33v25q28 47 50 67l-25 50q0 15 159 151q0 42 59 42zM703 1256q76 0 76 -176l16 -67h-8q25 -47 25 -218q0 -591 -243 -745q-70 -50 -142 -50q-152 0 -301 209q-39 57 -76 226h9q-34 172 -59 620v75
q0 59 59 59q33 0 50 -34q-17 -27 -17 -50v-58q50 -787 109 -787q4 -34 25 -34h8q-47 47 -75 276h8q-14 45 -25 218q38 511 151 511q0 8 17 8q50 -19 50 -33q0 -13 -84 -118q-25 -133 -42 -293v-25h9q0 60 134 352q0 25 17 25h8q17 -3 17 -17q0 -76 -168 -469l-8 -83v-59
q0 -71 17 -109q-9 -16 -9 -25q14 0 42 -134q61 -109 159 -109h17q130 0 226 369l-8 16q25 85 25 193v84q0 8 8 8l-8 17v42l-42 368q20 17 33 17z" />
    <glyph glyph-name="Ucircumflex" unicode="&#xdb;" horiz-adv-x="1000" 
d="M534 1705l15 -7q14 7 22 7q183 -252 183 -322l-15 -7q-65 0 -227 249q-41 -47 -110 -74q-75 -73 -131 -109q-51 24 -51 36v15q117 110 161 183h21l37 -8q0 10 44 30l37 -8q2 15 14 15zM746 1354h22q44 0 44 -161l88 -454q-12 -161 -29 -161l7 -15q-58 -221 -183 -351
q-163 -212 -271 -212h-73q-114 57 -168 183l-73 176l7 14q-28 0 -73 337q-17 375 -44 439q41 22 59 22q51 -26 51 -154v-7q22 29 36 29v7q-22 0 -22 15q20 96 37 124q-15 0 -15 15l15 7h15q22 -42 22 -51q-8 -136 -30 -263q0 -8 8 -8l-8 -73v-73q0 -16 -7 -29q7 -14 7 -22
h-7l7 -15q0 -14 -7 -14q31 -450 168 -491q40 -29 103 -29q249 0 300 483q22 122 22 263v22q0 17 7 30l-37 366v29q0 10 22 22zM256 1215q7 0 44 -30l-7 -51v-14q36 -184 66 -381q-8 -14 -8 -22q22 0 22 -132q0 -7 -7 -7q15 -27 15 -58v-118l-8 -14q15 -2 15 -15v-66l51 -44
v-7q0 -14 -44 -29q-95 0 -95 293v7h7q-7 14 -7 22q0 182 -88 600v7q0 44 44 59zM820 702q0 -30 -8 -80v-15h8q7 76 14 88zM805 593v-30h7v30h-7zM337 88v-8q51 -14 51 -21q13 7 29 7v7q-39 0 -73 15h-7z" />
    <glyph glyph-name="Udieresis" unicode="&#xdc;" horiz-adv-x="1218" 
d="M821 1708h49q74 -12 74 -49q-66 -156 -172 -156q0 -8 -8 -8q-49 0 -82 65v33q0 51 139 115zM386 1667q37 -14 57 -49v-50q0 -14 -57 -49q-115 53 -115 123q33 25 115 25zM928 1388h16q72 0 91 -279q16 -161 49 -337h-8l8 -17v-57q0 -16 -16 -16l8 -17q0 -248 -140 -468
q-101 -115 -213 -115l-41 8l-132 -82l-16 -8q-148 49 -148 115q-28 69 -90 82q-103 45 -189 271q0 22 -66 255q8 0 8 8q-23 0 -49 238v33q14 213 107 213l16 -24v-17q-27 -106 -41 -115l8 -57v-91l-8 -16q17 0 41 -156q93 -404 189 -460h8v17q-82 104 -82 287q0 135 25 189
l-8 16l8 50q-8 175 -17 246l9 16l-9 41q17 197 58 197h24q74 -46 74 -73q-57 -392 -57 -427q0 -17 49 -395h-8q31 -180 82 -180h25q261 89 369 295q107 200 107 378q-82 341 -82 386q22 62 41 66zM977 649q-86 -254 -328 -403l-66 -32v-25q21 0 41 -17h17l57 17
q0 -13 33 -33h33q108 45 156 164q74 217 74 321v8h-17zM452 172v-8q0 -49 74 -90h16q36 19 41 41q-60 16 -115 57h-16z" />
    <glyph glyph-name="Yacute" unicode="&#xdd;" horiz-adv-x="966" 
d="M585 1693l39 -8l55 8l23 -31v-16q-44 -47 -226 -140q0 -8 -47 -16q-41 0 -47 78q17 0 133 94zM140 1365q22 -19 102 -171q36 0 54 -86q65 -100 227 -265q0 16 203 405q18 117 39 117q54 0 54 -70v-55q27 0 39 -39q-213 -494 -234 -514h-8q0 -9 8 -24q-109 -302 -171 -437
q0 -45 -79 -164q8 0 8 -7q-15 -8 -23 -8l8 -16v-8q-8 -23 -47 -23l-31 39q29 97 124 273q16 34 86 258v7q-88 -79 -257 -538h-31q-13 0 -32 31q75 259 266 640q8 15 8 23h-16q0 -39 -24 -39q-58 0 -109 133q-111 147 -304 468v24q0 11 23 23h24q34 -31 39 -31h8q0 54 46 54z
" />
    <glyph glyph-name="Thorn" unicode="&#xde;" horiz-adv-x="618" 
d="M112 1435q28 0 53 -33q-20 -151 -26 -284h33q112 0 112 -33l27 13q211 -51 211 -298q-6 -165 -33 -165l7 -13q-42 -96 -198 -192l-113 -40l40 -364q-10 -26 -20 -26h-13q-33 0 -47 225q-6 0 -13 46q7 12 7 27q-15 92 -27 92q0 -73 -6 -73q6 -11 6 -26v-13l-6 -13
q13 -3 13 -14h-7q7 -15 20 -112l-6 -13l6 -33h-6l6 -14q0 -13 -46 -19q-60 89 -60 317v178q0 15 7 27q-7 12 -7 26q0 7 7 7l-7 33v73q0 6 7 6l-7 14v139q0 6 7 6l-7 13v139q0 7 7 7q0 6 -7 6q0 17 7 53q-7 258 -33 258v13q7 20 40 20q26 -26 26 -39h7q11 0 26 72zM192 1038
q-60 -30 -60 -66q0 -26 -6 -26q13 -35 13 -139v-7l6 -33h-6q6 -7 13 -99h7l20 13l6 -13v-40h-13v-20h13v-13q0 -6 -6 -6l6 -14l-6 -13l6 -33l-6 -40q25 -13 72 -13q64 37 93 66q66 78 66 218q0 149 -126 239q-50 35 -92 39zM384 999q33 -47 39 -47v7q-9 27 -33 40h-6z
M93 622v-33h6v33h-6zM99 575v-53h7v53h-7z" />
    <glyph glyph-name="germandbls" unicode="&#xdf;" horiz-adv-x="1067" 
d="M439 1432q285 0 377 -285q0 -7 7 -7q-47 -308 -115 -308q0 -18 8 -31q-8 -15 -8 -23q223 -140 223 -285q-13 -101 -115 -246q-141 -115 -377 -115q0 -8 -8 -8q-101 0 -177 38v16q0 43 38 54q51 -24 70 -24h7q163 0 193 31h23q192 143 192 293q0 123 -115 169h-16
l-200 -169h-23l-23 30v24q71 76 100 76v8q-61 69 -61 93q184 278 184 346q-54 223 -100 223h-54q-65 -14 -177 -308q-23 -27 -69 -285q0 -30 -15 -30q0 -8 7 -8q-15 -68 -15 -185h-8q0 -7 8 -7l-8 -77v-16q0 -23 8 -23l-8 -38v-254q0 -8 -7 -8q0 -8 7 -8q-30 -245 -69 -361
l-38 -8h-16q-11 0 -38 77q-31 0 -31 46h8q-8 15 -8 23q33 0 46 531q-8 15 -8 23h8q0 8 -8 8l8 77q0 23 -8 23l8 38v16q0 330 85 631q87 155 184 192q31 16 124 31zM146 847v-8h8q0 83 185 485q-97 0 -170 -315zM723 1140q0 -131 -115 -262q-23 -47 -23 -62l15 -7h46
q93 210 93 308q-8 14 -8 23h-8z" />
    <glyph glyph-name="agrave" unicode="&#xe0;" horiz-adv-x="1102" 
d="M259 1566q11 -44 142 -109q70 -78 192 -267q59 -40 59 -50v-9q-11 -33 -75 -33l-193 142l-200 242q19 84 75 84zM376 1014q201 -16 201 -66h8q0 25 8 25l-8 16q0 17 59 25q83 -59 91 -150q67 -349 218 -727v-42q26 0 42 -92h8q-13 -33 -25 -33q-36 0 -42 50h-8
q0 -67 -17 -67l8 -17v-8h-8q-12 0 -42 59q-47 48 -108 267h-9q-228 -217 -510 -217l-125 75q-117 161 -117 359q0 209 184 452q90 91 192 91zM577 931q0 -26 -42 -50l-50 42h-17q-146 0 -267 -176l-67 -175q0 -9 8 -9q-17 -108 -25 -108q0 -9 8 -9q0 -9 -8 -25
q11 -242 92 -242q0 -23 117 -34h75q212 88 259 226q17 67 17 84v8q0 36 -92 443v25h-8zM702 379l-50 -133h8q34 0 75 50q0 29 -25 83h-8z" />
    <glyph glyph-name="aacute" unicode="&#xe1;" horiz-adv-x="1093" 
d="M601 1699h25q13 0 26 -26q-78 -150 -154 -223v34h17v18h-17q0 -21 -181 -241q0 -13 -60 -60h-25q-17 0 -17 17v43q360 433 386 438zM652 1519h43v-9q0 -65 -395 -437q-60 8 -60 25v18q138 192 180 223l9 -18q-17 -35 -17 -51q147 126 240 249zM369 987h51q82 -26 103 -26
h86q43 -19 43 -69l43 9q15 -28 34 -206q78 -183 103 -283l43 51h9l-9 -43q17 -2 17 -17q-25 -43 -25 -68q0 -78 103 -301v-8q-9 -26 -52 -26h-17q-50 0 -129 206q-180 -155 -412 -155q-164 0 -300 198q-60 88 -60 249h9q0 8 -9 8q0 178 172 344q154 137 197 137zM112 472
q0 -219 154 -300q60 -18 103 -18h60q249 0 249 352q-69 275 -112 378q-25 0 -25 8q-37 -23 -215 -42q-119 0 -214 -378zM729 360q0 -17 -17 -120q43 25 43 52q-5 68 -26 68z" />
    <glyph glyph-name="acircumflex" unicode="&#xe2;" horiz-adv-x="1189" 
d="M555 1680q18 -3 18 -17q-15 0 -35 -52h9l60 43q65 -16 104 -130q209 -323 209 -356v-17l-27 -17h-26q-87 148 -156 225q-38 95 -95 139q-181 -169 -226 -226h-8q-52 0 -52 44l-70 -96q-15 -8 -34 -8q-12 0 -44 43v26q270 328 373 399zM512 977q199 -8 199 -17q16 9 35 9
h35q23 0 52 -261l113 -425h8l35 26h9v-26q-16 -19 -26 -78l86 -321q-28 -17 -52 -17q-30 69 -69 69q-78 0 -78 183h-18q-263 -79 -364 -79q-258 37 -338 113q-96 96 -130 234h8q-17 32 -17 70q0 301 373 494q101 26 139 26zM156 440q9 -17 9 -26h-9q53 -243 174 -243
q0 -18 43 -18h35q188 0 373 104q17 65 17 78l-35 87l9 18q-12 0 -78 234q-48 208 -191 208h-26q-100 0 -234 -165q-87 -136 -87 -277z" />
    <glyph glyph-name="atilde" unicode="&#xe3;" horiz-adv-x="1192" 
d="M421 1658q103 -67 184 -238l36 -28q70 15 147 64q4 92 18 92l-9 18v28q0 49 37 64h9q36 -19 36 -46q-33 -339 -165 -339q-80 30 -82 37q-9 0 -9 -9q-145 0 -211 192v18h-27q-110 -153 -110 -183l18 -27q0 -15 -37 -37h-18q-82 12 -82 46q156 348 265 348zM788 1017h9
q21 0 27 -46l46 9q37 -15 37 -64v-92q0 -114 146 -769v-28q0 -13 -27 -27q-43 0 -128 238h-37l-137 -73q-56 -50 -220 -101v9q-21 -9 -119 -18q-233 0 -376 284q-9 100 -9 174v9q0 221 485 367q0 -10 10 -10q0 26 210 65q0 58 83 73zM119 412q0 -201 238 -201q18 9 28 9v-9
q17 9 27 9q339 17 339 82q38 53 73 156l-9 18q19 37 19 64q-74 284 -129 284q-17 10 -27 10q-276 -45 -440 -193q-119 -126 -119 -229zM861 385q-9 0 -9 -92q18 9 27 9v19l-9 45q9 0 9 10z" />
    <glyph glyph-name="adieresis" unicode="&#xe4;" horiz-adv-x="1096" 
d="M612 1557q40 -14 62 -52v-9l-35 -35q83 -18 96 -61v-18q-26 -44 -61 -44q0 9 -9 9q0 -26 -114 -35q-71 0 -96 131q0 75 157 114zM245 1505q53 0 96 -62v-17q0 -85 -140 -105h-17q-13 0 -53 52v9q32 123 114 123zM542 1435v-18q3 -17 18 -17h17q-17 21 -17 35h-18z
M726 1023l44 -52v-18q-35 0 -35 -52q0 -47 35 -61q0 140 61 140q15 0 52 -18q-8 -144 -8 -218v-44l8 -105h-8q50 -327 113 -473v-17l-52 -26l-70 43q-91 -122 -367 -122q-9 0 -9 9q-9 0 -9 -9q-324 51 -324 114q-94 62 -157 341l87 306q17 11 62 105q127 131 323 131
q0 15 62 18q51 0 105 -44h17q0 32 70 52zM140 525q0 -9 9 -9l-9 -44v-61q0 -194 236 -297q117 0 289 87q105 109 105 175q-72 424 -149 499q-101 17 -157 17q-223 -180 -324 -367zM227 805v-9h9q14 0 35 35v9h-9q-13 0 -35 -35zM656 105q18 0 18 -9q174 37 174 61l-35 97h-8
q0 -8 -149 -149z" />
    <glyph glyph-name="aring" unicode="&#xe5;" horiz-adv-x="1096" 
d="M466 1618q114 -87 114 -176v-9q0 -114 -193 -176q-106 38 -106 141q0 185 141 220h44zM378 1407v-9l9 -44q63 6 114 88q-20 53 -35 53h-35q-28 -10 -53 -88zM633 1020h18q29 -62 88 -62q79 0 79 -149q35 -466 105 -633q0 -23 27 -62v-44q26 0 26 -17v-27q0 -12 -26 -26
q-104 15 -194 70h-9l-149 -26l-18 9q-9 0 -26 -9q-442 13 -554 317q0 288 123 430q128 185 334 185q0 15 44 18h71q32 26 61 26zM536 871h-26q-9 0 -9 8l-17 -8l-18 8q-54 0 -158 -140q-185 -231 -185 -352q0 -83 150 -194q145 -44 184 -44l18 9l17 -9q194 53 194 80
q-62 257 -79 448h9q-18 29 -27 97h9q-18 50 -18 114h-17zM686 871v-44q26 -121 26 -176h9q0 17 9 17q-22 203 -44 203z" />
    <glyph glyph-name="ae" unicode="&#xe6;" horiz-adv-x="1699" 
d="M1046 966l160 -40l60 10v-10l20 10q181 0 240 -230v-20q0 -266 -350 -340q-15 0 -290 90v-10q176 -152 420 -240l50 10h120q54 0 70 -40q-50 -50 -160 -50l-10 -20l40 -10v-10q-13 -40 -90 -40h-70q-85 0 -130 20q-54 -10 -90 -10h-40q-36 0 -80 40h-10q0 -30 -10 -30
l10 -20q0 -30 -30 -30q0 -22 10 -40q-15 -40 -30 -40q-90 50 -90 110q10 0 10 10q-14 1 -50 130l-20 10q-100 -170 -270 -170h-50q-350 77 -350 240q-30 0 -30 170q0 258 300 460q155 50 180 50q170 0 170 -90q35 0 60 80h50q30 0 30 -70h30q108 108 220 120zM846 566
q19 -10 30 -10q160 0 500 70q60 30 60 80q-35 130 -150 130l-120 -10v10l-20 -10h-10q-33 0 -50 10l-60 -10l-20 10q-90 0 -100 -110q-60 0 -60 -160zM176 426q0 -250 190 -250q18 10 40 10q10 0 10 -10q240 26 240 110q10 53 10 100v120q0 86 -40 240q-90 60 -200 60
q-250 -91 -250 -290v-90zM1166 456q3 -20 20 -20h10q140 23 140 60v10h-10q-100 0 -160 -50zM876 356v-30q0 -113 190 -170q0 -10 10 -10h110v10q-130 70 -310 200z" />
    <glyph glyph-name="ccedilla" unicode="&#xe7;" horiz-adv-x="1241" 
d="M584 1015q354 -38 386 -109v-10q-16 0 -40 -20h-10q-36 28 -118 40q0 -14 -30 -30q-75 40 -99 40q-145 -21 -267 -129q-150 -172 -159 -307q0 -154 139 -207q89 -66 386 -109q184 0 277 227l-10 20q0 14 30 30q29 -8 49 -69l-10 -20q10 -18 10 -40q-36 -69 -79 -119
q10 -19 10 -29q-62 -74 -386 -139q-188 0 -188 -109q0 -59 89 -59h40q15 0 128 40l20 -30v-20q-69 -103 -69 -109l10 -59l-30 -20h-20q-69 0 -69 59q20 28 20 70q-208 0 -208 128v30l20 69q-357 69 -357 178q-49 57 -49 139q20 186 198 416q230 257 386 257zM139 510
q-40 -140 -40 -158q0 -238 297 -238h119q19 0 19 20q-188 43 -188 89l-19 -10q-179 138 -179 228q10 17 10 40v9q0 20 -19 20z" />
    <glyph glyph-name="egrave" unicode="&#xe8;" horiz-adv-x="1209" 
d="M432 1540h18q48 0 99 -72l108 -81q-27 -45 -63 -45v-27l54 -81v-18q-5 -27 -72 -27h-9q-78 89 -153 243q-81 22 -81 54q0 36 90 45q0 9 9 9zM486 1018q204 -18 469 -216q117 -155 117 -217q0 -97 -126 -171q0 18 -18 18q-6 -75 -415 -108v9q-9 0 -9 -9q-49 0 -243 36
q126 -161 315 -216h72q133 0 298 63l9 -18v-9q-42 -81 -108 -81v-18h27q47 0 81 27h18q18 -3 18 -18q-46 -90 -126 -90h-90q-483 90 -586 234q-66 52 -126 234q-12 0 -63 36q0 31 27 72v63q0 192 369 352zM171 630v-81l63 -9h99q9 0 9 -9l18 9q20 0 36 -9q9 0 9 9l45 -9h81
l90 9v-9l18 9q27 0 27 -9l109 18q0 -9 9 -9l18 27v18q0 199 -118 244q-95 90 -171 90q-113 0 -288 -154q-36 -104 -54 -135zM892 738v-45q9 -180 36 -180q13 1 45 36q-21 135 -27 135zM648 450h-216q-20 0 -36 -9q-17 9 -27 9v-18l108 -9h63q52 0 180 18v18l-18 -9
q-9 0 -9 9z" />
    <glyph glyph-name="eacute" unicode="&#xe9;" horiz-adv-x="1102" 
d="M574 1574h33q16 -3 16 -16v-17q-124 -173 -320 -303q-12 0 -32 -33q-56 0 -82 41q32 80 286 279q17 0 99 49zM410 1017v-9l16 9h41q309 0 459 -279q41 -81 41 -140v-16q0 -129 -139 -148q-27 0 -41 -8q-25 8 -25 17q-15 -9 -24 -9l-33 9q-8 0 -8 -9l-82 17l-262 -33h-82
l-17 8l-8 -16q-76 16 -107 41q0 -8 -8 -8q141 -328 254 -328q43 -8 49 -8q153 0 304 98q22 49 33 49l57 -8q16 8 25 8l8 -16q0 -39 -197 -197h-8q0 8 -8 8q0 -24 -140 -49v8l-16 -8q-274 0 -435 238q-57 166 -57 278v123q0 123 254 337q87 39 156 41zM98 656v-17h50l16 -8
l-8 -16v-25q74 -24 123 -24q189 0 508 90q0 152 -90 180q-88 15 -197 90q-96 0 -279 -98q-90 -68 -123 -172zM877 615q0 -35 -49 -49q-18 0 -90 8q-118 -30 -123 -49q114 -10 205 -25q74 19 74 82v16q0 17 -17 17z" />
    <glyph glyph-name="ecircumflex" unicode="&#xea;" horiz-adv-x="1195" 
d="M538 1708h17q29 0 43 -111q62 -34 136 -222q29 0 60 -120q-28 -17 -51 -17q-118 144 -205 282q0 -18 -137 -154l-128 -153q-44 0 -51 25v52h-43q-25 8 -25 51q0 52 196 196q145 148 188 171zM256 1341v-9h9q11 0 68 69v17q-11 0 -77 -77zM470 1042q153 -17 153 -26
q9 0 9 9q188 0 307 -273q0 -18 -8 -18l8 -59v-103q0 -91 -614 -128q0 -8 -9 -8q-58 8 -179 42q58 -153 401 -333q93 -25 120 -25q210 0 358 298h17q26 -8 26 -51v-8q0 -83 -188 -274q9 0 9 -8q-60 -77 -171 -77v9q-9 0 -9 -9q-371 0 -632 350q-68 137 -68 239v52q0 8 9 8
q0 9 -9 9q0 218 205 307q31 0 256 77h9zM137 692q12 0 85 -60q60 0 60 -9l17 9h17l427 43v25q-120 222 -162 222h-34q-323 0 -410 -196v-34zM752 871v-8l93 -171v17q0 104 -85 162h-8zM547 564v-17l179 25l-9 17q-8 -8 -170 -25zM495 555v-8h43v17z" />
    <glyph glyph-name="edieresis" unicode="&#xeb;" horiz-adv-x="1163" 
d="M257 1470h24q89 0 105 -153q-30 -80 -89 -80v8l-16 -8q-96 60 -96 145q0 88 72 88zM659 1446q64 0 88 -96q-46 -97 -112 -97q-73 0 -73 64v24l-16 -8l-24 33q0 66 137 80zM586 1350v-9q18 0 33 -8l16 25h-8zM337 1020q262 -48 386 -169q72 -37 137 -257q0 -112 -177 -112
l-113 -8v8q-73 -24 -297 -24h-48q-8 0 -8 8l-16 -8h-64v-40q86 -201 144 -201q36 -55 201 -97q11 0 88 -16q314 47 314 105h24q16 -3 16 -16l-32 -56h8q43 0 80 200l16 8q16 -2 16 -16h-8q8 -14 16 -72q-53 -201 -128 -201q-42 -28 -201 -56l-16 8q-16 -8 -24 -8v8
q-8 0 -8 -8q-401 0 -611 345q-32 94 -32 145v88q0 8 8 8q0 8 -8 8q0 160 225 394q35 24 112 32zM313 900q-130 -81 -168 -193q-8 0 -8 -8v-24q0 -24 96 -48h40q187 0 386 32v8q-30 184 -137 184l-112 49q-61 -8 -81 -16q0 16 -16 16z" />
    <glyph glyph-name="igrave" unicode="&#xec;" horiz-adv-x="514" 
d="M41 1612l33 -16q44 8 73 8q49 -48 49 -98l-8 -17q31 -134 180 -360v-8q0 -13 -33 -33q0 8 -8 8q0 -16 -16 -16q-243 284 -311 483v24q0 15 41 25zM115 990h57q24 0 49 -286l16 8l-8 16q0 254 49 254q49 -8 49 -25q0 -26 -16 -147q0 -8 8 -8l-8 -41v-123q0 -18 -8 -32
l8 -17l-8 -33l8 -16q-8 -16 -8 -24l8 -41h-8l8 -17q0 -16 -16 -16l8 -16v-25q0 -34 -8 -90q8 -16 8 -25q-8 -15 -8 -24q0 -8 8 -8l-8 -49l8 -58l-8 -16q8 -14 8 -33v-8q0 -13 -33 -33h-16q-17 0 -17 17v41h-16q8 -43 8 -50q-10 -65 -33 -65h-16q-33 17 -33 41q0 85 -8 311
q0 18 8 33q-8 44 -8 73v164l-8 41h8l-8 16q0 8 8 8l-8 17v24q0 141 -33 221v8q17 20 17 33z" />
    <glyph glyph-name="iacute" unicode="&#xed;" horiz-adv-x="597" 
d="M427 1699h17q18 0 18 -26q0 -113 -140 -349q0 -47 -43 -69h-35q-33 0 -35 69l-43 -8q-27 31 -27 61v17q0 66 210 253q30 52 78 52zM244 1394q12 0 26 26v18q-20 0 -26 -44zM157 1002q33 0 78 -139h9q0 57 35 69h26l44 -8v-18q-27 -103 -27 -218q9 -17 9 -26h-9
q9 -17 9 -26q0 -29 -9 -44q9 -47 9 -69q0 -39 -9 -53q9 -74 9 -121v-105q0 -131 -17 -131l8 -17q0 -72 -78 -79q0 9 -9 9l9 61v70q0 72 -17 331h8l-43 200h-9v-130q0 -27 -9 -27l9 -43v-375l9 -43h-9l9 -18v-17q-14 -35 -61 -35q-35 59 -35 314l9 17q-9 15 -9 35q0 9 9 9
l-9 17v122l-9 52q0 9 9 9l-9 87v79q-52 49 -52 69q0 165 122 192zM35 732l17 -26v-44q0 -17 -17 -17q-35 13 -35 26q0 47 35 61z" />
    <glyph glyph-name="icircumflex" unicode="&#xee;" horiz-adv-x="591" 
d="M336 1696q36 -40 36 -45v-18l-45 -254h9q55 54 90 54l9 -18v-18q-36 -29 -90 -136l-37 -28q-90 10 -90 91q27 64 36 127h-9q-27 -15 -136 -263q-18 -36 -27 -36h-46q-36 15 -36 63q229 481 336 481zM218 989q99 -7 99 -82v-127q0 -38 -9 -100l9 -18q-18 -256 -18 -499
l-9 -36l9 -18q0 -9 -9 -9l9 -46v-18q0 -12 -45 -36q-54 0 -54 136v100q0 20 9 36q0 9 -9 9l9 91v81l18 28q-18 0 -18 18v9l9 45h-18v-36q-46 -174 -46 -181q9 -18 9 -28q-27 -5 -27 -72l9 -55q0 -9 -9 -9l9 -45v-54q0 -47 -27 -55h-36q-37 0 -37 191v9l9 18l-18 9q0 9 9 9
l-9 45v55q0 9 9 9q-9 17 -9 27l18 36q-18 0 -18 18v46q0 9 9 9l-9 18v73q0 20 9 36q-9 16 -9 36v64q-36 40 -36 63q47 45 63 45q49 0 91 -36q40 191 64 191z" />
    <glyph glyph-name="idieresis" unicode="&#xef;" horiz-adv-x="514" 
d="M101 1618q106 0 134 -210q0 -8 -9 -8l9 -17q-25 -79 -76 -109h-25q-81 0 -117 160q-17 0 -17 16v9q0 37 101 159zM109 1375l17 -9h8l9 42l-9 101q-25 0 -25 -134zM302 1450q77 0 92 -109q-46 -151 -84 -151q-51 0 -75 59l8 42l-8 59q16 53 67 100zM226 1031q76 0 76 -67
h-9q17 -31 17 -67v-168l9 -58h-9l9 -17q0 -8 -9 -8l9 -42v-336q0 -8 -9 -8l9 -17v-67q-26 0 -26 -17q17 -8 26 -8v-34q0 -13 -34 -33h-8q-42 0 -42 159v335q0 17 -17 17v-8q0 -159 -25 -185v-83q0 -31 -9 -76q0 -8 9 -8l-9 -42v-159q-13 -34 -58 -34q-25 31 -25 59v8
q0 8 8 8l-8 17v160q0 25 8 25l-8 42v234q0 19 -9 34q0 8 9 8q-17 193 -34 193q-25 0 -25 17q6 67 59 67q27 -9 58 -9q0 9 9 9q0 8 -9 8q27 151 67 151z" />
    <glyph glyph-name="eth" unicode="&#xf0;" horiz-adv-x="1139" 
d="M896 1432q50 -8 50 -25v-17q-23 0 -259 -184l16 -8h17l17 8q3 -17 17 -17q0 9 8 9l17 -26l-9 -16q116 -128 193 -386q34 -206 42 -226q0 -239 -117 -343q-32 -44 -252 -117q-94 -84 -175 -84h-26q-222 0 -301 176q-25 51 -42 192q0 7 8 51l-8 16q81 386 318 386h17v8
l-25 34v25l176 209v8h-9q-24 0 -259 -242q-60 -51 -92 -51q-35 12 -51 42v17q282 237 327 293l-167 42q-9 0 -9 -8l-176 33q-73 -50 -100 -50q-42 6 -42 25v8q56 48 117 92q130 49 159 67q9 0 9 -8l16 8h42q125 0 243 -134q85 44 168 109q14 9 33 9v-17h9q0 66 100 92z
M260 1298v-8q0 -15 192 -42v17q-76 41 -109 41q-14 -8 -33 -8v8q-13 -8 -50 -8zM703 1097v-33q42 -104 143 -252v9q-22 117 -134 276h-9zM620 1013q-10 -24 -126 -176q0 -11 75 -33l9 -17v-25q-15 -15 -50 -100l-17 -9h-9q-16 0 -33 67l-17 9h-50q-86 0 -184 -185l8 -16
q0 -13 -17 -76q0 -192 151 -259q19 -20 117 -34h34q152 0 201 134q73 89 100 226q0 204 -109 377q-58 75 -58 117h-25zM888 628v-67q0 -125 -118 -335l17 -8q126 83 126 217h17v17h-17v25q0 151 -25 151z" />
    <glyph glyph-name="ntilde" unicode="&#xf1;" horiz-adv-x="1108" 
d="M261 1525q270 -32 270 -116q16 0 38 -67q84 32 145 164q0 9 10 9h19q20 -3 20 -19v-10q0 -103 -58 -164v-9q58 0 58 -20q-64 -135 -126 -135h-19q-52 0 -106 77q-35 4 -155 136q-212 -158 -212 -222q25 -78 38 -78q0 15 39 39h29q29 0 48 -87v-67q3 -20 20 -20
q0 48 86 48h10q45 0 212 -48l49 20q97 0 193 -155q58 -160 96 -434q0 -10 -9 -10l9 -48v-29q0 -22 -9 -39q0 -9 9 -9q0 -182 -96 -232h-20l-38 19l9 135q-19 242 -67 425q-37 0 -126 155q-46 63 -154 125h-29q-29 0 -154 -106q-29 -102 -49 -299h-38v-10q0 -100 -49 -241
q-9 -135 -86 -135q-50 0 -68 106l10 38q6 377 29 377q0 9 -10 9l39 541q-20 39 -20 67q20 0 20 20v19q-43 0 -58 39q0 48 58 87q85 144 183 144q0 10 10 10zM164 1342h10q55 31 77 67v19q-54 -31 -87 -86zM647 1264h9q14 0 29 29h-9q-14 0 -29 -29zM666 840v-10
q58 -60 58 -87h19v39q-38 58 -77 58z" />
    <glyph glyph-name="ograve" unicode="&#xf2;" horiz-adv-x="1203" 
d="M519 1627q69 -18 237 -202q27 -32 27 -62q0 -17 -27 -17q-36 6 -158 123h-9q88 -158 88 -176q-13 -35 -26 -35q-88 0 -141 158q-114 59 -114 70v27q53 26 53 96q45 18 70 18zM589 994q195 0 414 -202q40 -36 52 -168q-47 -378 -96 -378q-223 -246 -467 -246h-26
q-9 0 -9 9q-17 -9 -26 -9q-259 0 -405 273q0 5 -26 88l9 17l-9 18q6 70 18 70l-9 18q208 510 580 510zM589 862q-64 9 -79 17q-334 -107 -334 -351v-62q0 -180 229 -290l87 -9q387 46 387 150q80 156 80 299q0 63 -124 149l-17 -9h-62q-17 0 -17 18q0 26 70 35q37 0 97 -44
h9v18q-166 114 -273 140q-11 0 -53 -61zM106 369v-8q0 -211 272 -273q50 0 62 -9l9 18q-178 0 -343 272z" />
    <glyph glyph-name="oacute" unicode="&#xf3;" horiz-adv-x="1099" 
d="M636 1589q65 0 77 -69q60 -22 60 -43v-8q-67 -103 -163 -103q-81 -90 -172 -155q-47 0 -69 43q16 50 129 163q0 37 138 172zM558 1014q198 -9 198 -61l17 9q153 -111 198 -275q0 -8 -9 -8l9 -43q0 -415 -267 -576q-132 -60 -266 -60q-324 0 -421 318q-10 80 -17 103
q14 146 155 335q191 215 300 215q64 43 103 43zM515 902v-9h9q28 0 94 26v17h-8q-95 -13 -95 -34zM721 902q-5 -43 -334 -129q-121 -85 -121 -198v-51q0 -125 309 -266q99 -26 129 -26q60 0 121 103q51 156 51 240v129q-7 68 -94 164q-39 34 -61 34zM137 575
q-43 -109 -43 -197q0 -198 232 -284q73 -8 121 -8h8v17q-228 0 -300 189q-26 28 -26 146v9q0 8 8 8q-8 17 -8 26q17 53 17 86v8h-9zM223 395v-8q0 -198 206 -198v-9l18 9h25q9 0 9 -9q13 9 52 9v9q-127 33 -301 197h-9z" />
    <glyph glyph-name="ocircumflex" unicode="&#xf4;" horiz-adv-x="1200" 
d="M680 1664h8q47 0 61 -35v-9l-17 -61h9l69 44h26q29 -15 61 -113q-8 -17 -8 -26q69 -96 69 -166q-13 -35 -26 -35q-74 0 -104 174q-20 0 -26 44h-27q-169 -192 -252 -192q0 -12 -53 -52h-26q-13 0 -35 35v26q142 168 271 366zM462 1019v-8l17 8h26q53 0 148 -35h105
q239 0 296 -139q35 -129 35 -139q0 -9 -9 -9l9 -44v-43q0 -185 -52 -218l8 -17q-153 -296 -365 -358q-70 -17 -88 -17h-26q-478 38 -557 348q-9 46 -9 88h9q0 8 -9 8q29 148 52 148l-8 18q139 308 365 401zM662 906v-17l9 -18l-18 -9q0 12 -43 44l-44 -9v9
q-156 -52 -191 -113l-70 -122q0 -9 9 -9q-12 -128 -18 -139q0 -117 166 -227q65 -26 165 -26q98 17 201 78h8l9 -34q-101 -122 -183 -122h-9q-8 0 -8 8q-32 -17 -70 -17q-153 34 -166 61q-174 93 -174 226q-15 0 -26 114q9 17 9 26l-9 17q0 6 35 131h-17q-74 -117 -131 -288
l9 -17l-9 -61q0 -215 331 -296q26 0 61 -18q15 9 35 9q8 0 8 -9q17 9 27 9l17 -9q187 0 383 305q44 144 44 227q0 240 -105 287q-54 18 -165 18q-62 -9 -70 -9z" />
    <glyph glyph-name="otilde" unicode="&#xf5;" horiz-adv-x="1398" 
d="M424 1499q93 -83 142 -236q0 -13 28 -28h28q65 20 160 179l19 10q10 0 10 -10l19 10h47q16 0 28 -48q-38 -91 -236 -216q-42 -19 -122 -19q-126 0 -160 226h-123q-60 -19 -94 -104q0 -47 -29 -47q-84 10 -84 38q78 226 179 226q18 10 28 10l19 -10q16 10 38 10h9
q9 0 9 -10zM575 1018v-9l19 9h66q197 0 471 -217q104 -155 104 -301q0 -331 -358 -453q-175 -47 -387 -47q-325 0 -471 311q-19 37 -19 104q0 198 273 518q95 38 302 85zM575 943q0 -38 -28 -38l-47 9q-321 -171 -321 -320v-28q0 -368 302 -368q550 54 613 151q14 0 37 38
q0 200 -283 443q-66 37 -141 66l-19 -10l-38 19l10 19q0 19 -19 19h-66zM123 321v-19q118 -217 367 -217h38q9 0 9 -10l19 10h104q170 0 349 122h-10q-338 -84 -518 -84q-255 0 -349 198h-9z" />
    <glyph glyph-name="odieresis" unicode="&#xf6;" horiz-adv-x="1395" 
d="M262 1421h40l121 -40q15 0 51 -111q0 -99 -152 -111q-120 63 -120 161v30q16 46 60 71zM786 1421q81 -32 81 -91q0 -30 -111 -60h-51q-40 16 -40 70q0 81 121 81zM605 1018h30q10 0 10 -10q20 10 30 10q340 0 454 -242q101 -185 101 -333q-11 -17 -11 -40v-10
q0 -23 11 -40q0 -118 -263 -262q-100 -44 -312 -91v10l-20 -10h-91q-343 0 -504 292q-40 156 -40 182h10q0 10 -10 10q0 320 393 504q109 30 212 30zM564 927q0 -14 -30 -30l-60 10q-112 -33 -172 -121q-100 -171 -100 -332q0 -313 393 -313h30q504 62 504 252l-10 20l10 51
q-23 149 -51 181v71q-11 0 -141 151q-124 60 -373 60z" />
    <glyph glyph-name="divide" unicode="&#xf7;" horiz-adv-x="1302" 
d="M537 1097q48 -30 48 -54q-32 -66 -72 -84h-42q-18 0 -48 18q-6 -24 -24 -24q-27 12 -30 24v24q54 90 156 90q0 6 12 6zM753 821q12 0 12 -6l60 6h90q14 0 24 -6l12 6q198 -14 198 -60q12 -2 12 -12q0 -48 -216 -48l-30 6l-12 -6l-12 6l-42 -24q-6 0 -6 6
q-176 -30 -564 -84q-47 6 -96 6q-48 45 -48 66q30 16 30 24h-24l-30 -6v6l-12 -6q-69 0 -96 42v18l12 18q61 -12 132 -12l12 6q12 -6 18 -6q38 12 48 12v-6q75 18 372 48q11 -6 24 -6h18l42 6v-6q10 6 72 12zM885 767v-6h36v6q-12 0 -12 6q-10 -6 -24 -6zM939 767
q2 -12 12 -12l6 12h-18zM339 683v-6h6q147 12 162 18l12 -6q12 10 96 18v12q-6 0 -6 -6l-24 6q-33 -6 -48 -6v6l-12 -6h-24q-6 0 -6 6q-16 -12 -156 -36zM579 461v-6l12 6q27 -10 48 -42v-42q-20 -78 -96 -78h-42q-78 14 -78 72v6q24 78 54 78h24q12 0 12 -18h6q28 24 60 24
zM489 359l12 -6h36q47 26 54 42v18q0 12 -12 12q-90 -6 -90 -66z" />
    <glyph glyph-name="oslash" unicode="&#xf8;" horiz-adv-x="1305" 
d="M1150 1192q51 0 51 -34q-80 -147 -204 -288v-25q85 -197 102 -331q-26 -162 -85 -245q-145 -142 -339 -187q-99 -8 -144 -8h-101q-82 17 -94 17q-33 0 -152 -204q-17 -51 -34 -51q0 9 -8 9q0 -17 -17 -17q-71 42 -102 42l-17 26v25l169 246v8q-110 108 -110 238v67
q0 358 627 534h85q81 0 152 -51q45 11 204 221zM574 887q22 0 34 -59l-34 -26h-17q-24 21 -68 34q-136 0 -237 -237v-110q0 -106 51 -161q8 0 313 305q7 0 93 102q24 3 161 152v8q0 24 -85 34h-59q-152 -8 -152 -42zM548 353v-8h9q133 123 279 254l9 -17v-8
q-9 -62 -204 -255q-85 -59 -118 -59q2 -17 17 -17q2 17 17 17q8 0 8 -8q281 101 297 101h8q17 -2 17 -17v-17q-100 -84 -339 -152q-30 0 -76 -9v-8h42q310 0 466 203q34 106 34 161q-39 181 -85 271q-11 0 -338 -372q0 -16 -43 -60zM158 421v-25q0 -52 60 -144h8v8
q-59 96 -59 161h-9zM480 277l-8 -34q17 0 17 26v8h-9zM404 167v-17h9q17 0 17 17h-26z" />
    <glyph glyph-name="ugrave" unicode="&#xf9;" horiz-adv-x="1102" 
d="M268 1424h37q16 0 56 -120q64 -26 64 -102q15 0 37 -37v-18q0 -19 -18 -19q-58 0 -268 185v28q73 54 92 83zM148 1017h9q15 0 37 -37q0 -38 -28 -92q0 -14 47 -56v-148q0 -21 -10 -37q0 -9 10 -9l-10 -46q0 -296 158 -398q155 0 268 213q0 9 -9 9q0 10 9 28
q-19 158 -19 203l10 19q0 9 -10 9q37 324 84 324l18 9q74 0 74 -167q37 -363 83 -647h28q7 46 28 46q3 -18 18 -18l-18 -111q0 -37 83 -56v-9q-21 -46 -93 -46q-55 39 -55 65q-19 -3 -19 -19q-97 0 -166 130q-140 -102 -296 -102h-18q-250 0 -333 287l-28 203q9 16 9 37
l-9 37q81 379 148 379z" />
    <glyph glyph-name="uacute" unicode="&#xfa;" horiz-adv-x="1084" 
d="M569 1572h31q21 0 21 -31q-100 -159 -176 -248h10q39 21 248 217h31q15 0 31 -31q0 -18 -258 -248q-130 -145 -197 -145l-31 41v31q31 46 31 73h-10q-28 0 -62 -21q-41 16 -41 31v21q0 18 175 93q117 217 197 217zM776 1024h31q62 0 62 -445q0 -27 82 -486v-10
q0 -21 -20 -21h-21q-93 145 -93 166q-21 -4 -21 -21q21 0 52 -155l-21 -11h-31q-47 0 -103 187h-21q-125 -228 -331 -228q-186 0 -310 434q-21 207 -31 207q0 269 124 269q14 62 31 62h31q16 0 42 -41q-21 -151 -21 -166v-331q0 -258 93 -258q228 0 331 351q-21 250 -21 321
v21q7 62 31 62h31q62 -41 62 -73h11q0 166 31 166zM755 641q-10 -54 -10 -62q0 -127 51 -341h11l10 52q-34 0 -52 351h-10z" />
    <glyph glyph-name="ucircumflex" unicode="&#xfb;" horiz-adv-x="1125" 
d="M500 1690h65q18 0 33 -65q-11 -21 -11 -33q0 -24 185 -358v-22l-44 -33h-54q-35 20 -196 326h-11q-172 -303 -195 -315h-11q-57 0 -65 33v11q0 21 87 163l119 195zM804 1005q35 0 76 -76q-21 -206 -32 -206q0 -11 11 -11q-11 -217 -11 -294q0 -332 163 -500v-21
q0 -22 -22 -22h-11q-239 25 -239 217q-13 0 -33 109h-10q-164 -185 -272 -185l-22 11l-22 -11q-106 27 -195 142q-74 0 -185 684q11 44 43 44q77 -15 77 -44v-11q0 -10 -11 -10q11 -19 11 -44q17 0 76 163h10q59 0 77 -43q-47 -77 -66 -348q74 -381 229 -381h10
q158 0 196 294v11l-11 21q0 11 11 11q-22 87 -22 207v130q0 27 44 33q54 -33 87 -33q0 41 22 65l-22 44q21 50 43 54z" />
    <glyph glyph-name="udieresis" unicode="&#xfc;" horiz-adv-x="1128" 
d="M561 1548h42q86 0 93 -114q0 -66 -93 -115q-39 11 -104 73q-63 0 -63 62q113 94 125 94zM218 1538q104 -35 104 -84q0 -55 -104 -135h-62q-57 0 -94 63v21q0 89 156 135zM665 1018h41q25 -6 52 -73q-10 -54 -10 -62q21 -200 31 -218l-10 -21q38 -448 114 -509
q16 -41 31 -41h31l21 10q31 -40 31 -62l-41 -32h-11q-265 0 -311 239h-11q-132 -249 -311 -249q-264 0 -312 509v135q0 198 73 198q26 103 62 103q43 -14 62 -52q-31 -210 -31 -332v-83q59 -291 187 -291h31q198 168 198 322q0 104 -31 281q0 10 10 10l-10 52v41
q83 69 83 94q0 15 31 31zM249 125q0 -21 32 -21h10v10z" />
    <glyph glyph-name="yacute" unicode="&#xfd;" horiz-adv-x="997" 
d="M610 1369q52 -18 52 -35v-17l-26 -35q26 -39 26 -61q-45 -19 -200 -183h-44q-97 34 -104 61q93 65 278 261zM836 1020h27q17 -2 17 -17q0 -246 -235 -662q-270 -518 -270 -654q-25 -59 -61 -78q-17 9 -26 9v52l-53 52v26q35 37 122 314q-90 80 -287 601q-29 64 -70 105v9
q17 39 35 43q78 -16 78 -61h9q0 79 26 79h18q28 0 78 -210q142 -250 192 -374v-9q12 4 191 401l26 26q3 -17 18 -17q-35 -110 -35 -122v-9h9q152 230 165 375l-17 60q23 56 43 61zM697 750v-17q0 -47 -35 -61h-9v26q31 52 44 52zM366 271v-9q24 -104 44 -104q0 8 17 70
q-35 0 -44 43h-17z" />
    <glyph glyph-name="thorn" unicode="&#xfe;" horiz-adv-x="696" 
d="M144 1134q42 -3 42 -36q0 -27 -6 -78q12 -113 18 -324q42 32 162 48q60 0 132 -84q36 -64 36 -120v-12q-10 -94 -78 -186q-40 -96 -108 -126q-56 -12 -90 -12h-42v-12q0 -47 -36 -72q-10 0 -24 96l-24 18q-6 -12 -6 -18q0 -27 6 -132l-6 -12q6 -10 6 -24v-24
q0 -9 -24 -24q-45 0 -54 384q0 146 -48 690l12 6h18q30 0 36 -96h-6l6 -12q6 -109 6 -144l12 -6q0 26 36 246q-6 10 -6 30h6l-6 12q12 24 30 24zM198 654v-72q2 -12 12 -12q85 66 150 66q60 0 102 -60v6q0 54 -84 102h-54q-44 0 -126 -30zM126 618q6 -62 6 -72l-6 -12
q6 -10 6 -24l-6 -30q6 -10 6 -24h-6l6 -12v-168h6l12 6q-6 90 -6 132v24q0 6 6 6q-12 31 -12 138v54q-12 0 -12 -18zM204 372q6 -51 6 -84q192 39 192 132q6 22 6 54v12q0 90 -54 90q-99 0 -144 -138q0 -13 -6 -66z" />
    <glyph glyph-name="ydieresis" unicode="&#xff;" horiz-adv-x="868" 
d="M306 1062h24q25 -8 25 -50q0 -46 -74 -123h-50q-23 0 -33 82v17q0 61 108 74zM619 1054h25q45 0 58 -33q0 -57 -116 -124q-57 11 -57 33v8q17 18 41 99l16 8l17 -8q3 17 16 17zM809 781q34 -11 34 -74q-116 -466 -224 -711q-102 -247 -115 -247h-17l-41 24
q-36 -173 -116 -173l-24 33v8q33 40 124 331q8 0 8 8v25q-17 0 -17 8l-16 -8h-17q-73 52 -256 322q-99 146 -132 182v16q30 25 58 25q36 -33 41 -33l33 25q58 -21 58 -50h16q0 33 17 33q63 0 207 -239v-17q0 -16 -17 -16h-17q-9 0 -156 165h-9l108 -174q14 0 66 -99
q49 -58 58 -58h16q0 36 33 50l-8 16q220 554 305 628z" />
    <glyph glyph-name="dotlessi" unicode="&#x131;" horiz-adv-x="514" 
d="M193 1026h26q12 0 25 -26q-25 -163 -42 -512q0 -9 8 -26l-8 -50v-84q0 -19 -9 -34l9 -17q-25 -192 -25 -210q8 -16 8 -25l-25 -17h-9q-12 0 -25 25v177q0 8 9 8l-9 17v59q0 8 9 8q0 9 -9 9l9 59q0 25 -9 25l9 42v151q0 30 8 76q0 8 -8 8l8 42v76q0 176 50 219zM42 984h8
q51 0 59 -303v-151l-8 -51q0 -8 8 -8l-17 -261l9 -17l-9 -42l9 -42l-9 -50q9 -16 9 -25q-9 0 -9 -9q9 0 9 -8l-25 -17h-17q-30 2 -42 219l17 8l-9 34q9 398 9 454q0 53 -17 252z" />
    <glyph glyph-name="circumflex" unicode="&#x2c6;" horiz-adv-x="1024" 
 />
    <glyph glyph-name="caron" unicode="&#x2c7;" horiz-adv-x="1024" 
 />
    <glyph glyph-name="uni02C9" unicode="&#x2c9;" horiz-adv-x="1024" 
 />
    <glyph glyph-name="breve" unicode="&#x2d8;" horiz-adv-x="1024" 
 />
    <glyph glyph-name="dotaccent" unicode="&#x2d9;" horiz-adv-x="1024" 
 />
    <glyph glyph-name="ring" unicode="&#x2da;" horiz-adv-x="1024" 
 />
    <glyph glyph-name="ogonek" unicode="&#x2db;" horiz-adv-x="1024" 
 />
    <glyph glyph-name="tilde" unicode="&#x2dc;" horiz-adv-x="1024" 
 />
    <glyph glyph-name="hungarumlaut" unicode="&#x2dd;" horiz-adv-x="1024" 
 />
    <glyph glyph-name="endash" unicode="&#x2013;" horiz-adv-x="1108" 
 />
    <glyph glyph-name="emdash" unicode="&#x2014;" horiz-adv-x="2048" 
 />
    <glyph glyph-name="quoteleft" unicode="&#x2018;" horiz-adv-x="557" 
d="M290 1578q66 -22 66 -41v-33q0 -17 -16 -17q-8 0 -66 17q0 -17 -25 -17v-33q4 0 33 9q115 -25 115 -108v-24q0 -124 -41 -124h-41q-25 25 -124 41l-16 33q8 33 8 58q0 8 -33 49v25q43 165 132 165h8zM241 1331q0 -29 74 -42v83l-8 16q-17 0 -66 -57z" />
    <glyph glyph-name="quoteright" unicode="&#x2019;" horiz-adv-x="557" 
d="M201 1597q22 0 70 -9q48 9 79 9q106 -107 106 -149q0 -94 -123 -176q-18 0 -18 18v8q62 70 62 150h-18q-44 -106 -123 -106q-92 0 -114 132q30 123 79 123zM210 1474q9 -53 26 -53q46 14 62 62l-62 9q-26 -9 -26 -18z" />
    <glyph glyph-name="quotesinglbase" unicode="&#x201a;" horiz-adv-x="557" 
d="M284 224q67 -22 67 -42v-34q0 -17 -17 -17q-7 0 -67 17q0 -17 -26 -17v-34q5 0 34 9q118 -25 118 -110v-25q0 -127 -42 -127h-42q-26 25 -127 42l-17 34q9 34 9 59q0 8 -34 51v25q44 169 135 169h9zM233 -29q0 -30 76 -43v85l-9 17q-16 0 -67 -59z" />
    <glyph glyph-name="quotedblleft" unicode="&#x201c;" horiz-adv-x="910" 
d="M537 1622q99 0 148 -70q20 0 31 -55q-45 -117 -132 -117q0 -7 -16 -7l-62 39h-8q0 -24 -8 -24q46 -124 101 -124v-16q0 -11 -23 -23h-16q-73 0 -117 140v8l8 15q-23 0 -23 86q0 148 78 148h39zM171 1599h7q28 0 70 -8l16 8q33 0 55 -71q27 0 39 -85v-24q0 -10 -39 -39
h-47q-8 0 -8 8l-16 -8l-31 24h-15v-8q21 -45 54 -179q31 -8 55 -8q0 -41 -47 -62q-71 0 -117 226q-12 2 -31 85q19 141 55 141zM552 1474q8 -15 8 -23h16l54 15v16q-16 31 -39 31q-39 -13 -39 -39zM256 1466l24 -15h7v15q0 16 -15 16q-16 -3 -16 -16z" />
    <glyph glyph-name="quotedblright" unicode="&#x201d;" horiz-adv-x="910" 
d="M630 1640q28 0 129 -128q0 -158 -103 -378l-51 -43h-18q-17 0 -17 17v9q103 203 103 309q-22 0 -60 -26h-43q-8 0 -8 9l-18 -9q-49 0 -60 94q0 64 138 146h8zM201 1580h17q20 0 35 -8l17 8q154 -97 154 -189q0 -155 -154 -231q-34 8 -60 8v43q0 10 94 69q43 58 43 86
q0 53 -43 94h-8v-51q0 -69 -86 -69q-107 0 -129 77q0 84 120 163zM596 1537q0 -14 -26 -43v-8q0 -17 26 -17q17 8 26 8v35q0 12 -26 25zM184 1494q0 -19 -26 -51v-9q3 -17 17 -17h43q17 0 17 17v26q0 13 -34 34h-17z" />
    <glyph glyph-name="quotedblbase" unicode="&#x201e;" horiz-adv-x="910" 
d="M580 253q106 0 159 -75q22 0 33 -59q-48 -125 -142 -125q0 -9 -17 -9l-67 42h-8q0 -25 -9 -25q50 -134 109 -134v-16q0 -12 -25 -26h-17q-78 0 -125 151v8l8 17q-25 0 -25 92q0 159 84 159h42zM187 228h8q30 0 75 -8l17 8q35 0 58 -75q29 0 42 -92v-25q0 -12 -42 -42h-50
q-8 0 -8 8l-17 -8l-33 25h-17v-9q23 -47 59 -192q33 -8 58 -8q0 -44 -50 -67q-76 0 -126 242q-12 2 -33 92q20 151 59 151zM596 94q9 -16 9 -25h16l59 17v16q-17 34 -42 34q-42 -14 -42 -42zM279 86l25 -17h8v17q0 16 -17 16q-16 -2 -16 -16z" />
    <glyph glyph-name="dagger" unicode="&#x2020;" 
 />
    <glyph glyph-name="daggerdbl" unicode="&#x2021;" 
 />
    <glyph glyph-name="bullet" unicode="&#x2022;" horiz-adv-x="1024" 
 />
    <glyph glyph-name="ellipsis" unicode="&#x2026;" horiz-adv-x="2048" 
 />
    <glyph glyph-name="guilsinglleft" unicode="&#x2039;" horiz-adv-x="631" 
 />
    <glyph glyph-name="guilsinglright" unicode="&#x203a;" horiz-adv-x="631" 
 />
    <glyph glyph-name="fraction" unicode="&#x2044;" horiz-adv-x="342" 
 />
    <glyph glyph-name="fraction" unicode="&#x2215;" horiz-adv-x="342" 
 />
    <glyph glyph-name="franc" unicode="&#x20a3;" 
 />
    <glyph glyph-name="lira" unicode="&#x20a4;" 
d="M564 1435q37 0 141 -115q0 -29 -39 -45q-14 0 -115 64q-53 6 -64 13l-13 -7q-6 0 -6 7q-144 0 -180 -289l13 -70q0 -6 -6 -6q15 -116 32 -116q16 0 218 64v-6l12 6q10 0 20 -19v-6q0 -34 -180 -96q-64 -21 -64 -32v-13h7q25 0 166 70h13l6 -13v-25q-39 -52 -192 -135
q-50 -256 -96 -326q118 -60 179 -186q0 -24 52 -77h38q74 0 314 192q9 0 26 26h6q13 -2 13 -13v-7q-29 -66 -96 -121v-13h6q66 19 135 64q13 -2 13 -13q-22 -50 -45 -64l-13 7q0 -37 -154 -90q-102 -45 -211 -45t-186 147q-45 96 -115 96q-23 -2 -52 -57q-30 -19 -115 -19
q-32 37 -32 89q43 109 154 109q57 127 57 192v13l-6 45h6q0 58 -89 58q-71 25 -71 51l7 32l-26 19q0 58 96 58q2 6 64 6q5 77 13 77l-6 26q-7 227 -7 262q28 132 122 205q64 26 250 26zM135 756v-6q19 0 19 -13q6 0 6 6l32 -6h7v25h-20z" />
    <glyph glyph-name="peseta" unicode="&#x20a7;" horiz-adv-x="2028" 
 />
    <glyph glyph-name="Euro" unicode="&#x20ac;" horiz-adv-x="1255" 
d="M870 1427q91 -9 91 -34v-14q0 -12 -195 -35v-7q104 -56 104 -139q0 -10 -21 -21h-20q-90 118 -154 118h-27q-151 -73 -244 -327q-35 -95 -35 -119h7q188 49 341 70v-7l14 7h91q62 -11 62 -56l-21 -14q-66 7 -76 14q-17 0 -237 -41h-14v-14h119v-21q-35 -56 -237 -56
q-11 7 -42 7l-35 -7v-42q0 -15 -7 -28q7 -12 7 -27v-28l49 -7h42l35 7v-7q110 14 194 35q3 -14 14 -14q0 10 21 21h28q14 -3 14 -14v-7q0 -49 -313 -98v7q-12 -7 -84 -14q0 -97 105 -250q97 -140 229 -140h70q158 0 334 133v7q49 -10 49 -21q0 -128 -362 -230
q-98 -14 -132 -14v7l-14 -7q-93 9 -230 104q-202 235 -202 390h-97q-26 -21 -49 -21q-42 21 -42 42q0 77 111 77h35v-7q12 7 28 7v21l7 42q0 6 -7 6l7 35v28h-49q-125 7 -125 49v21q0 16 35 21l83 -7q98 0 98 55q38 203 271 446q151 104 279 104v-6q36 20 97 20z" />
    <glyph glyph-name="uni2116" unicode="&#x2116;" horiz-adv-x="2271" 
 />
    <glyph glyph-name="trademark" unicode="&#x2122;" horiz-adv-x="1497" 
 />
    <glyph glyph-name="partialdiff" unicode="&#x2202;" 
 />
    <glyph glyph-name="Delta" unicode="&#x2206;" horiz-adv-x="1081" 
 />
    <glyph glyph-name="product" unicode="&#x220f;" horiz-adv-x="1515" 
 />
    <glyph glyph-name="summation" unicode="&#x2211;" horiz-adv-x="1206" 
 />
    <glyph glyph-name="minus" unicode="&#x2212;" 
 />
    <glyph glyph-name="radical" unicode="&#x221a;" 
 />
    <glyph glyph-name="infinity" unicode="&#x221e;" 
 />
    <glyph glyph-name="integral" unicode="&#x222b;" horiz-adv-x="665" 
 />
    <glyph glyph-name="approxequal" unicode="&#x2248;" 
 />
    <glyph glyph-name="lessequal" unicode="&#x2264;" 
 />
    <glyph glyph-name="greaterequal" unicode="&#x2265;" 
 />
    <glyph glyph-name="uniF001" unicode="&#xf001;" horiz-adv-x="1073" 
 />
    <glyph glyph-name="uniF001" unicode="&#xfb01;" horiz-adv-x="1073" 
 />
    <glyph glyph-name="uniF002" unicode="&#xf002;" horiz-adv-x="1081" 
 />
    <glyph glyph-name="uniF002" unicode="&#xfb02;" horiz-adv-x="1081" 
 />
    <glyph glyph-name="Ydieresis" unicode="&#x178;" horiz-adv-x="1102" 
d="M287 1682h8q143 -19 143 -56l8 -32q-68 -71 -127 -71h-8q-8 0 -8 8l-16 -8h-8q-35 19 -48 55q0 56 56 104zM638 1642h40q45 -26 63 -56v-8q-29 -71 -95 -71q0 -23 -64 -32l-48 64q0 7 8 7l-8 16q22 39 104 80zM24 1355q33 0 96 -175l16 -8q-16 60 -16 72q18 5 71 71l40 8
q43 -37 144 -279q85 -151 167 -263h8q184 337 335 494q12 0 32 16h40q12 0 31 -31l-71 -64q40 0 56 -64q-59 -158 -80 -175q-80 -176 -431 -638q-135 -143 -135 -191q-76 -128 -88 -128h-8q-39 21 -40 32v32q40 87 40 95q-6 0 -56 -55h-8q-43 0 -63 39v16q325 381 382 542
q-2 19 -48 56q-32 -16 -47 -16q-181 106 -263 295q-128 180 -128 295q0 12 24 24zM869 1156q-84 -132 -175 -303l-184 -303h-8v-24h16q0 24 160 223q183 288 183 351q16 0 16 16v40h-8z" />
    </font>
</defs>
</svg>
